# Blender 4.5.2 LTS
# www.blender.org
mtllib bDerOak.mtl
g BrazoDer_Mesh
v 17.123949 117.791901 2.865253
v 19.152910 118.038002 2.817913
v 17.304550 116.344894 -0.895800
v 19.266830 116.412598 -0.950814
v 19.545759 112.798004 -2.630014
v 17.664370 112.666008 -2.377338
v 17.515509 112.735497 10.233665
v 19.453659 112.847198 9.926961
v 17.345659 116.745697 7.822864
v 19.302639 116.819199 7.565333
v 19.530489 108.096397 -1.840976
v 17.982279 107.942696 -1.991428
v 17.924139 107.904099 8.586718
v 19.360479 107.912598 8.075340
v 19.688589 105.264198 2.227648
v 18.290169 104.074097 2.156391
v 18.290169 104.074097 2.156391
v 19.688589 105.264198 2.227648
v 26.333620 116.385696 -1.212149
v 29.539339 116.257698 -1.237739
v 26.209530 112.901794 -2.930257
v 29.488218 112.906700 -3.081417
v 26.376968 117.903900 2.607774
v 29.594799 117.757896 2.586925
v 29.586908 116.466698 7.288284
v 26.538500 116.728394 7.344359
v 29.640799 112.637299 9.350034
v 26.385599 112.732002 9.434931
v 29.631310 107.995399 7.327245
v 26.443810 108.003494 7.274420
v 26.453619 105.622894 2.105999
v 29.676659 105.660500 2.091579
v 26.229549 108.310699 -1.660891
v 29.488029 108.357399 -1.740750
v 26.453619 105.622894 2.105999
v 29.676659 105.660500 2.091579
v 23.678989 118.028198 2.698286
v 23.590120 116.430199 -1.137246
v 23.629040 116.749100 7.384168
v 23.608969 112.824295 9.615153
v 23.243900 107.971298 7.540195
v 23.201559 105.628296 2.168833
v 23.359360 108.287399 -1.704196
v 23.201559 105.628296 2.168833
v 23.473469 112.909996 -2.820506
v 21.453850 118.073006 2.764963
v 21.445309 116.530800 -1.040570
v 21.427149 116.828094 7.476222
v 21.387699 112.824799 9.706536
v 21.341190 107.962006 7.787106
v 21.234039 105.505005 2.222792
v 21.286640 108.221397 -1.715820
v 21.234039 105.505005 2.222792
v 21.445450 112.932800 -2.714460
v 35.899399 107.912003 7.245255
v 37.705589 110.290100 8.334362
v 35.906349 112.466599 9.099289
v 37.316860 112.346298 9.169101
v 39.224567 105.701195 2.136503
v 39.190418 107.789001 7.186810
v 35.933720 105.755600 2.122867
v 35.938030 108.197098 -1.748559
v 39.159229 108.134697 -1.722924
v 35.933720 105.755600 2.122867
v 39.224567 105.701195 2.136503
v 35.819649 112.835197 -3.094945
v 39.125450 112.750900 -3.173133
v 35.817230 116.159294 -1.173111
v 39.115868 116.034798 -1.208112
v 35.852329 117.444298 2.588139
v 39.159130 117.471397 2.559579
v 35.860279 116.301598 7.254599
v 39.160179 116.167099 7.243145
v 37.622349 114.158699 8.205831
v 39.194248 112.357796 9.044678
v 32.851601 107.954399 7.353915
v 32.854740 112.546295 9.186697
v 32.899849 105.665009 2.082225
v 32.901909 108.291298 -1.834258
v 32.899849 105.665009 2.082225
v 32.763908 112.852394 -3.163069
v 32.758858 116.305695 -1.268091
v 32.810921 117.708199 2.578856
v 32.799297 116.478897 7.312985
vn -0.1084 0.9922 -0.0609
vn -0.0627 0.9956 -0.0689
vn -0.0734 0.7222 -0.6878
vn -0.0528 0.7173 -0.6948
vn -0.0794 0.1111 -0.9906
vn -0.1167 0.1136 -0.9866
vn 0.1490 0.1127 0.9824
vn 0.1408 0.1069 0.9842
vn 0.0502 0.8012 0.5963
vn 0.0303 0.8094 0.5864
vn 0.1017 -0.5144 -0.8515
vn 0.1799 -0.4641 -0.8673
vn 0.2844 -0.5937 0.7527
vn 0.1874 -0.6860 0.7030
vn 0.3540 -0.8273 0.4363
vn 0.5671 -0.6930 0.4451
vn 0.5378 -0.5963 -0.5960
vn 0.3299 -0.7299 -0.5987
vn 0.0094 0.7353 -0.6777
vn -0.0031 0.7446 -0.6676
vn -0.0323 0.0955 -0.9949
vn -0.0346 0.1099 -0.9933
vn 0.0415 0.9964 -0.0738
vn 0.0300 0.9980 -0.0550
vn 0.0355 0.7789 0.6262
vn 0.0461 0.7839 0.6192
vn 0.0289 0.0310 0.9991
vn 0.0467 0.0371 0.9982
vn -0.0094 -0.6995 0.7146
vn 0.0270 -0.7126 0.7011
vn 0.0095 -0.9082 0.4184
vn 0.0011 -0.9130 0.4080
vn -0.0052 -0.5737 -0.8190
vn -0.0238 -0.5774 -0.8161
vn -0.0045 -0.8153 -0.5790
vn -0.0031 -0.8218 -0.5697
vn 0.0286 0.9974 -0.0662
vn -0.0034 0.7242 -0.6896
vn 0.0383 0.7870 0.6158
vn 0.0552 0.0574 0.9968
vn 0.0730 -0.7050 0.7054
vn 0.0432 -0.9131 0.4055
vn 0.0197 -0.5651 -0.8248
vn 0.0166 -0.8210 -0.5707
vn -0.0353 0.1037 -0.9940
vn -0.0014 0.9979 -0.0648
vn -0.0334 0.7289 -0.6838
vn 0.0352 0.7928 0.6084
vn 0.0779 0.0649 0.9948
vn 0.1097 -0.6854 0.7198
vn 0.1054 -0.9110 0.3986
vn 0.0496 -0.5518 -0.8325
vn 0.0799 -0.8188 -0.5685
vn -0.0491 0.1228 -0.9912
vn -0.0040 -0.7061 0.7081
vn 0.0097 -0.3835 0.9235
vn 0.0018 0.0445 0.9990
vn 0.0032 0.0354 0.9994
vn -0.0169 -0.9241 0.3819
vn 0.0008 -0.7208 0.6931
vn 0.0009 -0.9225 0.3861
vn 0.0002 -0.6025 -0.7981
vn -0.0056 -0.6156 -0.7880
vn 0.0102 -0.8458 -0.5333
vn -0.0118 -0.8459 -0.5332
vn 0.0036 0.1256 -0.9921
vn -0.0139 0.1152 -0.9932
vn 0.0344 0.7665 -0.6413
vn 0.0175 0.7594 -0.6503
vn 0.0418 0.9984 -0.0368
vn 0.0013 0.9993 -0.0371
vn 0.0472 0.7743 0.6311
vn 0.0210 0.7641 0.6448
vn 0.0248 0.4361 0.8996
vn 0.0581 0.0441 0.9973
vn 0.0011 -0.6933 0.7206
vn 0.0361 0.0277 0.9990
vn 0.0090 -0.9187 0.3949
vn -0.0108 -0.5842 -0.8116
vn 0.0080 -0.8354 -0.5496
vn 0.0025 0.1098 -0.9940
vn 0.0229 0.7571 -0.6529
vn 0.0458 0.9980 -0.0430
vn 0.0339 0.7785 0.6268
vt 0.000000 0.000000
s 1
g RShoulder
g BrazoDer_body.001
usemtl body.001
f 1/1/1 2/1/2 3/1/3
f 3/1/3 2/1/2 4/1/4
f 3/1/3 5/1/5 6/1/6
f 7/1/7 8/1/8 9/1/9
f 9/1/9 8/1/8 10/1/10
f 11/1/11 6/1/6 5/1/5
f 6/1/6 11/1/11 12/1/12
f 8/1/8 7/1/7 13/1/13
f 14/1/14 13/1/13 15/1/15
f 15/1/15 13/1/13 16/1/16
f 17/1/17 12/1/12 18/1/18
f 18/1/18 12/1/12 11/1/11
f 9/1/9 10/1/10 1/1/1
f 1/1/1 10/1/10 2/1/2
g RArm
f 19/1/19 20/1/20 21/1/21
f 21/1/21 20/1/20 22/1/22
f 23/1/23 24/1/24 19/1/19
f 19/1/19 24/1/24 20/1/20
f 25/1/25 24/1/24 26/1/26
f 26/1/26 24/1/24 23/1/23
f 27/1/27 25/1/25 28/1/28
f 28/1/28 25/1/25 26/1/26
f 29/1/29 27/1/27 30/1/30
f 30/1/30 27/1/27 28/1/28
f 31/1/31 32/1/32 30/1/30
f 30/1/30 32/1/32 29/1/29
f 33/1/33 34/1/34 35/1/35
f 35/1/35 34/1/34 36/1/36
f 22/1/22 34/1/34 21/1/21
f 21/1/21 34/1/34 33/1/33
g RArmEX
f 37/1/37 23/1/23 38/1/38
f 38/1/38 23/1/23 19/1/19
f 39/1/39 26/1/26 37/1/37
f 37/1/37 26/1/26 23/1/23
f 40/1/40 28/1/28 39/1/39
f 39/1/39 28/1/28 26/1/26
f 30/1/30 28/1/28 41/1/41
f 41/1/41 28/1/28 40/1/40
f 31/1/31 30/1/30 42/1/42
f 42/1/42 30/1/30 41/1/41
f 43/1/43 33/1/33 44/1/44
f 44/1/44 33/1/33 35/1/35
f 21/1/21 33/1/33 45/1/45
f 45/1/45 33/1/33 43/1/43
f 19/1/19 21/1/21 38/1/38
f 38/1/38 21/1/21 45/1/45
f 2/1/2 46/1/46 4/1/4
f 4/1/4 46/1/46 47/1/47
f 10/1/10 48/1/48 2/1/2
f 2/1/2 48/1/48 46/1/46
f 8/1/8 49/1/49 10/1/10
f 10/1/10 49/1/49 48/1/48
f 50/1/50 8/1/8 14/1/14
f 51/1/51 50/1/50 15/1/15
f 15/1/15 50/1/50 14/1/14
f 52/1/52 53/1/53 11/1/11
f 11/1/11 53/1/53 18/1/18
f 54/1/54 52/1/52 5/1/5
f 5/1/5 52/1/52 11/1/11
f 47/1/47 54/1/54 4/1/4
f 4/1/4 54/1/54 5/1/5
f 47/1/47 38/1/38 54/1/54
f 54/1/54 38/1/38 45/1/45
f 46/1/46 37/1/37 47/1/47
f 47/1/47 37/1/37 38/1/38
f 48/1/48 39/1/39 46/1/46
f 46/1/46 39/1/39 37/1/37
f 49/1/49 40/1/40 48/1/48
f 48/1/48 40/1/40 39/1/39
f 50/1/50 41/1/41 49/1/49
f 49/1/49 41/1/41 40/1/40
f 42/1/42 41/1/41 51/1/51
f 51/1/51 41/1/41 50/1/50
f 43/1/43 44/1/44 52/1/52
f 52/1/52 44/1/44 53/1/53
f 52/1/52 45/1/45 43/1/43
f 45/1/45 52/1/52 54/1/54
g RShoulder
f 14/1/14 8/1/8 13/1/13
g RArmEX
f 50/1/50 49/1/49 8/1/8
g RShoulder
f 3/1/3 4/1/4 5/1/5
g RArm
f 55/1/55 56/1/56 57/1/57
f 57/1/57 56/1/56 58/1/58
g RForeArm
f 59/1/59 60/1/60 61/1/61
g RArm
f 61/1/61 60/1/60 55/1/55
f 62/1/62 63/1/63 64/1/64
g RForeArm
f 64/1/64 63/1/63 65/1/65
g RArm
f 66/1/66 67/1/67 62/1/62
g RForeArm
f 62/1/62 67/1/67 63/1/63
g RArm
f 68/1/68 69/1/69 66/1/66
g RForeArm
f 66/1/66 69/1/69 67/1/67
g RArm
f 70/1/70 71/1/71 68/1/68
g RForeArm
f 68/1/68 71/1/71 69/1/69
g RArm
f 72/1/72 73/1/73 70/1/70
g RForeArm
f 70/1/70 73/1/73 71/1/71
g RArm
f 74/1/74 73/1/73 72/1/72
f 55/1/55 57/1/57 76/1/76
f 76/1/76 57/1/57 77/1/77
f 61/1/61 55/1/55 78/1/78
f 78/1/78 55/1/55 76/1/76
f 79/1/79 62/1/62 80/1/80
f 80/1/80 62/1/62 64/1/64
f 81/1/81 66/1/66 79/1/79
f 79/1/79 66/1/66 62/1/62
f 82/1/82 68/1/68 81/1/81
f 81/1/81 68/1/68 66/1/66
f 70/1/70 68/1/68 83/1/83
f 83/1/83 68/1/68 82/1/82
f 72/1/72 70/1/70 84/1/84
f 84/1/84 70/1/70 83/1/83
f 57/1/57 72/1/72 77/1/77
f 77/1/77 72/1/72 84/1/84
f 76/1/76 77/1/77 29/1/29
f 29/1/29 77/1/77 27/1/27
f 78/1/78 76/1/76 32/1/32
f 32/1/32 76/1/76 29/1/29
f 34/1/34 79/1/79 36/1/36
f 36/1/36 79/1/79 80/1/80
f 22/1/22 81/1/81 34/1/34
f 34/1/34 81/1/81 79/1/79
f 20/1/20 82/1/82 22/1/22
f 22/1/22 82/1/82 81/1/81
f 83/1/83 82/1/82 24/1/24
f 24/1/24 82/1/82 20/1/20
f 84/1/84 83/1/83 25/1/25
f 25/1/25 83/1/83 24/1/24
f 77/1/77 84/1/84 27/1/27
f 27/1/27 84/1/84 25/1/25
f 58/1/58 75/1/75 74/1/74
g RForeArm
f 74/1/74 75/1/75 73/1/73
f 60/1/60 75/1/75 56/1/56
g RArm
f 56/1/56 75/1/75 58/1/58
f 58/1/58 74/1/74 57/1/57
f 57/1/57 74/1/74 72/1/72
f 55/1/55 60/1/60 56/1/56
