# Blender 4.5.2 LTS
# www.blender.org
mtllib bIzq2Oak.mtl
g tr0004_00_topsSkin.002_Mesh
v 0.057291 0.673891 0.034823
v 0.039547 0.523057 -0.334703
v -0.142056 0.696144 0.030172
v -0.153248 0.538374 -0.340108
v 0.004194 0.170269 -0.480265
v -0.180653 0.183238 -0.505090
v 0.018820 0.177097 0.758774
v 0.035508 0.562435 0.521911
v -0.171604 0.188071 0.728640
v -0.156767 0.578323 0.496609
v -0.179153 -0.278698 -0.427567
v -0.027040 -0.293799 -0.442349
v -0.021328 -0.297591 0.596960
v -0.162449 -0.296756 0.546717
v -0.194686 -0.556963 -0.027822
v -0.057291 -0.673891 -0.034823
v -0.057291 -0.673891 -0.034823
v -0.194686 -0.556963 -0.027822
v -0.847565 0.535731 -0.365784
v -0.835373 0.193435 -0.534589
v -1.162528 0.523155 -0.368298
v -1.157506 0.193917 -0.549441
v -0.851824 0.684895 0.009526
v -1.167977 0.670550 0.007477
v -0.867694 0.569401 0.474898
v -1.167202 0.543689 0.469388
v -0.852672 0.176753 0.680298
v -1.172497 0.167448 0.671957
v -0.858391 -0.287825 0.468026
v -1.171564 -0.288621 0.473216
v -0.859355 -0.521721 -0.039774
v -1.176020 -0.518026 -0.041191
v -0.837340 -0.257642 -0.409873
v -0.859355 -0.521721 -0.039774
v -1.157487 -0.253054 -0.417719
v -1.176020 -0.518026 -0.041191
v -0.586746 0.697107 0.018418
v -0.578014 0.540103 -0.358425
v -0.581838 0.571435 0.478809
v -0.579866 0.185821 0.698005
v -0.543998 -0.290989 0.494139
v -0.539838 -0.521190 -0.033601
v -0.555342 -0.259932 -0.414128
v -0.539838 -0.521190 -0.033601
v -0.566553 0.194241 -0.523806
v -0.368124 0.698218 0.024970
v -0.367285 0.546696 -0.348926
v -0.365501 0.575905 0.487854
v -0.361625 0.185870 0.706983
v -0.357055 -0.291902 0.518398
v -0.346528 -0.533304 -0.028299
v -0.346528 -0.533304 -0.028299
v -0.351696 -0.266416 -0.415270
v -0.367299 0.196482 -0.513387
v -1.787408 -0.296815 0.465161
v -1.788091 0.150677 0.647321
v -1.790780 -0.508682 -0.038117
v -1.791011 -0.268804 -0.417212
v -1.790780 -0.508682 -0.038117
v -1.779316 0.186892 -0.549487
v -1.779171 0.513487 -0.360667
v -1.782783 0.639739 0.007596
v -1.783564 0.527468 0.466080
v -1.488268 0.158507 0.655909
v -1.487960 -0.292649 0.475837
v -1.492700 -0.517583 -0.042110
v -1.492903 -0.259549 -0.426907
v -1.492700 -0.517583 -0.042110
v -1.479344 0.188582 -0.557463
v -1.478848 0.527870 -0.371280
v -1.483963 0.665667 0.006684
v -1.482821 0.544888 0.471815
vn 0.0974 0.9901 -0.1014
vn 0.0289 0.7747 -0.6316
vn 0.0493 0.9978 -0.0439
vn 0.0656 0.8107 -0.5817
vn -0.1151 0.2876 -0.9508
vn 0.0793 0.0865 -0.9931
vn -0.2600 0.1842 0.9479
vn -0.0679 0.7814 0.6203
vn -0.1132 0.2401 0.9641
vn -0.0185 0.8255 0.5641
vn -0.2015 -0.5982 -0.7756
vn -0.6657 -0.3865 -0.6383
vn -0.5188 -0.3737 0.7689
vn -0.2784 -0.7497 0.6003
vn -0.3096 -0.9508 -0.0125
vn -0.8507 -0.5255 0.0099
vn -0.8508 -0.5255 0.0099
vn -0.0048 0.7439 -0.6682
vn 0.0228 0.0578 -0.9981
vn -0.0016 0.7527 -0.6584
vn 0.0257 0.0614 -0.9978
vn -0.0413 0.9984 -0.0384
vn -0.0284 0.9991 -0.0303
vn -0.0517 0.7989 0.5992
vn -0.0387 0.7914 0.6101
vn -0.0417 -0.0083 0.9991
vn -0.0208 -0.0019 0.9998
vn -0.0224 -0.7283 0.6848
vn -0.0011 -0.7182 0.6958
vn -0.0091 -0.9994 -0.0325
vn 0.0053 -0.9990 -0.0439
vn 0.0107 -0.5792 -0.8151
vn 0.0205 -0.5768 -0.8166
vn 0.0054 -0.9990 -0.0439
vn -0.0206 0.9992 -0.0329
vn 0.0096 0.7360 -0.6769
vn -0.0373 0.7977 0.6018
vn -0.0630 0.0154 0.9979
vn -0.0576 -0.7219 0.6897
vn -0.0322 -0.9991 -0.0280
vn -0.0060 -0.6101 -0.7923
vn -0.0321 -0.9991 -0.0280
vn 0.0252 0.1060 -0.9940
vn -0.0010 0.9993 -0.0379
vn 0.0276 0.7756 -0.6306
vn -0.0371 0.8069 0.5895
vn -0.0766 0.1130 0.9906
vn -0.0967 -0.7381 0.6677
vn -0.0904 -0.9957 -0.0207
vn -0.0571 -0.6520 -0.7561
vn 0.0457 0.1647 -0.9853
vn -0.0262 0.0029 0.9997
vn -0.0242 -0.0196 0.9995
vn -0.0098 -0.7170 0.6970
vn 0.0950 -0.7051 0.7027
vn 0.0001 -0.9991 -0.0423
vn -0.3108 -0.9478 0.0719
vn 0.0036 -0.5835 -0.8121
vn -0.0070 -0.6040 -0.7969
vn -0.3784 -0.9151 -0.1393
vn -0.0026 0.0642 -0.9979
vn -0.0247 0.1686 -0.9854
vn -0.0237 0.7651 -0.6435
vn -0.0474 0.7623 -0.6455
vn -0.0368 0.9991 -0.0208
vn -0.0613 0.9974 -0.0389
vn -0.0383 0.7929 0.6082
vn -0.0558 0.8424 0.5359
vt 0.554959 0.165947
vt 0.554959 0.148395
vt 0.565130 0.165798
vt 0.564128 0.146991
vt 0.554959 0.127104
vt 0.562336 0.126105
vt 0.554959 0.209797
vt 0.554959 0.186350
vt 0.562119 0.210541
vt 0.564501 0.187691
vt 0.559710 0.100870
vt 0.554959 0.101679
vt 0.554959 0.232654
vt 0.558512 0.234388
vt 0.559901 0.270816
vt 0.555134 0.270816
vt 0.555134 0.071856
vt 0.559554 0.071856
vt 0.608305 0.144891
vt 0.608667 0.124090
vt 0.628240 0.145268
vt 0.628466 0.123889
vt 0.608384 0.165485
vt 0.628322 0.165930
vt 0.608934 0.189058
vt 0.627644 0.189180
vt 0.608692 0.211757
vt 0.628539 0.211586
vt 0.610121 0.242626
vt 0.629216 0.242377
vt 0.611974 0.270875
vt 0.630598 0.270814
vt 0.608842 0.097828
vt 0.611236 0.071888
vt 0.628257 0.098010
vt 0.629691 0.071934
vt 0.591915 0.165660
vt 0.592076 0.145203
vt 0.591313 0.188891
vt 0.590214 0.211427
vt 0.589432 0.241897
vt 0.592350 0.270766
vt 0.589373 0.098843
vt 0.591883 0.071775
vt 0.590314 0.124702
vt 0.575740 0.165688
vt 0.574963 0.146288
vt 0.574976 0.188202
vt 0.573538 0.211172
vt 0.573430 0.238800
vt 0.572813 0.270559
vt 0.571721 0.071916
vt 0.573384 0.099423
vt 0.574748 0.125621
vt 0.647746 0.211923
vt 0.666279 0.212018
vt 0.648302 0.242052
vt 0.666520 0.242283
vt 0.648761 0.270824
vt 0.667139 0.270762
vt 0.648447 0.098120
vt 0.648232 0.071752
vt 0.666562 0.097754
vt 0.666525 0.071966
vt 0.647770 0.123696
vt 0.666090 0.123644
vt 0.647631 0.145293
vt 0.666063 0.145336
vt 0.647668 0.166223
vt 0.666024 0.166329
vt 0.647489 0.189602
vt 0.666079 0.189887
s 1
g LShoulder
g tr0004_00_topsSkin.002_body
usemtl body
f 1/1/1 2/2/2 3/3/3
f 3/3/3 2/2/2 4/4/4
f 2/2/2 5/5/5 6/6/6
f 7/7/7 8/8/8 9/9/9
f 9/9/9 8/8/8 10/10/10
f 11/11/11 5/5/5 12/12/12
f 5/5/5 11/11/11 6/6/6
f 9/9/9 13/13/13 7/7/7
f 14/14/14 15/15/15 13/13/13
f 13/13/13 15/15/15 16/16/16
f 17/17/17 18/18/15 12/12/12
f 12/12/12 18/18/15 11/11/11
f 8/8/8 1/1/1 10/10/10
f 10/10/10 1/1/1 3/3/3
g LArm
f 19/19/18 20/20/19 21/21/20
f 21/21/20 20/20/19 22/22/21
f 23/23/22 19/19/18 24/24/23
f 24/24/23 19/19/18 21/21/20
f 23/23/22 24/24/23 25/25/24
f 25/25/24 24/24/23 26/26/25
f 25/25/24 26/26/25 27/27/26
f 27/27/26 26/26/25 28/28/27
f 27/27/26 28/28/27 29/29/28
f 29/29/28 28/28/27 30/30/29
f 31/31/30 29/29/28 32/32/31
f 32/32/31 29/29/28 30/30/29
f 33/33/32 34/34/30 35/35/33
f 35/35/33 34/34/30 36/36/34
f 33/33/32 35/35/33 20/20/19
f 20/20/19 35/35/33 22/22/21
g LArmEX
f 37/37/35 38/38/36 23/23/22
f 23/23/22 38/38/36 19/19/18
f 39/39/37 37/37/35 25/25/24
f 25/25/24 37/37/35 23/23/22
f 40/40/38 39/39/37 27/27/26
f 27/27/26 39/39/37 25/25/24
f 40/40/38 27/27/26 41/41/39
f 41/41/39 27/27/26 29/29/28
f 41/41/39 29/29/28 42/42/40
f 42/42/40 29/29/28 31/31/30
f 43/43/41 44/44/42 33/33/32
f 33/33/32 44/44/42 34/34/30
f 43/43/41 33/33/32 45/45/43
f 45/45/43 33/33/32 20/20/19
f 45/45/43 20/20/19 38/38/36
f 38/38/36 20/20/19 19/19/18
f 3/3/3 4/4/4 46/46/44
f 46/46/44 4/4/4 47/47/45
f 10/10/10 3/3/3 48/48/46
f 48/48/46 3/3/3 46/46/44
f 9/9/9 10/10/10 49/49/47
f 49/49/47 10/10/10 48/48/46
f 50/50/48 14/14/14 9/9/9
f 14/14/14 50/50/48 15/15/15
f 15/15/15 50/50/48 51/51/49
f 18/18/15 52/52/49 11/11/11
f 11/11/11 52/52/49 53/53/50
f 11/11/11 53/53/50 6/6/6
f 6/6/6 53/53/50 54/54/51
f 6/6/6 54/54/51 4/4/4
f 4/4/4 54/54/51 47/47/45
f 47/47/45 54/54/51 38/38/36
f 38/38/36 54/54/51 45/45/43
f 46/46/44 47/47/45 37/37/35
f 37/37/35 47/47/45 38/38/36
f 48/48/46 46/46/44 39/39/37
f 39/39/37 46/46/44 37/37/35
f 49/49/47 48/48/46 40/40/38
f 40/40/38 48/48/46 39/39/37
f 50/50/48 49/49/47 41/41/39
f 41/41/39 49/49/47 40/40/38
f 50/50/48 41/41/39 51/51/49
f 51/51/49 41/41/39 42/42/40
f 52/52/49 44/44/42 53/53/50
f 53/53/50 44/44/42 43/43/41
f 53/53/50 45/45/43 54/54/51
f 45/45/43 53/53/50 43/43/41
g LShoulder
f 14/14/14 13/13/13 9/9/9
g LArmEX
f 50/50/48 9/9/9 49/49/47
g LShoulder
f 2/2/2 6/6/6 4/4/4
g LArm
f 64/55/52 56/56/53 65/57/54
f 65/57/54 56/56/53 55/58/55
f 65/57/54 55/58/55 66/59/56
f 66/59/56 55/58/55 57/60/57
f 67/61/58 68/62/56 58/63/59
f 58/63/59 68/62/56 59/64/60
f 69/65/61 67/61/58 60/66/62
f 60/66/62 67/61/58 58/63/59
f 70/67/63 69/65/61 61/68/64
f 61/68/64 69/65/61 60/66/62
f 70/67/63 61/68/64 71/69/65
f 71/69/65 61/68/64 62/70/66
f 71/69/65 62/70/66 72/71/67
f 72/71/67 62/70/66 63/72/68
f 72/71/67 63/72/68 64/55/52
f 64/55/52 63/72/68 56/56/53
f 28/28/27 64/55/52 30/30/29
f 30/30/29 64/55/52 65/57/54
f 30/30/29 65/57/54 32/32/31
f 32/32/31 65/57/54 66/59/56
f 35/35/33 36/36/34 67/61/58
f 67/61/58 36/36/34 68/62/56
f 22/22/21 35/35/33 69/65/61
f 69/65/61 35/35/33 67/61/58
f 21/21/20 22/22/21 70/67/63
f 70/67/63 22/22/21 69/65/61
f 21/21/20 70/67/63 24/24/23
f 24/24/23 70/67/63 71/69/65
f 24/24/23 71/69/65 26/26/25
f 26/26/25 71/69/65 72/71/67
f 26/26/25 72/71/67 28/28/27
f 28/28/27 72/71/67 64/55/52
