# Blender 4.5.2 LTS
# www.blender.org
mtllib derDelanEevee.mtl
g derDelantera_Mesh
v -2.300930 -1.492920 0.396935
v -2.218480 -1.167480 -1.026405
v -2.105420 -3.021090 -0.030515
v -2.049550 -3.017520 -1.412315
v -1.435280 -1.317250 -2.257725
v -1.463960 -0.405640 -2.390515
v -1.976380 -4.073170 -0.310875
v -0.126720 -1.185310 -2.763305
v -0.236350 0.446290 -2.943325
v -1.935910 -4.039670 -1.600415
v -1.340880 -3.030130 -2.387625
v 1.386280 -1.149920 -2.266045
v 1.327860 0.755000 -2.227215
v -1.833720 -5.567040 -0.727075
v -0.056550 -3.034530 -2.916535
v -1.299390 -4.005380 -2.585365
v 2.246950 -1.176980 -1.050455
v 2.149710 0.960999 -0.829565
v -1.783030 -5.526530 -1.958935
v -1.747240 -6.965980 -1.129965
v 1.370340 -2.989900 -2.433355
v 2.271720 -1.197870 0.448815
v 2.212830 0.979700 0.696755
v -1.755850 -6.814550 -2.294155
v -0.042540 -3.936010 -3.041595
v -1.174930 -5.503760 -2.949585
v 2.136580 -2.955010 -1.400675
v 1.605610 -1.314000 1.851855
v 1.678340 0.638740 2.550705
v 1.328580 -3.979570 -2.617435
v -1.136270 -6.710260 -3.299314
v 0.013210 -5.478590 -3.416025
v 2.167260 -2.996380 -0.020795
v 0.236350 -0.446290 2.943325
v 2.064220 -4.002360 -1.640825
v 1.248940 -5.467530 -2.954745
v 0.016160 -6.697510 -3.740685
v 1.487210 -3.093400 1.242795
v 0.153050 -1.384370 2.498835
v -1.463430 -1.263510 1.863555
v 2.089780 -4.001220 -0.258355
v 1.963920 -5.504840 -2.005185
v 1.168600 -6.710030 -3.303195
v 0.052940 -3.129840 1.717345
v 1.388620 -4.055150 0.914435
v -0.001770 -4.110020 1.301275
v 1.960710 -5.582590 -0.725975
v 1.890300 -6.814550 -2.294155
v -1.331890 -3.064480 1.270505
v 0.013210 -5.658850 0.695225
v -1.205260 -4.088940 0.947675
v 1.228970 -5.623350 0.355305
v 1.881700 -6.965980 -1.129965
v -1.112420 -5.635500 0.367905
v 1.104380 -7.077760 -0.195185
v 0.016160 -7.127250 0.054355
v -1.072050 -7.077760 -0.195185
v 0.016160 -8.474819 -0.524285
v -1.208220 -8.378330 -0.845325
v 0.016160 -9.277290 -1.265915
v -1.944870 -8.138490 -1.640615
v -1.661400 -9.275469 -1.823295
v -2.002220 -8.344095 -2.265175
v -1.907040 -7.491930 -3.448245
v -1.016270 -6.979450 -4.020505
v -1.885790 -9.279178 -3.278355
v -1.991160 -8.704013 -3.273644
v 0.016160 -6.850880 -4.191225
v 1.048600 -6.979450 -4.020505
v -1.695090 -7.808400 -4.305885
v -1.841080 -8.803317 -4.149895
v -1.733210 -9.276490 -4.111945
v 0.732030 -7.329060 -4.664445
v -0.699700 -7.329060 -4.664445
v 0.016160 -7.269060 -4.782044
v 1.939370 -7.491930 -3.448245
v -1.423170 -9.276490 -4.551475
v 0.646920 -7.984800 -5.164414
v 1.727420 -7.808400 -4.305885
v 0.732030 -8.830439 -4.656795
v 1.457170 -8.016260 -4.784645
v 0.843110 -8.012130 -5.022885
v -1.424840 -8.016260 -4.784645
v -0.614590 -7.984800 -5.164414
v -0.810780 -8.012130 -5.022885
v -0.699700 -8.830439 -4.656795
v 2.034550 -8.344095 -2.265175
v 1.977200 -8.138490 -1.640615
v -1.488790 -8.830439 -4.767545
v -0.810780 -9.276490 -4.796535
v 0.646920 -8.830439 -5.124965
v 0.016160 -7.984200 -5.255815
v 0.016160 -8.830439 -5.220415
v 0.843110 -8.830439 -5.007285
v 1.873410 -8.803317 -4.149895
v 1.521120 -8.830439 -4.767545
v -0.810780 -8.830439 -5.007285
v -0.697950 -9.276490 -4.724845
v -0.614590 -8.830439 -5.124965
v -0.649130 -9.276490 -4.874515
v 2.023490 -8.704013 -3.273644
v 1.240550 -8.378330 -0.845325
v 0.681460 -9.276490 -4.874515
v 0.016160 -9.276490 -4.978605
v 0.843110 -9.276490 -4.796535
v 1.455500 -9.276490 -4.551475
v 1.918120 -9.279178 -3.278355
v 1.693730 -9.275469 -1.823295
v 0.730280 -9.276490 -4.724845
v 1.765540 -9.276490 -4.111945
v 0.016160 -9.276490 -3.325795
v 0.016160 -9.276490 -4.718494
vn -0.9496 -0.1856 0.2527
vn -0.9579 -0.0378 -0.2845
vn -0.9562 -0.1796 0.2313
vn -0.9457 -0.0414 -0.3224
vn -0.5553 -0.0201 -0.8314
vn -0.9524 -0.1747 0.2497
vn -0.3387 -0.1357 -0.9311
vn -0.0193 -0.0222 -0.9996
vn 0.1048 -0.0644 -0.9924
vn -0.9521 -0.0282 -0.3044
vn -0.6271 0.0701 -0.7758
vn 0.6086 0.0397 -0.7925
vn 0.6723 0.0550 -0.7382
vn -0.9529 -0.1555 0.2603
vn -0.0288 0.1183 -0.9926
vn -0.6347 0.1214 -0.7632
vn 0.9559 0.0268 -0.2926
vn 0.9641 0.0641 -0.2577
vn -0.9573 0.0097 -0.2890
vn -0.9419 -0.0846 0.3250
vn 0.5895 0.0971 -0.8019
vn 0.9742 -0.0592 0.2179
vn 0.9883 -0.0282 0.1498
vn -0.9651 0.1933 -0.1767
vn -0.0247 0.1787 -0.9836
vn -0.6362 0.1670 -0.7532
vn 0.9476 0.0008 -0.3194
vn 0.7087 -0.2618 0.6552
vn 0.8131 -0.2228 0.5379
vn 0.5789 0.1354 -0.8041
vn -0.5935 0.5546 -0.5832
vn -0.0055 0.2471 -0.9690
vn 0.9648 -0.1300 0.2287
vn 0.2028 -0.3935 0.8967
vn 0.9469 0.0083 -0.3215
vn 0.5939 0.1662 -0.7872
vn -0.0006 0.7311 -0.6822
vn 0.6308 -0.2961 0.7173
vn 0.0096 -0.4196 0.9077
vn -0.5493 -0.3203 0.7718
vn 0.9545 -0.1517 0.2568
vn 0.9479 0.0159 -0.3182
vn 0.5746 0.5438 -0.6116
vn 0.0014 -0.3800 0.9250
vn 0.5961 -0.3106 0.7405
vn -0.0081 -0.3676 0.9299
vn 0.9440 -0.1599 0.2888
vn 0.9659 0.1482 -0.2124
vn -0.6041 -0.3037 0.7367
vn -0.0025 -0.3809 0.9246
vn -0.5805 -0.3110 0.7525
vn 0.5652 -0.3276 0.7571
vn 0.9302 -0.1233 0.3458
vn -0.5729 -0.3175 0.7557
vn 0.5135 -0.3290 0.7925
vn -0.0003 -0.3885 0.9215
vn -0.5416 -0.3173 0.7784
vn -0.0000 -0.5460 0.8378
vn -0.5052 -0.4298 0.7484
vn -0.0000 -0.8854 0.4649
vn -0.9352 -0.0911 0.3423
vn -0.5544 -0.7606 0.3378
vn -0.9946 -0.0636 0.0824
vn -0.8933 0.3822 -0.2366
vn -0.4028 0.7914 -0.4599
vn -0.6639 -0.7475 -0.0197
vn -0.9949 -0.0639 -0.0778
vn -0.0000 0.8910 -0.4541
vn 0.4027 0.7910 -0.4607
vn -0.8074 0.3699 -0.4597
vn -0.9366 -0.0841 -0.3401
vn -0.6142 -0.7448 -0.2609
vn 0.3156 0.6556 -0.6860
vn -0.3156 0.6556 -0.6860
vn -0.0000 0.7017 -0.7125
vn 0.8918 0.3715 -0.2582
vn -0.4176 -0.7876 -0.4530
vn 0.6340 0.2013 -0.7467
vn 0.8074 0.3699 -0.4597
vn 0.0852 -0.0996 -0.9914
vn 0.5999 0.2765 -0.7507
vn -0.3771 0.1844 -0.9076
vn -0.5999 0.2765 -0.7507
vn -0.6340 0.2013 -0.7467
vn 0.3771 0.1844 -0.9076
vn -0.0852 -0.0996 -0.9914
vn 0.9931 -0.0865 0.0793
vn 0.9301 -0.1332 0.3422
vn -0.6301 -0.1880 -0.7534
vn 0.2051 -0.7122 -0.6714
vn 0.6485 -0.1938 -0.7362
vn -0.0000 0.2615 -0.9652
vn -0.0000 -0.2621 -0.9651
vn -0.4092 -0.1917 -0.8921
vn 0.9366 -0.0841 -0.3401
vn 0.6301 -0.1880 -0.7534
vn 0.4092 -0.1917 -0.8921
vn -0.1473 -0.9154 -0.3747
vn -0.6485 -0.1938 -0.7362
vn -0.5657 -0.6908 -0.4503
vn 0.9949 -0.0639 -0.0778
vn 0.4964 -0.4410 0.7478
vn 0.5657 -0.6908 -0.4503
vn -0.0000 -0.8378 -0.5460
vn -0.2051 -0.7122 -0.6714
vn 0.4176 -0.7876 -0.4530
vn 0.6639 -0.7475 -0.0197
vn 0.5544 -0.7606 0.3378
vn 0.1473 -0.9154 -0.3747
vn 0.6142 -0.7448 -0.2609
vn -0.0000 -1.0000 0.0002
vn -0.0000 -1.0000 -0.0000
vt 0.297485 0.224967
vt 0.286236 0.227077
vt 0.295320 0.207095
vt 0.283708 0.205197
vt 0.274878 0.234606
vt 0.293512 0.191782
vt 0.274765 0.245996
vt 0.261281 0.241163
vt 0.264435 0.266519
vt 0.282192 0.189741
vt 0.272549 0.206763
vt 0.245620 0.246305
vt 0.248866 0.276633
vt 0.291602 0.167791
vt 0.258483 0.209381
vt 0.270909 0.190583
vt 0.231047 0.251517
vt 0.234205 0.287675
vt 0.278944 0.163599
vt 0.290239 0.142574
vt 0.242941 0.213948
vt 0.216562 0.258161
vt 0.219643 0.296351
vt 0.277019 0.142574
vt 0.257419 0.193998
vt 0.268009 0.164384
vt 0.230412 0.218781
vt 0.201425 0.262530
vt 0.199709 0.300081
vt 0.242778 0.196125
vt 0.264934 0.142574
vt 0.255204 0.165337
vt 0.216736 0.223691
vt 0.184512 0.276954
vt 0.230522 0.199281
vt 0.242770 0.167399
vt 0.254102 0.142574
vt 0.202729 0.226953
vt 0.185619 0.259467
vt 0.170039 0.245125
vt 0.216951 0.204280
vt 0.231319 0.169513
vt 0.243657 0.142574
vt 0.187968 0.224474
vt 0.203380 0.207345
vt 0.188992 0.204949
vt 0.218462 0.171892
vt 0.232245 0.142574
vt 0.174574 0.217554
vt 0.191348 0.173399
vt 0.177063 0.199977
vt 0.204801 0.174277
vt 0.220076 0.142574
vt 0.162409 0.207095
vt 0.178962 0.170766
vt 0.164778 0.191782
vt 0.158346 0.224967
vt 0.206067 0.142574
vt 0.192463 0.142574
vt 0.166305 0.167791
vt 0.178414 0.142574
vt 0.164912 0.142574
vt 0.235720 0.459156
vt 0.226854 0.462294
vt 0.235720 0.438822
vt 0.222867 0.440610
vt 0.216757 0.464226
vt 0.235720 0.417969
vt 0.212695 0.442673
vt 0.204574 0.467903
vt 0.214171 0.417969
vt 0.207213 0.437036
vt 0.194313 0.449105
vt 0.190051 0.472684
vt 0.183680 0.457385
vt 0.172002 0.475022
vt 0.198370 0.417969
vt 0.198045 0.428333
vt 0.171966 0.461167
vt 0.160235 0.457571
vt 0.154009 0.473029
vt 0.188076 0.439781
vt 0.190675 0.425327
vt 0.190644 0.417969
vt 0.165084 0.444711
vt 0.178769 0.444637
vt 0.171926 0.446300
vt 0.149411 0.449483
vt 0.138988 0.467812
vt 0.186018 0.417969
vt 0.167969 0.434587
vt 0.155689 0.439953
vt 0.165084 0.424137
vt 0.158750 0.435175
vt 0.162109 0.434609
vt 0.185012 0.435072
vt 0.175781 0.434558
vt 0.181641 0.434544
vt 0.178769 0.424119
vt 0.136380 0.437220
vt 0.130836 0.442910
vt 0.127042 0.464323
vt 0.185741 0.424687
vt 0.181641 0.417969
vt 0.167969 0.424408
vt 0.171885 0.434608
vt 0.171885 0.424368
vt 0.162109 0.424628
vt 0.153044 0.425388
vt 0.158000 0.424728
vt 0.181641 0.424600
vt 0.178769 0.417969
vt 0.175781 0.424397
vt 0.175781 0.417969
vt 0.145623 0.428442
vt 0.120685 0.440529
vt 0.116686 0.461847
vt 0.167969 0.417969
vt 0.171902 0.417969
vt 0.162109 0.417969
vt 0.157718 0.417969
vt 0.145290 0.417969
vt 0.129410 0.417969
vt 0.107961 0.438822
vt 0.107961 0.459156
vt 0.165084 0.417969
vt 0.153069 0.417969
vt 0.107961 0.417969
vt 0.130961 0.844250
vt 0.131620 0.842177
vt 0.133213 0.855505
vt 0.137252 0.861203
vt 0.144917 0.864007
vt 0.144476 0.829052
vt 0.131678 0.829052
vt 0.130244 0.841279
vt 0.158292 0.859883
vt 0.129288 0.829052
vt 0.163408 0.829052
vt 0.131620 0.815927
vt 0.158292 0.798222
vt 0.144917 0.794097
vt 0.130244 0.816825
vt 0.137252 0.796901
vt 0.133213 0.802599
vt 0.130961 0.813854
s 1
g RArm
g derDelantera_Material__12.001
usemtl Material__12.001
f 1/1/1 2/2/2 3/3/3
f 2/2/2 4/4/4 3/3/3
f 2/2/2 5/5/5 4/4/4
g RForeArm
f 3/3/3 4/4/4 7/6/6
g RArm
f 6/7/7 8/8/8 5/5/5
f 6/7/7 9/9/9 8/8/8
g RForeArm
f 4/4/4 10/10/10 7/6/6
g RArm
f 4/4/4 5/5/5 11/11/11
g RForeArm
f 4/4/4 11/11/11 10/10/10
g RArm
f 5/5/5 8/8/8 11/11/11
f 9/9/9 12/12/12 8/8/8
f 9/9/9 13/13/13 12/12/12
g RForeArm
f 7/6/6 10/10/10 14/14/14
g RArm
f 11/11/11 8/8/8 15/15/15
g RForeArm
f 11/11/11 16/16/16 10/10/10
f 11/11/11 15/15/15 16/16/16
g RArm
f 13/13/13 17/17/17 12/12/12
f 13/13/13 18/18/18 17/17/17
g RForeArm
f 14/14/14 10/10/10 19/19/19
f 14/14/14 19/19/19 20/20/20
f 10/10/10 16/16/16 19/19/19
g RArm
f 8/8/8 21/21/21 15/15/15
f 8/8/8 12/12/12 21/21/21
f 18/18/18 22/22/22 17/17/17
f 18/18/18 23/23/23 22/22/22
g RForeArm
f 20/20/20 19/19/19 24/24/24
f 16/16/16 15/15/15 25/25/25
f 16/16/16 26/26/26 19/19/19
f 16/16/16 25/25/25 26/26/26
f 19/19/19 26/26/26 24/24/24
g RArm
f 12/12/12 27/27/27 21/21/21
f 12/12/12 17/17/17 27/27/27
f 23/23/23 28/28/28 22/22/22
f 23/23/23 29/29/29 28/28/28
g RForeArm
f 15/15/15 30/30/30 25/25/25
f 15/15/15 21/21/21 30/30/30
f 26/26/26 31/31/31 24/24/24
f 26/26/26 25/25/25 32/32/32
f 26/26/26 32/32/32 31/31/31
g RArm
f 17/17/17 33/33/33 27/27/27
f 17/17/17 22/22/22 33/33/33
g Spine1
f 29/29/29 34/34/34 28/28/28
g RForeArm
f 21/21/21 35/35/35 30/30/30
f 21/21/21 27/27/27 35/35/35
f 25/25/25 36/36/36 32/32/32
f 25/25/25 30/30/30 36/36/36
f 31/31/31 32/32/32 37/37/37
g RArm
f 22/22/22 38/38/38 33/33/33
f 22/22/22 28/28/28 38/38/38
f 34/34/34 39/39/39 28/28/28
g Spine1
f 34/34/34 40/40/40 39/39/39
g RForeArm
f 27/27/27 41/41/41 35/35/35
f 27/27/27 33/33/33 41/41/41
f 30/30/30 42/42/42 36/36/36
f 30/30/30 35/35/35 42/42/42
f 32/32/32 43/43/43 37/37/37
f 32/32/32 36/36/36 43/43/43
g RArm
f 38/38/38 28/28/28 44/44/44
g RForeArm
f 38/38/38 45/45/45 33/33/33
f 38/38/38 44/44/44 46/46/46
f 38/38/38 46/46/46 45/45/45
g RArm
f 39/39/39 40/40/40 44/44/44
f 39/39/39 44/44/44 28/28/28
g RForeArm
f 33/33/33 45/45/45 41/41/41
f 35/35/35 47/47/47 42/42/42
f 35/35/35 41/41/41 47/47/47
f 36/36/36 48/48/48 43/43/43
f 36/36/36 42/42/42 48/48/48
f 46/46/46 44/44/44 49/49/49
f 46/46/46 50/50/50 45/45/45
f 46/46/46 49/49/49 51/51/51
f 46/46/46 51/51/51 50/50/50
g RArm
f 44/44/44 40/40/40 49/49/49
g RForeArm
f 41/41/41 52/52/52 47/47/47
f 41/41/41 45/45/45 52/52/52
f 45/45/45 50/50/50 52/52/52
f 42/42/42 53/53/53 48/48/48
f 42/42/42 47/47/47 53/53/53
f 51/51/51 49/49/49 3/54/3
f 51/51/51 54/55/54 50/50/50
f 51/51/51 3/54/3 7/56/6
f 51/51/51 7/56/6 54/55/54
g Spine1
f 40/40/40 1/57/1 49/49/49
g RArm
f 49/49/49 1/57/1 3/54/3
g RForeArm
f 52/52/52 55/58/55 47/47/47
f 52/52/52 50/50/50 56/59/56
f 52/52/52 56/59/56 55/58/55
f 55/58/55 53/53/53 47/47/47
f 50/50/50 54/55/54 56/59/56
f 7/56/6 14/60/14 54/55/54
f 56/59/56 54/55/54 57/61/57
f 54/55/54 14/60/14 57/61/57
f 14/60/14 20/62/20 57/61/57
g RHand
f 56/63/56 57/64/57 58/65/58
f 57/64/57 59/66/59 58/65/58
f 57/64/57 20/67/20 59/66/59
f 58/65/58 59/66/59 60/68/60
f 20/67/20 61/69/61 59/66/59
f 20/67/20 24/70/24 61/69/61
f 60/68/60 59/66/59 62/71/62
f 59/66/59 61/69/61 62/71/62
f 24/70/24 63/72/63 61/69/61
f 24/70/24 64/73/64 63/72/63
f 24/70/24 31/74/31 64/73/64
f 61/69/61 63/72/63 62/71/62
f 31/74/31 65/75/65 64/73/64
f 31/74/31 37/76/37 65/75/65
f 63/72/63 66/77/66 62/71/62
f 63/72/63 64/73/64 67/78/67
f 63/72/63 67/78/67 66/77/66
f 37/76/37 68/79/68 65/75/65
f 37/76/37 69/80/69 68/79/68
f 37/76/37 43/81/43 69/80/69
f 64/73/64 70/82/70 67/78/67
f 64/73/64 65/75/65 70/82/70
f 66/77/66 67/78/67 71/83/71
f 66/77/66 71/83/71 72/84/72
f 67/78/67 70/82/70 71/83/71
f 68/79/68 69/80/69 73/85/73
f 68/79/68 74/86/74 65/75/65
f 68/79/68 73/85/73 75/87/75
f 68/79/68 75/87/75 74/86/74
f 65/75/65 74/86/74 70/82/70
f 43/81/43 76/88/76 69/80/69
f 43/81/43 48/89/48 76/88/76
f 72/84/72 71/83/71 77/90/77
f 73/85/73 78/91/78 75/87/75
f 73/85/73 69/80/69 79/92/79
f 73/85/73 80/93/80 78/91/78
f 73/85/73 79/92/79 81/94/81
f 73/85/73 82/95/82 80/93/80
f 73/85/73 81/94/81 82/95/82
f 69/80/69 76/88/76 79/92/79
f 74/86/74 83/96/83 70/82/70
f 74/86/74 75/87/75 84/97/84
f 74/86/74 85/98/85 83/96/83
f 74/86/74 84/97/84 86/99/86
f 74/86/74 86/99/86 85/98/85
f 70/82/70 83/96/83 71/83/71
f 48/89/48 87/100/87 76/88/76
f 48/89/48 88/101/88 87/100/87
f 48/89/48 53/102/53 88/101/88
f 77/90/77 71/83/71 89/103/89
f 77/90/77 89/103/89 90/104/90
f 71/83/71 83/96/83 89/103/89
f 78/91/78 80/93/80 91/105/91
f 78/91/78 92/106/92 75/87/75
f 78/91/78 91/105/91 93/107/93
f 78/91/78 93/107/93 92/106/92
f 92/106/92 84/97/84 75/87/75
f 92/106/92 93/107/93 84/97/84
f 81/94/81 94/108/94 82/95/82
f 81/94/81 79/92/79 95/109/95
f 81/94/81 96/110/96 94/108/94
f 81/94/81 95/109/95 96/110/96
f 82/95/82 94/108/94 80/93/80
f 86/99/86 97/111/97 85/98/85
f 86/99/86 98/112/98 90/104/90
f 86/99/86 84/97/84 99/113/99
f 86/99/86 90/104/90 97/111/97
f 86/99/86 100/114/100 98/112/98
f 86/99/86 99/113/99 100/114/100
f 97/111/97 83/96/83 85/98/85
f 97/111/97 90/104/90 89/103/89
f 97/111/97 89/103/89 83/96/83
f 84/97/84 93/107/93 99/113/99
f 76/88/76 87/100/87 101/115/101
f 76/88/76 101/115/101 79/92/79
f 79/92/79 101/115/101 95/109/95
f 53/102/53 102/116/102 88/101/88
f 53/102/53 55/117/55 102/116/102
f 91/105/91 80/93/80 103/118/103
f 91/105/91 104/119/104 93/107/93
f 91/105/91 103/118/103 104/119/104
f 104/119/104 100/114/100 99/113/99
f 104/119/104 99/113/99 93/107/93
f 96/110/96 105/120/105 94/108/94
f 96/110/96 95/109/95 106/121/106
f 96/110/96 106/121/106 105/120/105
f 94/108/94 105/120/105 80/93/80
f 87/100/87 107/122/107 101/115/101
f 87/100/87 88/101/88 108/123/108
f 87/100/87 108/123/108 107/122/107
f 88/101/88 102/116/102 108/123/108
f 101/115/101 107/122/107 95/109/95
f 55/117/55 58/124/58 102/116/102
f 55/117/55 56/125/56 58/124/58
f 103/118/103 80/93/80 109/126/109
f 109/126/109 80/93/80 105/120/105
f 106/121/106 95/109/95 110/127/110
f 110/127/110 95/109/95 107/122/107
f 108/123/108 102/116/102 60/128/60
f 60/128/60 102/116/102 58/124/58
f 90/129/90 98/130/98 77/131/77
f 98/130/98 72/132/72 77/131/77
f 98/130/98 66/133/66 72/132/72
f 98/130/98 111/134/111 66/133/66
f 98/130/98 112/135/112 111/134/111
f 98/130/98 100/136/100 112/135/112
f 66/133/66 111/134/111 62/137/62
f 100/136/100 104/138/104 112/135/112
f 111/134/111 60/139/60 62/137/62
f 111/134/111 112/135/112 109/140/109
f 111/134/111 108/141/108 60/139/60
f 111/134/111 109/140/109 107/142/107
f 111/134/111 107/142/107 108/141/108
f 104/138/104 103/143/103 112/135/112
f 112/135/112 103/143/103 109/140/109
f 107/142/107 109/140/109 110/144/110
f 109/140/109 106/145/106 110/144/110
f 109/140/109 105/146/105 106/145/106
