# Blender 4.5.2 LTS
# www.blender.org
mtllib derTrasBul.mtl
g Bulbasaur.004_Mesh
v -2.575392 -1.914822 -0.265377
v -2.642869 -1.499614 0.919592
v -2.379073 -0.833604 1.994932
v -1.444793 0.136544 2.622257
v -0.280745 0.897461 2.416918
v 0.785497 1.374147 1.437690
v 1.587167 1.363155 0.070800
v 1.731062 0.796585 -1.274423
v 1.200165 -0.020754 -2.014419
v 0.280745 -0.897461 -2.416918
v -1.088499 -1.722184 -2.258644
v -2.050335 -1.962269 -1.536241
v -1.892320 -3.525639 -0.230737
v -2.012109 -3.357254 -0.221468
v -1.795950 -3.525639 -0.968782
v -1.903542 -3.394902 -1.082256
v -2.117720 -3.146899 -0.236248
v -1.324373 -3.525639 -1.440789
v -1.969348 -3.204429 -1.157992
v -2.247294 -2.854087 -0.242303
v -1.361796 -3.357507 -1.691759
v -0.576715 -3.525639 -1.718162
v -2.029644 -2.895714 -1.236426
v -2.382529 -2.516180 -0.238716
v -0.574189 -3.250524 -1.939515
v 0.227250 -3.210567 -1.727288
v 0.186900 -3.525639 -1.459903
v -1.368024 -3.142158 -1.821621
v -2.067382 -2.572578 -1.315950
v -2.486624 -2.199805 -0.240581
v 0.786014 -3.203605 -1.088455
v -0.550656 -2.946095 -2.086108
v 0.340955 -2.723441 -1.900198
v -1.363748 -2.794020 -1.913600
v -2.080096 -2.256178 -1.395646
v 0.611755 -3.525639 -0.967146
v -0.460887 -2.569238 -2.234193
v 1.051305 -2.561044 -1.213180
v 0.466167 -2.217504 -2.048283
v -1.310512 -2.407572 -2.026185
v 0.807452 -3.525639 -0.258173
v 1.309679 -1.811380 -1.323067
v -0.316274 -2.043816 -2.350308
v 0.665766 -1.515026 -2.129443
v -1.219164 -2.055617 -2.129299
v 0.992042 -3.203559 -0.214351
v 1.488730 -0.950795 -1.371396
v 1.272629 -2.459468 -0.144871
v 1.520098 -1.579538 -0.064285
v -0.167988 -1.549194 -2.415167
v 0.626794 -3.525639 0.437569
v 1.666002 -0.587696 0.004477
v 0.885340 -0.838864 -2.109985
v 1.622753 -0.117095 -1.358969
v 0.741961 -3.204397 0.569526
v 0.990751 -2.419167 0.845034
v 1.673952 0.357266 0.053925
v 1.167247 -1.512170 1.072413
v 1.166587 -0.562183 1.253272
v 0.128240 -3.525639 0.934716
v 0.167529 -3.204492 1.157447
v 1.038447 0.387744 1.411918
v 0.220334 -1.733385 1.839270
v 0.148759 -0.856574 2.084100
v -0.549308 -3.525639 1.114169
v 0.210089 -2.546882 1.524532
v -0.633682 -3.229767 1.383191
v -1.037099 -1.351234 2.242143
v -0.029488 0.009323 2.288606
v -1.233915 -0.620298 2.463467
v -1.213395 -3.525639 0.918674
v -0.870389 -2.061383 1.970424
v -0.739609 -2.722061 1.647277
v -2.127678 -1.382438 1.870983
v -1.364609 -3.281647 1.156242
v -1.852975 -3.340314 0.557989
v -1.689679 -3.525639 0.421986
v -1.711576 -2.441417 1.554407
v -1.539499 -2.893499 1.360978
v -1.916743 -1.918205 1.749415
v -2.007201 -3.045938 0.654187
v -2.362345 -2.307468 0.872211
v -2.526561 -1.909624 0.945852
v -2.194747 -2.688808 0.763357
v 0.525487 -3.491061 -1.004913
v 0.152318 -3.497998 -1.412808
v 0.486916 -3.494664 -1.656316
v 0.194161 -3.495741 -1.578514
v -0.138658 -3.491740 -1.590883
v 0.264846 -3.490827 -1.871987
v 0.420479 -3.489800 -1.927002
v -0.027881 -3.492988 -1.774182
v 0.327036 -3.489800 -2.126143
v 0.151802 -3.488838 -1.987729
v -1.016465 -3.493092 -1.431979
v -0.830985 -3.496836 -2.047221
v -0.566182 -3.504102 -1.570938
v -0.567330 -3.499590 -1.912739
v -0.571693 -3.494675 -2.214563
v -0.709906 -3.492686 -2.298651
v -0.303044 -3.498512 -2.060767
v -0.104019 -3.494910 -1.439326
v -0.574505 -3.493648 -2.476209
v -0.434570 -3.493648 -2.306485
v -1.655040 -3.493092 -1.043111
v -1.607916 -3.496836 -1.683982
v -1.245796 -3.504102 -1.276776
v -1.321331 -3.499590 -1.610111
v -1.391299 -3.494675 -1.903756
v -1.544492 -3.492686 -1.955730
v -0.875927 -3.496110 -1.436628
v -1.450992 -3.493648 -2.158515
v -1.095616 -3.498512 -1.812122
v -1.277451 -3.493648 -2.023315
v 0.305253 -3.322191 -2.026817
v 0.374590 -3.366465 -1.912194
v 0.188593 -3.368246 -1.954725
v 0.408712 -3.219938 -1.705334
v 0.250669 -3.102899 -1.774698
v 0.071015 -3.224102 -1.783394
v -0.294291 -2.880504 -1.010883
v 0.386586 -2.887291 -0.840011
v -0.570975 -3.326040 -2.374616
v -0.475380 -3.370313 -2.280771
v -0.666083 -3.372094 -2.275835
v -0.390977 -3.223786 -2.088834
v -0.561304 -3.106747 -2.116816
v -0.737456 -3.227950 -2.080684
v -0.899661 -2.884352 -1.241678
v -0.197662 -2.891140 -1.245092
v -0.568335 -2.638496 -1.254420
v -1.425421 -3.326040 -2.060107
v -1.311688 -3.370313 -1.989336
v -1.496738 -3.372094 -1.942988
v -1.187509 -3.223786 -1.820358
v -1.359845 -3.106747 -1.810629
v -1.523944 -3.227950 -1.736988
v -1.499607 -2.884352 -0.882800
v 0.264587 -3.525639 0.226519
v -0.085480 -3.525639 0.575581
v 0.391436 -3.525639 -0.262019
v -0.561218 -3.525639 0.701569
v -0.570631 -3.525639 -0.251831
v -0.565953 -3.525639 0.220894
v 0.254026 -3.525639 -0.759827
v -1.029953 -3.525639 0.564303
v -0.091420 -3.525639 -1.123209
v -1.375256 -3.525639 0.215556
v -0.575452 -3.525639 -0.739708
v -1.499435 -3.525639 -0.242762
v -1.354306 -3.525639 -0.723092
v -0.580446 -3.525639 -1.243715
v -1.038563 -3.525639 -1.093133
vn -0.5027 -0.8634 0.0435
vn -0.8501 -0.5231 0.0606
vn -0.4053 -0.9015 -0.1517
vn -0.7333 -0.5906 -0.3368
vn -0.9043 -0.4258 0.0285
vn -0.2079 -0.9354 -0.2859
vn -0.8343 -0.3628 -0.4152
vn -0.9223 -0.3860 -0.0176
vn -0.4041 -0.6281 -0.6650
vn 0.0208 -0.8754 -0.4830
vn -0.8464 -0.2520 -0.4691
vn -0.9391 -0.3368 -0.0688
vn 0.0283 -0.5276 -0.8490
vn 0.4637 -0.4987 -0.7323
vn 0.3031 -0.8646 -0.4007
vn -0.4581 -0.3521 -0.8162
vn -0.8309 -0.1958 -0.5208
vn -0.9454 -0.3064 -0.1111
vn 0.7793 -0.4718 -0.4124
vn 0.0091 -0.3851 -0.9228
vn 0.5040 -0.3788 -0.7762
vn -0.4876 -0.2081 -0.8479
vn -0.8138 -0.1740 -0.5545
vn -0.9500 -0.2871 -0.1225
vn 0.4650 -0.8516 -0.2422
vn 0.0118 -0.2908 -0.9567
vn 0.8310 -0.3738 -0.4119
vn 0.5102 -0.2973 -0.8070
vn -0.4718 -0.1569 -0.8676
vn -0.7267 -0.2160 -0.6521
vn 0.5551 -0.8318 -0.0071
vn 0.8712 -0.2714 -0.4090
vn 0.0299 -0.1783 -0.9835
vn 0.5318 -0.1882 -0.8257
vn -0.4206 -0.1603 -0.8930
vn -0.2430 -0.2234 -0.9439
vn 0.9040 -0.4260 0.0377
vn 0.9031 -0.1720 -0.3935
vn 0.9433 -0.3252 0.0671
vn 0.9720 -0.2144 0.0961
vn 0.0516 -0.0702 -0.9962
vn 0.3832 -0.2166 -0.8979
vn 0.4987 -0.8193 0.2827
vn 0.9858 -0.0837 0.1458
vn 0.6047 -0.1596 -0.7803
vn 0.9383 -0.1159 -0.3257
vn 0.7732 -0.4345 0.4619
vn 0.7994 -0.3422 0.4939
vn 0.9760 0.0221 0.2168
vn 0.8165 -0.2005 0.5414
vn 0.8074 -0.0544 0.5875
vn 0.7719 -0.1658 -0.6137
vn 0.2866 -0.8448 0.4518
vn 0.4450 -0.5062 0.7388
vn 0.7770 0.0759 0.6249
vn 0.9912 -0.0495 -0.1226
vn 0.9480 0.1080 0.2993
vn 0.4487 -0.2708 0.8517
vn 0.4552 -0.1593 0.8760
vn 0.0220 -0.8836 0.4677
vn 0.4444 -0.3870 0.8079
vn 0.0109 -0.5753 0.8179
vn 0.7493 0.1755 0.6385
vn -0.0267 -0.3186 0.9475
vn 0.4432 -0.0635 0.8942
vn -0.0436 -0.2554 0.9659
vn -0.1989 -0.9150 0.3510
vn -0.0118 -0.3951 0.9186
vn -0.0095 -0.4501 0.8929
vn 0.4582 0.0175 0.8887
vn -0.5540 -0.3904 0.7353
vn 0.0290 -0.1826 0.9828
vn -0.4795 -0.3836 0.7893
vn -0.3851 -0.6513 0.6538
vn -0.6894 -0.6308 0.3562
vn -0.3645 -0.9126 0.1851
vn -0.4666 -0.4785 0.7438
vn -0.4469 -0.5226 0.7261
vn -0.5034 -0.4205 0.7548
vn -0.9068 -0.2786 0.3164
vn -0.7751 -0.5192 0.3600
vn -0.8361 -0.4346 0.3347
vn -0.8876 -0.3380 0.3128
vn -0.8070 -0.4810 0.3426
vn 0.9893 -0.1303 -0.0654
vn 0.0015 -1.0000 -0.0069
vn 0.7982 -0.5871 -0.1348
vn -0.0036 -0.9999 -0.0138
vn -0.7864 -0.3839 -0.4840
vn -0.0004 -0.9999 -0.0134
vn 0.7953 -0.5372 -0.2810
vn -0.6561 -0.5798 -0.4831
vn 0.2108 -0.3662 -0.9064
vn -0.5933 -0.5275 -0.6081
vn -0.9212 -0.2677 -0.2823
vn -0.7554 -0.5784 -0.3079
vn -0.0028 -1.0000 -0.0043
vn -0.0035 -0.9999 -0.0142
vn -0.0037 -0.9999 -0.0129
vn -0.7256 -0.5275 -0.4419
vn 0.7397 -0.5867 -0.3296
vn 0.9106 -0.2869 -0.2975
vn -0.0207 -0.3662 -0.9303
vn 0.7007 -0.5372 -0.4695
vn -0.0246 -0.9997 0.0040
vn -0.4252 -0.8962 -0.1266
vn -0.0052 -1.0000 -0.0073
vn -0.0011 -0.9999 -0.0113
vn -0.0064 -0.9999 -0.0117
vn -0.8044 -0.5275 -0.2733
vn 0.3230 -0.9269 -0.1912
vn -0.2227 -0.3662 -0.9035
vn 0.6510 -0.5881 -0.4800
vn 0.5817 -0.5372 -0.6108
vn 0.1796 0.6393 -0.7477
vn 0.8524 0.4033 -0.3327
vn -0.6105 0.4200 -0.6715
vn 0.8331 0.4726 -0.2875
vn 0.1449 0.7893 -0.5967
vn -0.6084 0.4826 -0.6300
vn -0.7202 0.4401 -0.5363
vn 0.9346 0.3393 -0.1065
vn -0.0116 0.6392 -0.7689
vn 0.7433 0.4034 -0.5337
vn -0.7580 0.4199 -0.4990
vn 0.7357 0.4726 -0.4852
vn -0.0056 0.8043 -0.5942
vn -0.7465 0.4824 -0.4583
vn -0.7220 0.5817 -0.3746
vn 0.7109 0.5870 -0.3874
vn -0.0213 0.8785 -0.4772
vn -0.1787 0.6393 -0.7479
vn 0.6092 0.4034 -0.6827
vn -0.8485 0.4200 -0.3220
vn 0.6027 0.3924 -0.6948
vn -0.3612 0.7397 -0.5678
vn -0.7500 0.5530 -0.3629
vn -0.6474 0.7133 -0.2685
vn -0.0000 -1.0000 -0.0000
vt 0.171826 0.512187
vt 0.175968 0.518970
vt 0.162968 0.531270
vt 0.166706 0.540152
vt 0.179925 0.525827
vt 0.155362 0.545199
vt 0.169650 0.547968
vt 0.184291 0.532457
vt 0.157107 0.557783
vt 0.143457 0.563047
vt 0.172916 0.556344
vt 0.189256 0.540004
vt 0.145893 0.573610
vt 0.134876 0.585731
vt 0.131401 0.573995
vt 0.159448 0.567390
vt 0.176109 0.565409
vt 0.193706 0.547218
vt 0.121179 0.589972
vt 0.149349 0.585878
vt 0.137276 0.602324
vt 0.162134 0.577747
vt 0.178883 0.574527
vt 0.199777 0.555728
vt 0.119990 0.577680
vt 0.151047 0.598755
vt 0.122685 0.613084
vt 0.139480 0.619220
vt 0.164501 0.590145
vt 0.184406 0.586837
vt 0.106690 0.578763
vt 0.124403 0.638504
vt 0.152852 0.616111
vt 0.141056 0.642420
vt 0.166007 0.602126
vt 0.168709 0.618417
vt 0.106076 0.590957
vt 0.125855 0.666215
vt 0.105625 0.617396
vt 0.105195 0.646704
vt 0.154059 0.632549
vt 0.153754 0.657688
vt 0.093446 0.577481
vt 0.104652 0.678153
vt 0.141146 0.665270
vt 0.126253 0.693201
vt 0.092003 0.589163
vt 0.089448 0.617538
vt 0.103686 0.708023
vt 0.087372 0.647282
vt 0.084060 0.676483
vt 0.139055 0.693717
vt 0.080366 0.573703
vt 0.077890 0.585693
vt 0.079867 0.705809
vt 0.125137 0.723232
vt 0.102396 0.740753
vt 0.068932 0.635948
vt 0.064281 0.662794
vt 0.067626 0.566878
vt 0.073480 0.609149
vt 0.064104 0.578366
vt 0.075869 0.737876
vt 0.047511 0.639190
vt 0.058458 0.689230
vt 0.041155 0.661084
vt 0.055741 0.556141
vt 0.053562 0.617513
vt 0.059401 0.595449
vt 0.052150 0.717166
vt 0.030634 0.623645
vt 0.034623 0.684195
vt 0.023775 0.638338
vt 0.052531 0.566683
vt 0.043344 0.548680
vt 0.047717 0.536640
vt 0.042939 0.593403
vt 0.047942 0.579287
vt 0.037011 0.609307
vt 0.017410 0.597581
vt 0.036511 0.526338
vt 0.039001 0.557900
vt 0.031289 0.532861
vt 0.029532 0.578741
vt 0.024466 0.588900
vt 0.041553 0.519534
vt 0.026786 0.538534
vt 0.034265 0.567951
vt 0.010459 0.559829
vt 0.021732 0.545510
vt 0.017167 0.551823
vt 0.267377 0.627398
vt 0.273438 0.637028
vt 0.270103 0.646313
vt 0.273438 0.642340
vt 0.277873 0.639837
vt 0.273438 0.650494
vt 0.271721 0.652870
vt 0.276983 0.646085
vt 0.273438 0.657564
vt 0.275399 0.652759
vt 0.232688 0.598721
vt 0.230159 0.613633
vt 0.226563 0.601845
vt 0.226563 0.609940
vt 0.226562 0.618108
vt 0.228550 0.620470
vt 0.223140 0.614004
vt 0.220397 0.598814
vt 0.226563 0.625252
vt 0.224889 0.620458
vt 0.256024 0.618549
vt 0.253575 0.634354
vt 0.250000 0.621997
vt 0.250000 0.630713
vt 0.250000 0.638873
vt 0.251972 0.641243
vt 0.244772 0.623996
vt 0.250000 0.645959
vt 0.246551 0.634711
vt 0.248309 0.641206
vt 0.257736 0.936738
vt 0.257736 0.931093
vt 0.261017 0.933328
vt 0.254313 0.933255
vt 0.259745 0.929989
vt 0.264473 0.926901
vt 0.255619 0.929970
vt 0.250827 0.926504
vt 0.260668 0.922677
vt 0.257736 0.921593
vt 0.254699 0.922586
vt 0.248925 0.921157
vt 0.270425 0.911008
vt 0.251636 0.895496
vt 0.264319 0.895815
vt 0.222580 0.984491
vt 0.222580 0.978869
vt 0.225846 0.981097
vt 0.219173 0.981025
vt 0.224580 0.977773
vt 0.229288 0.974703
vt 0.220473 0.977754
vt 0.215701 0.974308
vt 0.225499 0.970496
vt 0.222580 0.969418
vt 0.219556 0.970406
vt 0.210016 0.958333
vt 0.235216 0.958876
vt 0.216505 0.943427
vt 0.229137 0.943745
vt 0.222580 0.940125
vt 0.189377 0.933982
vt 0.189377 0.928360
vt 0.192646 0.930588
vt 0.185966 0.930516
vt 0.191379 0.927260
vt 0.196093 0.924185
vt 0.187267 0.927241
vt 0.182489 0.923789
vt 0.192300 0.919972
vt 0.189377 0.918892
vt 0.186349 0.919881
vt 0.200051 0.913620
vt 0.183294 0.892868
vt 0.456667 0.696189
vt 0.463444 0.682687
vt 0.461601 0.701915
vt 0.454247 0.714972
vt 0.466349 0.692460
vt 0.472656 0.677756
vt 0.459920 0.715108
vt 0.456861 0.734197
vt 0.472656 0.689030
vt 0.481772 0.683055
vt 0.472656 0.715198
vt 0.472656 0.702202
vt 0.461712 0.728661
vt 0.462537 0.747539
vt 0.479245 0.692765
vt 0.488287 0.696638
vt 0.466340 0.738595
vt 0.472656 0.754998
vt 0.483979 0.702289
vt 0.472656 0.728399
vt 0.485707 0.714796
vt 0.483628 0.728038
vt 0.472656 0.742084
vt 0.483111 0.747848
vt 0.491065 0.714489
vt 0.479241 0.738156
vt 0.489663 0.734899
s 1
g RFoot
g Bulbasaur.004_Material__10
usemtl Material__10
f 13/1/1 14/2/2 15/3/3
g RToe
f 14/2/2 16/4/4 15/3/3
g RFoot
f 14/2/2 17/5/5 16/4/4
g RToe
f 15/3/3 16/4/4 18/6/6
f 17/5/5 19/7/7 16/4/4
g RLeg
f 17/5/5 20/8/8 19/7/7
g RToe
f 18/6/6 16/4/4 21/9/9
f 18/6/6 21/9/9 22/10/10
f 16/4/4 19/7/7 21/9/9
g RLeg
f 20/8/8 23/11/11 19/7/7
g RThigh
f 20/8/8 24/12/12 23/11/11
g RToe
f 22/10/10 21/9/9 25/13/13
f 22/10/10 25/13/13 26/14/14
f 22/10/10 26/14/14 27/15/15
f 19/7/7 23/11/11 28/16/16
f 19/7/7 28/16/16 21/9/9
f 21/9/9 28/16/16 25/13/13
g RThigh
f 24/12/12 29/17/17 23/11/11
f 24/12/12 30/18/18 29/17/17
g RToe
f 26/14/14 31/19/19 27/15/15
f 26/14/14 25/13/13 32/20/20
f 26/14/14 33/21/21 31/19/19
f 26/14/14 32/20/20 33/21/21
f 25/13/13 28/16/16 32/20/20
g RThigh
f 23/11/11 29/17/17 34/22/22
g RToe
f 23/11/11 34/22/22 28/16/16
f 28/16/16 34/22/22 32/20/20
g RThigh
f 30/18/18 35/23/23 29/17/17
f 30/18/18 1/24/24 35/23/23
g RToe
f 27/15/15 31/19/19 36/25/25
f 33/21/21 32/20/20 37/26/26
f 33/21/21 38/27/27 31/19/19
g RLeg
f 33/21/21 37/26/26 39/28/28
f 33/21/21 39/28/28 38/27/27
g RToe
f 32/20/20 34/22/22 37/26/26
g RThigh
f 29/17/17 35/23/23 40/29/29
f 29/17/17 40/29/29 34/22/22
f 34/22/22 40/29/29 37/26/26
g Hips
f 1/24/24 12/30/30 35/23/23
g RToe
f 36/25/25 31/19/19 41/31/31
g RLeg
f 39/28/28 42/32/32 38/27/27
g RThigh
f 39/28/28 37/26/26 43/33/33
g RLeg
f 39/28/28 44/34/34 42/32/32
g RThigh
f 39/28/28 43/33/33 44/34/34
f 37/26/26 40/29/29 43/33/33
f 12/30/30 45/35/35 35/23/23
g Hips
f 12/30/30 11/36/36 45/35/35
g RThigh
f 40/29/29 45/35/35 43/33/33
f 40/29/29 35/23/23 45/35/35
g RFoot
f 31/19/19 46/37/37 41/31/31
f 31/19/19 38/27/27 46/37/37
g RThigh
f 42/32/32 44/34/34 47/38/38
g RFoot
f 42/32/32 48/39/39 38/27/27
g RLeg
f 42/32/32 47/38/38 49/40/40
f 42/32/32 49/40/40 48/39/39
g RFoot
f 38/27/27 48/39/39 46/37/37
g RThigh
f 11/36/36 50/41/41 45/35/35
g Hips
f 11/36/36 10/42/42 50/41/41
g RThigh
f 43/33/33 50/41/41 44/34/34
f 43/33/33 45/35/35 50/41/41
g RFoot
f 41/31/31 46/37/37 51/43/43
g RThigh
f 47/38/38 52/44/44 49/40/40
f 47/38/38 44/34/34 53/45/45
f 47/38/38 54/46/46 52/44/44
f 47/38/38 53/45/45 54/46/46
f 50/41/41 10/42/42 53/45/45
f 50/41/41 53/45/45 44/34/34
g RFoot
f 48/39/39 55/47/47 46/37/37
f 48/39/39 49/40/40 56/48/48
f 48/39/39 56/48/48 55/47/47
f 46/37/37 55/47/47 51/43/43
g RThigh
f 52/44/44 54/46/46 57/49/49
g RLeg
f 52/44/44 58/50/50 49/40/40
g RThigh
f 52/44/44 57/49/49 59/51/51
f 52/44/44 59/51/51 58/50/50
g RLeg
f 49/40/40 58/50/50 56/48/48
g Hips
f 10/42/42 9/52/52 53/45/45
g RThigh
f 53/45/45 9/52/52 54/46/46
g RFoot
f 55/47/47 60/53/53 51/43/43
f 55/47/47 56/48/48 61/54/54
f 55/47/47 61/54/54 60/53/53
g RThigh
f 57/49/49 62/55/55 59/51/51
f 57/49/49 54/46/46 8/56/56
f 57/49/49 7/57/57 62/55/55
g Hips
f 57/49/49 8/56/56 7/57/57
f 8/56/56 54/46/46 9/52/52
g RLeg
f 58/50/50 63/58/58 56/48/48
g RThigh
f 58/50/50 59/51/51 64/59/59
g RLeg
f 58/50/50 64/59/59 63/58/58
g RThigh
f 59/51/51 62/55/55 64/59/59
g RFoot
f 61/54/54 65/60/60 60/53/53
f 61/54/54 56/48/48 66/61/61
f 61/54/54 67/62/62 65/60/60
f 61/54/54 66/61/61 67/62/62
f 56/48/48 63/58/58 66/61/61
g Hips
f 7/57/57 6/63/63 62/55/55
g RThigh
f 64/59/59 68/64/64 63/58/58
f 64/59/59 62/55/55 69/65/65
f 64/59/59 70/66/66 68/64/64
f 64/59/59 69/65/65 70/66/66
g RFoot
f 65/60/60 67/62/62 71/67/67
g RLeg
f 66/61/61 63/58/58 72/68/68
g RFoot
f 66/61/61 73/69/69 67/62/62
f 66/61/61 72/68/68 73/69/69
g RLeg
f 63/58/58 68/64/64 72/68/68
g Hips
f 6/63/63 5/70/70 62/55/55
g RThigh
f 62/55/55 5/70/70 69/65/65
f 70/66/66 74/71/71 68/64/64
f 70/66/66 69/65/65 4/72/72
f 70/66/66 3/73/73 74/71/71
g Hips
f 70/66/66 4/72/72 3/73/73
f 4/72/72 69/65/65 5/70/70
g RFoot
f 71/67/67 67/62/62 75/74/74
f 71/67/67 75/74/74 76/75/75
f 71/67/67 76/75/75 77/76/76
g RLeg
f 73/69/69 72/68/68 78/77/77
g RFoot
f 73/69/69 79/78/78 67/62/62
f 73/69/69 78/77/77 79/78/78
f 67/62/62 79/78/78 75/74/74
g RThigh
f 68/64/64 74/71/71 80/79/79
f 68/64/64 80/79/79 72/68/68
g RLeg
f 72/68/68 80/79/79 78/77/77
g Hips
f 3/73/73 2/80/80 74/71/71
g RFoot
f 76/75/75 14/81/2 77/76/76
f 76/75/75 75/74/74 81/82/81
f 76/75/75 17/83/5 14/81/2
f 76/75/75 81/82/81 17/83/5
f 75/74/74 79/78/78 81/82/81
g RThigh
f 80/79/79 82/84/82 78/77/77
f 80/79/79 74/71/71 83/85/83
f 80/79/79 83/85/83 82/84/82
f 74/71/71 2/80/80 83/85/83
g RFoot
f 77/76/76 14/81/2 13/86/1
f 17/83/5 81/82/81 20/87/8
g RLeg
f 79/78/78 78/77/77 84/88/84
g RFoot
f 79/78/78 84/88/84 81/82/81
g RLeg
f 81/82/81 84/88/84 20/87/8
f 78/77/77 82/84/82 84/88/84
g Hips
f 2/80/80 1/89/24 83/85/83
g RLeg
f 20/87/8 84/88/84 24/90/12
g RThigh
f 84/88/84 82/84/82 24/90/12
f 1/89/24 30/91/18 83/85/83
f 30/91/18 24/90/12 82/84/82
f 30/91/18 82/84/82 83/85/83
s 2
g RToe
f 85/92/85 86/93/86 87/94/87
f 86/93/86 88/95/88 87/94/87
f 86/93/86 89/96/89 88/95/88
f 87/94/87 88/95/88 90/97/90
f 87/94/87 90/97/90 91/98/91
f 89/96/89 92/99/92 88/95/88
f 88/95/88 92/99/92 90/97/90
f 91/98/91 90/97/90 93/100/93
f 92/99/92 94/101/94 90/97/90
f 90/97/90 94/101/94 93/100/93
s 3
f 95/102/95 96/103/96 97/104/97
f 96/103/96 98/105/98 97/104/97
f 96/103/96 99/106/99 98/105/98
f 96/103/96 100/107/100 99/106/99
f 97/104/97 98/105/98 101/108/101
f 97/104/97 101/108/101 102/109/102
f 98/105/98 99/106/99 101/108/101
f 100/107/100 103/110/103 99/106/99
f 101/108/101 99/106/99 104/111/104
f 104/111/104 99/106/99 103/110/103
s 4
f 105/112/105 106/113/106 107/114/107
f 106/113/106 108/115/108 107/114/107
f 106/113/106 109/116/109 108/115/108
f 106/113/106 110/117/110 109/116/109
f 107/114/107 108/115/108 111/118/111
f 110/117/110 112/119/112 109/116/109
f 108/115/108 113/120/113 111/118/111
f 108/115/108 109/116/109 113/120/113
f 112/119/112 114/121/114 109/116/109
f 109/116/109 114/121/114 113/120/113
s 2
f 93/122/93 115/123/115 91/124/91
f 93/122/93 94/125/94 115/123/115
f 91/124/91 115/123/115 116/126/116
f 91/124/91 116/126/116 87/127/87
f 94/125/94 117/128/117 115/123/115
f 94/125/94 92/129/92 117/128/117
f 116/126/116 118/130/118 87/127/87
f 116/126/116 115/123/115 119/131/119
f 116/126/116 119/131/119 118/130/118
f 115/123/115 117/128/117 119/131/119
f 92/129/92 120/132/120 117/128/117
f 92/129/92 89/133/89 120/132/120
f 117/128/117 120/132/120 119/131/119
f 87/127/87 118/130/118 85/134/85
f 89/133/89 121/135/121 120/132/120
f 120/132/120 121/135/121 119/131/119
f 118/130/118 122/136/122 85/134/85
f 118/130/118 119/131/119 122/136/122
s 3
f 103/137/103 123/138/123 104/139/104
f 103/137/103 100/140/100 123/138/123
f 104/139/104 123/138/123 124/141/124
f 104/139/104 124/141/124 101/142/101
f 100/140/100 125/143/125 123/138/123
f 100/140/100 96/144/96 125/143/125
f 124/141/124 126/145/126 101/142/101
f 124/141/124 123/138/123 127/146/127
f 124/141/124 127/146/127 126/145/126
f 123/138/123 125/143/125 127/146/127
f 96/144/96 128/147/128 125/143/125
f 96/144/96 95/148/95 128/147/128
f 125/143/125 128/147/128 127/146/127
f 101/142/101 126/145/126 102/149/102
f 95/148/95 129/150/129 128/147/128
f 128/147/128 129/150/129 127/146/127
f 126/145/126 130/151/130 102/149/102
f 126/145/126 127/146/127 130/151/130
f 129/150/129 131/152/131 127/146/127
f 127/146/127 131/152/131 130/151/130
s 4
f 112/153/112 132/154/132 114/155/114
f 112/153/112 110/156/110 132/154/132
f 114/155/114 132/154/132 133/157/133
f 114/155/114 133/157/133 113/158/113
f 110/156/110 134/159/134 132/154/132
f 110/156/110 106/160/106 134/159/134
f 133/157/133 135/161/135 113/158/113
f 133/157/133 132/154/132 136/162/136
f 133/157/133 136/162/136 135/161/135
f 132/154/132 134/159/134 136/162/136
f 106/160/106 137/163/137 134/159/134
f 134/159/134 137/163/137 136/162/136
f 113/158/113 135/161/135 111/164/111
f 137/163/137 138/165/138 136/162/136
s 1
g RFoot
f 51/166/43 60/167/53 139/168/139
f 51/166/43 139/168/139 41/169/31
f 60/167/53 140/170/139 139/168/139
f 60/167/53 65/171/60 140/170/139
f 41/169/31 139/168/139 141/172/139
f 41/169/31 141/172/139 36/173/25
f 65/171/60 142/174/139 140/170/139
f 65/171/60 71/175/67 142/174/139
s 0
f 139/168/139 143/176/139 141/172/139
f 139/168/139 140/170/139 144/177/139
f 139/168/139 144/177/139 143/176/139
f 140/170/139 142/174/139 144/177/139
s 1
g RToe
f 36/173/25 141/172/139 145/178/139
f 36/173/25 145/178/139 27/179/15
s 0
g RFoot
f 141/172/139 143/176/139 145/178/139
s 1
f 71/175/67 146/180/139 142/174/139
f 71/175/67 77/181/76 146/180/139
s 0
f 142/174/139 146/180/139 144/177/139
s 1
g RToe
f 27/179/15 145/178/139 147/182/139
f 27/179/15 147/182/139 22/183/10
s 0
g RFoot
f 143/176/139 144/177/139 148/184/139
f 143/176/139 149/185/139 145/178/139
f 143/176/139 148/184/139 150/186/139
f 143/176/139 151/187/139 149/185/139
f 143/176/139 150/186/139 151/187/139
s 1
f 146/180/139 77/181/76 148/184/139
s 0
f 146/180/139 148/184/139 144/177/139
g RToe
f 145/178/139 149/185/139 147/182/139
s 1
f 22/183/10 147/182/139 152/188/139
f 22/183/10 152/188/139 18/189/6
s 0
f 147/182/139 149/185/139 152/188/139
s 1
g RFoot
f 150/186/139 13/190/1 151/187/139
f 150/186/139 148/184/139 13/190/1
f 148/184/139 77/181/76 13/190/1
g RToe
f 18/189/6 152/188/139 153/191/139
f 18/189/6 153/191/139 151/187/139
f 18/189/6 151/187/139 15/192/3
s 0
f 151/187/139 153/191/139 149/185/139
s 1
f 151/187/139 13/190/1 15/192/3
s 0
f 149/185/139 153/191/139 152/188/139
