# Blender 4.5.2 LTS
# www.blender.org
mtllib izqDelanBul.mtl
g Bulbasaur.001_Mesh
v -1.963349 1.737333 0.510756
v -1.830388 1.327803 1.531276
v -1.131116 0.383903 2.058907
v -0.094691 -0.574433 2.193005
v 0.955767 -1.319936 1.779428
v 2.135943 -1.796059 0.714029
v -1.654207 1.830288 -0.878978
v -1.089331 1.416137 -1.906018
v 0.094691 0.574433 -2.193005
v 1.272744 -0.326161 -2.078354
v 2.148399 -1.085115 -1.540426
v 2.496657 -1.620191 -0.487585
v 1.863593 -3.778426 -0.898349
v 2.187171 -3.411976 -0.786252
v 1.756604 -3.778644 -0.317976
v 1.938123 -3.529658 -0.118520
v 2.329430 -2.997952 -0.692063
v 1.372185 -3.777121 0.192115
v 2.018480 -3.111553 0.109950
v 2.420749 -2.569598 -0.591876
v 1.352354 -3.541162 0.528349
v 0.612989 -3.778003 0.364938
v 2.058457 -2.667283 0.342840
v 2.465318 -2.175482 -0.515423
v 1.319379 -3.145675 0.838868
v 0.429519 -3.550792 0.661052
v -0.110017 -3.777982 0.199433
v 2.091776 -2.241173 0.515549
v 2.473584 -1.883828 -0.488791
v 1.256271 -2.640004 1.112539
v 0.238127 -3.041855 1.083295
v -0.440540 -3.438184 0.480221
v -0.621226 -3.777121 -0.305377
v 2.097430 -1.959257 0.624891
v 1.172873 -2.118159 1.385645
v 1.089819 -1.661841 1.611655
v 0.085565 -2.460113 1.420390
v 0.006213 -1.826993 1.728603
v -0.046305 -1.113765 2.000506
v -0.697823 -2.885057 0.780754
v -0.911657 -2.193797 1.140234
v -1.014570 -1.393365 1.514350
v -1.037128 -0.388781 1.854696
v -1.050042 -3.336866 -0.073750
v -1.347274 -2.652112 0.224487
v -1.272170 -3.234653 -0.768890
v -0.749510 -3.777121 -0.894820
v -1.630215 -1.824910 0.512765
v -1.622983 -2.443763 -0.579449
v -1.818823 -0.890492 0.822453
v -1.872834 -1.574382 -0.377411
v -1.846948 0.273987 1.190657
v -2.018651 -0.595326 -0.146817
v -2.086754 0.592714 0.168610
v -1.690195 0.678380 -1.099527
v -1.621634 -0.483889 -1.374891
v -1.068868 0.390101 -1.909950
v -1.462213 -1.461013 -1.535231
v -0.854518 -0.636824 -2.087451
v 0.094175 -0.117837 -2.316955
v -1.277652 -2.302315 -1.592628
v -0.666054 -1.546340 -2.197568
v 0.222056 -0.938898 -2.373147
v 1.321991 -0.807036 -2.117843
v -1.019794 -3.100802 -1.618371
v -0.466225 -2.331310 -2.206723
v 0.368879 -1.711665 -2.383163
v 1.372673 -1.380530 -2.128691
v 2.158500 -1.438456 -1.495770
v 2.140392 -1.828999 -1.523436
v 1.402749 -1.959842 -2.118503
v 2.103514 -2.299821 -1.553799
v 0.490992 -2.417087 -2.339569
v 1.422494 -2.568131 -2.077665
v 2.036503 -2.801567 -1.557128
v -0.266913 -3.083821 -2.165225
v 0.591868 -3.092221 -2.254736
v 1.416611 -3.160142 -2.030398
v 1.925066 -3.282221 -1.558477
v 1.702679 -3.777121 -1.505298
v 1.299290 -3.777121 -1.970590
v 0.596545 -3.777121 -2.145480
v -0.109931 -3.777121 -1.979745
v -0.550828 -3.777121 -1.621758
v -0.479311 -3.747593 -1.529692
v -0.439822 -3.749994 -1.962928
v -0.113116 -3.753328 -1.708915
v -0.149678 -3.751072 -1.875856
v 0.183342 -3.747070 -1.877664
v 0.078448 -3.748318 -2.064406
v -0.211007 -3.746158 -2.171452
v -0.094347 -3.744169 -2.283549
v -0.265104 -3.745131 -2.427445
v -0.364832 -3.745131 -2.231375
v 0.203087 -3.747593 -1.908142
v 0.335789 -3.749994 -2.322436
v 0.599473 -3.753328 -2.003536
v 0.600075 -3.751072 -2.174437
v 0.863702 -3.748318 -2.308891
v 0.987364 -3.745822 -1.898757
v 0.604409 -3.746158 -2.476261
v 0.742650 -3.744169 -2.560348
v 0.607250 -3.745131 -2.737907
v 0.467287 -3.745131 -2.568183
v 1.018502 -3.748793 -1.886072
v 1.128332 -3.749994 -2.073791
v 1.354048 -3.751072 -1.871809
v 1.310196 -3.745131 -2.285014
v 1.424015 -3.746158 -2.165454
v 1.483708 -3.745131 -2.420213
v 1.577237 -3.744169 -2.217427
v 1.640661 -3.748318 -1.945651
v 1.672058 -3.745822 -1.518414
v -0.020104 -3.459272 -2.076746
v -0.200159 -3.340956 -2.056112
v -0.365492 -3.142622 -1.143838
v -0.132172 -3.623577 -2.251723
v -0.246479 -3.577522 -2.327487
v -0.319431 -3.621795 -2.215132
v -0.360097 -3.455105 -2.009419
v 0.230379 -3.142622 -1.506790
v 0.423693 -3.455105 -2.350503
v 0.593761 -3.340956 -2.360863
v 0.601080 -2.889979 -1.516089
v 0.932378 -3.135835 -1.503347
v 0.508096 -3.621795 -2.542469
v 0.603691 -3.577522 -2.636285
v 0.698799 -3.623577 -2.537504
v 0.770173 -3.459272 -2.342353
v 0.847889 -3.142622 -1.300648
v 1.220254 -3.455105 -2.082056
v 1.392332 -3.340956 -2.054649
v 1.211731 -2.889979 -1.229044
v 1.532324 -3.135835 -1.144470
v 1.344405 -3.621795 -2.251034
v 1.458138 -3.577522 -2.321805
v 1.529483 -3.623577 -2.204685
v 1.556660 -3.459272 -1.998686
v -0.294778 -3.777130 -0.481071
v 0.078419 -3.777335 -0.165959
v 0.604208 -3.777260 -0.484428
v 0.609316 -3.777325 -0.050848
v 1.127873 -3.777130 -0.169776
v 1.435093 -3.777130 -0.487470
v 0.599243 -3.777196 -0.905668
v 1.519065 -3.777130 -0.906156
v 1.399793 -3.777131 -1.338616
v -0.399443 -3.777130 -0.905094
v -0.295754 -3.777130 -1.345102
v 0.594106 -3.777130 -1.341687
v 1.080606 -3.777130 -1.673243
v 0.591437 -3.777130 -1.799948
v 0.074832 -3.777130 -1.680160
vn 0.4866 -0.8702 -0.0768
vn 0.8814 -0.4668 -0.0725
vn 0.4007 -0.9024 0.1583
vn 0.7416 -0.5532 0.3793
vn 0.9663 -0.2557 -0.0290
vn 0.2617 -0.9054 0.3342
vn 0.8043 -0.3622 0.4710
vn 0.9870 -0.1605 0.0016
vn 0.3886 -0.6407 0.6622
vn 0.0128 -0.9335 0.3584
vn 0.8073 -0.2928 0.5123
vn 0.9967 -0.0785 0.0211
vn 0.4145 -0.4744 0.7766
vn -0.0476 -0.7182 0.6942
vn -0.1843 -0.9253 0.3315
vn 0.8165 -0.2389 0.5257
vn 0.9982 -0.0593 0.0125
vn 0.4213 -0.3826 0.8223
vn -0.0854 -0.5689 0.8180
vn -0.4176 -0.6797 0.6031
vn -0.3690 -0.9120 0.1790
vn 0.7993 -0.3174 0.5102
vn 0.9933 -0.0926 -0.0688
vn 0.7235 -0.4545 0.5195
vn 0.4176 -0.3536 0.8370
vn 0.2826 -0.3749 0.8829
vn -0.1059 -0.4826 0.8694
vn -0.1012 -0.4075 0.9076
vn 0.1219 -0.3875 0.9138
vn -0.1076 -0.3470 0.9317
vn -0.2469 -0.3333 0.9099
vn -0.5064 -0.5431 0.6698
vn -0.5441 -0.4564 0.7040
vn -0.5499 -0.3459 0.7603
vn -0.5513 -0.2763 0.7872
vn -0.6562 -0.2480 0.7127
vn -0.7059 -0.6245 0.3341
vn -0.7973 -0.4618 0.3886
vn -0.8434 -0.5306 -0.0845
vn -0.4603 -0.8863 -0.0508
vn -0.8500 -0.3521 0.3918
vn -0.9420 -0.3258 -0.0802
vn -0.8837 -0.2194 0.4134
vn -0.9761 -0.1996 -0.0859
vn -0.8870 -0.1520 0.4360
vn -0.9942 -0.0784 -0.0737
vn -0.9284 -0.0707 0.3649
vn -0.9990 0.0173 -0.0417
vn -0.9935 0.1126 -0.0185
vn -0.9250 0.1248 -0.3589
vn -0.8942 0.0639 -0.4430
vn -0.6706 0.0404 -0.7407
vn -0.8508 -0.0044 -0.5255
vn -0.5506 0.0455 -0.8335
vn -0.1113 0.1334 -0.9848
vn -0.8165 -0.0952 -0.5695
vn -0.4769 0.0299 -0.8784
vn -0.0339 0.1223 -0.9919
vn 0.3287 0.1214 -0.9366
vn -0.7940 -0.1945 -0.5759
vn -0.4284 -0.0410 -0.9027
vn -0.0029 0.0490 -0.9988
vn 0.4196 0.0819 -0.9040
vn 0.7077 -0.0442 -0.7051
vn -0.7486 -0.3684 -0.5513
vn -0.3857 -0.1211 -0.9146
vn 0.0363 -0.0148 -0.9992
vn 0.4427 0.0366 -0.8959
vn 0.8242 -0.0133 -0.5662
vn 0.8225 -0.0103 -0.5686
vn 0.4471 -0.0150 -0.8944
vn 0.8133 -0.0612 -0.5786
vn 0.0629 -0.0790 -0.9949
vn 0.4529 -0.0638 -0.8893
vn 0.8093 -0.1367 -0.5713
vn -0.3474 -0.2381 -0.9070
vn 0.0671 -0.1466 -0.9869
vn 0.4780 -0.1483 -0.8658
vn 0.7811 -0.3036 -0.5456
vn 0.5224 -0.7878 -0.3264
vn 0.3564 -0.7110 -0.6062
vn 0.0056 -0.7151 -0.6990
vn -0.2544 -0.7627 -0.5945
vn -0.4594 -0.8088 -0.3671
vn -0.9666 -0.2400 -0.0895
vn -0.7888 -0.5930 -0.1617
vn -0.0082 -1.0000 -0.0026
vn 0.0002 -0.9999 -0.0151
vn 0.0008 -0.9999 -0.0134
vn 0.7939 -0.2502 -0.5542
vn 0.6123 -0.5274 -0.5890
vn -0.1819 -0.3662 -0.9126
vn -0.7859 -0.5372 -0.3061
vn -0.9241 -0.2400 -0.2974
vn -0.7348 -0.5930 -0.3292
vn 0.0029 -1.0000 -0.0046
vn 0.0035 -0.9999 -0.0142
vn 0.8152 -0.4748 -0.3317
vn 0.9344 -0.2188 -0.2810
vn 0.0038 -0.9999 -0.0167
vn -0.8243 -0.1262 -0.5519
vn -0.8411 -0.2206 -0.4939
vn -0.6460 -0.5940 -0.4795
vn 0.0057 -1.0000 -0.0065
vn -0.6844 -0.1263 -0.7181
vn 0.0073 -0.9998 -0.0158
vn 0.7987 -0.5863 -0.1353
vn 0.9403 -0.1123 -0.3212
vn 0.9960 -0.0507 -0.0735
vn 0.8397 0.2661 -0.4734
vn 0.5611 0.4292 -0.7077
vn 0.6281 0.4169 -0.6571
vn -0.3472 0.7421 -0.5734
vn -0.1546 0.6376 -0.7547
vn -0.8422 0.3964 -0.3655
vn -0.8091 0.4831 -0.3345
vn -0.9153 0.3770 -0.1418
vn -0.6751 0.6283 -0.3866
vn -0.7137 0.4871 -0.5033
vn 0.0066 0.8108 -0.5853
vn 0.0216 0.8819 -0.4710
vn 0.6903 0.6185 -0.3753
vn -0.7416 0.3990 -0.5393
vn 0.0114 0.6378 -0.7701
vn 0.0161 0.5186 -0.8548
vn 0.7947 0.3744 -0.4778
vn 0.7568 0.4149 -0.5051
vn 0.7261 0.4951 -0.4771
vn -0.5362 0.6636 -0.5216
vn -0.5842 0.4904 -0.6468
vn 0.0948 0.8041 -0.5869
vn -0.4236 0.7528 -0.5039
vn -0.6056 0.4011 -0.6873
vn 0.1773 0.6375 -0.7498
vn 0.2017 0.5186 -0.8309
vn 0.8497 0.4123 -0.3285
vn 0.8156 0.4912 -0.3058
vn 0.9091 0.3974 -0.1246
vn -0.0001 -1.0000 -0.0006
vn 0.0003 -1.0000 -0.0012
vn 0.0002 -1.0000 -0.0009
vn -0.0001 -1.0000 -0.0005
vn -0.0000 -1.0000 -0.0002
vn 0.0002 -1.0000 -0.0011
vn 0.0002 -1.0000 -0.0010
vn 0.0001 -1.0000 -0.0002
vn -0.0005 -1.0000 -0.0003
vn 0.0003 -1.0000 -0.0002
vn -0.0003 -1.0000 -0.0003
vn -0.0004 -1.0000 -0.0003
vn 0.0002 -1.0000 0.0002
vn -0.0020 -1.0000 -0.0012
vn -0.0021 -1.0000 -0.0012
vn -0.0001 -1.0000 -0.0002
vn 0.0002 -1.0000 -0.0002
vn -0.0018 -1.0000 -0.0004
vn 0.0001 -1.0000 -0.0000
vn -0.0017 -1.0000 -0.0004
vn -0.0000 -1.0000 -0.0000
vn -0.0001 -1.0000 -0.0000
vn 0.0001 -1.0000 -0.0003
vt 0.331372 0.629801
vt 0.339338 0.642750
vt 0.326093 0.645857
vt 0.330978 0.660038
vt 0.345479 0.652878
vt 0.317575 0.664805
vt 0.335417 0.673927
vt 0.351295 0.664258
vt 0.320511 0.680901
vt 0.304760 0.680098
vt 0.339689 0.689301
vt 0.356307 0.674637
vt 0.323032 0.696916
vt 0.306314 0.694988
vt 0.293574 0.689653
vt 0.343841 0.702877
vt 0.359952 0.681415
vt 0.326174 0.715378
vt 0.308197 0.717560
vt 0.292876 0.707555
vt 0.280267 0.691428
vt 0.346338 0.711846
vt 0.366283 0.690813
vt 0.350849 0.723617
vt 0.328877 0.734680
vt 0.330825 0.751684
vt 0.310357 0.739757
vt 0.313322 0.762295
vt 0.333574 0.767830
vt 0.316498 0.787163
vt 0.318255 0.806425
vt 0.293689 0.729676
vt 0.295447 0.755087
vt 0.298381 0.783020
vt 0.301236 0.816285
vt 0.301147 0.844355
vt 0.279913 0.713026
vt 0.280752 0.738064
vt 0.268567 0.712840
vt 0.269378 0.688380
vt 0.280950 0.765910
vt 0.267751 0.739657
vt 0.281464 0.796329
vt 0.266761 0.766892
vt 0.282600 0.834871
vt 0.265650 0.797123
vt 0.282962 0.871820
vt 0.264736 0.835177
vt 0.263972 0.874292
vt 0.240694 0.861512
vt 0.244142 0.823677
vt 0.224380 0.834724
vt 0.246726 0.786675
vt 0.230315 0.802996
vt 0.210896 0.792487
vt 0.249391 0.756996
vt 0.232935 0.769528
vt 0.215529 0.771346
vt 0.198489 0.750103
vt 0.252437 0.731948
vt 0.235978 0.741409
vt 0.219337 0.745804
vt 0.202120 0.733323
vt 0.187772 0.712118
vt 0.255340 0.706943
vt 0.239036 0.717272
vt 0.222878 0.721952
vt 0.205830 0.715973
vt 0.191619 0.698378
vt 0.175756 0.678599
vt 0.180428 0.666952
vt 0.195284 0.687601
vt 0.183387 0.659062
vt 0.209909 0.698898
vt 0.199897 0.674860
vt 0.188245 0.649158
vt 0.226604 0.700338
vt 0.214339 0.680996
vt 0.204848 0.661289
vt 0.194157 0.639099
vt 0.200313 0.629781
vt 0.242582 0.693718
vt 0.230681 0.679472
vt 0.219017 0.663777
vt 0.210119 0.648839
vt 0.207910 0.622010
vt 0.216240 0.635653
vt 0.225319 0.647165
vt 0.236281 0.659694
vt 0.247411 0.671919
vt 0.256422 0.680576
vt 0.856139 0.034903
vt 0.854316 0.046368
vt 0.850682 0.037673
vt 0.850676 0.042419
vt 0.850619 0.050699
vt 0.847048 0.046105
vt 0.848717 0.053006
vt 0.850583 0.057790
vt 0.852508 0.053123
vt 0.833386 0.034903
vt 0.831623 0.046368
vt 0.828125 0.037673
vt 0.828125 0.042419
vt 0.824493 0.046105
vt 0.822797 0.034771
vt 0.828125 0.050699
vt 0.829901 0.053123
vt 0.809076 0.040720
vt 0.808231 0.046481
vt 0.804688 0.042605
vt 0.806525 0.053276
vt 0.804688 0.050886
vt 0.801203 0.046298
vt 0.802860 0.053166
vt 0.799483 0.034868
vt 0.641727 0.966736
vt 0.639847 0.972085
vt 0.635793 0.967820
vt 0.634995 0.975540
vt 0.632856 0.966460
vt 0.636296 0.978853
vt 0.632856 0.976678
vt 0.632856 0.982235
vt 0.629586 0.978881
vt 0.630851 0.975548
vt 0.626118 0.972470
vt 0.630100 0.967906
vt 0.626305 0.941587
vt 0.622187 0.961925
vt 0.663191 0.906854
vt 0.667332 0.886492
vt 0.671106 0.912860
vt 0.667121 0.917430
vt 0.673900 0.911407
vt 0.673900 0.882874
vt 0.679991 0.886167
vt 0.671882 0.920502
vt 0.670617 0.923853
vt 0.673900 0.921622
vt 0.673900 0.927182
vt 0.677324 0.923782
vt 0.676025 0.920483
vt 0.680853 0.917040
vt 0.676800 0.912776
vt 0.684624 0.906362
vt 0.693196 0.968888
vt 0.695397 0.943216
vt 0.699144 0.969616
vt 0.695159 0.974189
vt 0.701979 0.968176
vt 0.701979 0.939625
vt 0.699946 0.977258
vt 0.698682 0.980625
vt 0.701979 0.978366
vt 0.701979 0.983929
vt 0.705292 0.980687
vt 0.703994 0.977440
vt 0.708874 0.973957
vt 0.704824 0.969615
vt 0.708084 0.942970
vt 0.712684 0.963278
vt 0.832702 0.269075
vt 0.828287 0.273744
vt 0.825859 0.255502
vt 0.834411 0.285156
vt 0.823282 0.265196
vt 0.816406 0.250459
vt 0.816406 0.273659
vt 0.816406 0.261815
vt 0.808951 0.264832
vt 0.805612 0.254603
vt 0.800190 0.268888
vt 0.804668 0.273597
vt 0.798781 0.285156
vt 0.816406 0.285156
vt 0.803512 0.285156
vt 0.801007 0.301653
vt 0.805147 0.297040
vt 0.806552 0.314482
vt 0.829668 0.285156
vt 0.828224 0.297066
vt 0.816406 0.297032
vt 0.809510 0.306206
vt 0.816406 0.318918
vt 0.816406 0.309511
vt 0.823199 0.306107
vt 0.825735 0.314080
vt 0.831638 0.304539
s 1
g LHand
g Bulbasaur.001_Material__10
usemtl Material__10
f 13/1/1 14/2/2 15/3/3
f 15/3/3 14/2/2 16/4/4
f 14/2/2 17/5/5 16/4/4
f 15/3/3 16/4/4 18/6/6
g LForeArm
f 16/4/4 17/5/5 19/7/7
f 17/5/5 20/8/8 19/7/7
g LHand
f 16/4/4 21/9/9 18/6/6
f 16/4/4 19/7/7 21/9/9
f 18/6/6 21/9/9 22/10/10
g LForeArm
f 19/7/7 20/8/8 23/11/11
g LArm
f 20/8/8 24/12/12 23/11/11
g LHand
f 19/7/7 25/13/13 21/9/9
g LForeArm
f 19/7/7 23/11/11 25/13/13
g LHand
f 21/9/9 26/14/14 22/10/10
f 21/9/9 25/13/13 26/14/14
f 22/10/10 26/14/14 27/15/15
g LArm
f 23/11/11 24/12/12 28/16/16
f 24/12/12 29/17/17 28/16/16
g LForeArm
f 23/11/11 30/18/18 25/13/13
g LArm
f 23/11/11 28/16/16 30/18/18
g LHand
f 25/13/13 31/19/19 26/14/14
g LForeArm
f 25/13/13 30/18/18 31/19/19
g LHand
f 26/14/14 32/20/20 27/15/15
f 26/14/14 31/19/19 32/20/20
f 27/15/15 32/20/20 33/21/21
g LArm
f 28/16/16 29/17/17 34/22/22
g LShoulder
f 29/17/17 12/23/23 34/22/22
f 12/23/23 6/24/24 34/22/22
g LArm
f 28/16/16 35/25/25 30/18/18
f 28/16/16 34/22/22 35/25/25
g LShoulder
f 34/22/22 6/24/24 36/26/26
g LArm
f 34/22/22 36/26/26 35/25/25
g LForeArm
f 30/18/18 37/27/27 31/19/19
g LArm
f 30/18/18 35/25/25 37/27/27
f 35/25/25 36/26/26 38/28/28
f 35/25/25 38/28/28 37/27/27
g LShoulder
f 36/26/26 5/29/29 39/30/30
g LArm
f 36/26/26 39/30/30 38/28/28
g LShoulder
f 5/29/29 4/31/31 39/30/30
g LHand
f 31/19/19 40/32/32 32/20/20
g LForeArm
f 31/19/19 37/27/27 40/32/32
g LArm
f 37/27/27 38/28/28 41/33/33
g LForeArm
f 37/27/27 41/33/33 40/32/32
g LArm
f 38/28/28 39/30/30 42/34/34
f 38/28/28 42/34/34 41/33/33
g LShoulder
f 39/30/30 4/31/31 43/35/35
g LArm
f 39/30/30 43/35/35 42/34/34
g LShoulder
f 4/31/31 3/36/36 43/35/35
g LHand
f 32/20/20 44/37/37 33/21/21
f 32/20/20 40/32/32 44/37/37
g LForeArm
f 40/32/32 41/33/33 45/38/38
f 40/32/32 45/38/38 44/37/37
g LHand
f 44/37/37 46/39/39 33/21/21
f 44/37/37 45/38/38 46/39/39
f 33/21/21 46/39/39 47/40/40
g LArm
f 41/33/33 42/34/34 48/41/41
g LForeArm
f 41/33/33 48/41/41 45/38/38
f 45/38/38 49/42/42 46/39/39
f 45/38/38 48/41/41 49/42/42
g LArm
f 42/34/34 43/35/35 50/43/43
f 42/34/34 50/43/43 48/41/41
g LForeArm
f 48/41/41 51/44/44 49/42/42
g LArm
f 48/41/41 50/43/43 51/44/44
g LShoulder
f 43/35/35 3/36/36 52/45/45
g LArm
f 43/35/35 52/45/45 50/43/43
f 50/43/43 53/46/46 51/44/44
f 50/43/43 52/45/45 53/46/46
g LShoulder
f 3/36/36 2/47/47 52/45/45
g LArm
f 52/45/45 54/48/48 53/46/46
g LShoulder
f 52/45/45 2/47/47 54/48/48
f 2/47/47 1/49/49 54/48/48
f 1/49/49 7/50/50 54/48/48
g LArm
f 54/48/48 55/51/51 53/46/46
g LShoulder
f 54/48/48 7/50/50 55/51/51
f 7/50/50 8/52/52 55/51/51
g LArm
f 53/46/46 56/53/53 51/44/44
f 53/46/46 55/51/51 56/53/53
g LShoulder
f 55/51/51 8/52/52 57/54/54
g LArm
f 55/51/51 57/54/54 56/53/53
g LShoulder
f 8/52/52 9/55/55 57/54/54
g LForeArm
f 51/44/44 58/56/56 49/42/42
g LArm
f 51/44/44 56/53/53 58/56/56
f 56/53/53 57/54/54 59/57/57
f 56/53/53 59/57/57 58/56/56
g LShoulder
f 57/54/54 9/55/55 60/58/58
g LArm
f 57/54/54 60/58/58 59/57/57
g LShoulder
f 9/55/55 10/59/59 60/58/58
g LForeArm
f 49/42/42 61/60/60 46/39/39
f 49/42/42 58/56/56 61/60/60
g LArm
f 58/56/56 59/57/57 62/61/61
g LForeArm
f 58/56/56 62/61/61 61/60/60
g LArm
f 59/57/57 60/58/58 63/62/62
f 59/57/57 63/62/62 62/61/61
f 60/58/58 10/59/59 64/63/63
f 60/58/58 64/63/63 63/62/62
g LShoulder
f 10/59/59 11/64/64 64/63/63
g LHand
f 46/39/39 65/65/65 47/40/40
g LForeArm
f 46/39/39 61/60/60 65/65/65
f 61/60/60 62/61/61 66/66/66
f 61/60/60 66/66/66 65/65/65
g LArm
f 62/61/61 63/62/62 67/67/67
g LForeArm
f 62/61/61 67/67/67 66/66/66
g LArm
f 63/62/62 64/63/63 68/68/68
f 63/62/62 68/68/68 67/67/67
g LShoulder
f 64/63/63 11/64/64 69/69/69
g LArm
f 64/63/63 69/69/69 68/68/68
g LShoulder
f 11/64/64 12/70/23 69/69/69
f 12/70/23 29/71/17 69/69/69
g LArm
f 69/69/69 70/72/70 68/68/68
f 69/69/69 29/71/17 70/72/70
f 29/71/17 24/73/12 70/72/70
f 68/68/68 71/74/71 67/67/67
f 68/68/68 70/72/70 71/74/71
f 70/72/70 24/73/12 72/75/72
f 70/72/70 72/75/72 71/74/71
f 24/73/12 20/76/8 72/75/72
g LForeArm
f 67/67/67 73/77/73 66/66/66
f 67/67/67 71/74/71 73/77/73
f 71/74/71 72/75/72 74/78/74
f 71/74/71 74/78/74 73/77/73
f 72/75/72 20/76/8 75/79/75
f 72/75/72 75/79/75 74/78/74
f 20/76/8 17/80/5 75/79/75
f 17/80/5 14/81/2 75/79/75
g LFinger
f 66/66/66 76/82/76 65/65/65
g LForeArm
f 66/66/66 73/77/73 76/82/76
f 73/77/73 74/78/74 77/83/77
g LFinger
f 73/77/73 77/83/77 76/82/76
g LForeArm
f 74/78/74 75/79/75 78/84/78
g LFinger
f 74/78/74 78/84/78 77/83/77
g LForeArm
f 75/79/75 14/81/2 79/85/79
g LFinger
f 75/79/75 79/85/79 78/84/78
g LHand
f 14/81/2 13/86/1 79/85/79
g LFinger
f 79/85/79 80/87/80 78/84/78
f 79/85/79 13/86/1 80/87/80
f 80/87/80 81/88/81 78/84/78
f 78/84/78 81/88/81 77/83/77
f 81/88/81 82/89/82 77/83/77
f 77/83/77 83/90/83 76/82/76
f 77/83/77 82/89/82 83/90/83
f 83/90/83 84/91/84 76/82/76
f 76/82/76 84/91/84 65/65/65
f 65/65/65 84/91/84 47/40/40
s 2
f 85/92/85 86/93/86 87/94/87
f 87/94/87 86/93/86 88/95/88
f 88/95/88 86/93/86 91/96/89
f 88/95/88 91/96/89 90/97/90
f 90/97/90 91/96/89 92/98/91
f 92/98/91 91/96/89 93/99/92
f 93/99/92 91/96/89 94/100/93
f 94/100/93 91/96/89 86/93/86
s 3
f 95/101/94 96/102/95 97/103/96
f 97/103/96 96/102/95 98/104/97
f 98/104/97 99/105/98 97/103/96
f 97/103/96 99/105/98 100/106/99
f 98/104/97 96/102/95 101/107/100
f 98/104/97 101/107/100 99/105/98
f 104/108/101 101/107/100 96/102/95
s 4
f 105/109/102 106/110/103 107/111/104
f 106/110/103 108/112/105 109/113/106
f 106/110/103 109/113/106 107/111/104
f 109/113/106 112/114/107 107/111/104
f 109/113/106 111/115/108 112/114/107
f 112/114/107 113/116/109 107/111/104
s 2
f 89/117/110 90/118/90 114/119/111
f 114/119/111 90/118/90 117/120/112
f 114/119/111 117/120/112 115/121/113
f 90/118/90 92/122/91 117/120/112
f 117/120/112 118/123/114 115/121/113
f 117/120/112 92/122/91 118/123/114
f 92/122/91 93/124/92 118/123/114
f 93/124/92 94/125/93 118/123/114
f 118/123/114 119/126/115 115/121/113
f 118/123/114 94/125/93 119/126/115
f 94/125/93 86/127/86 119/126/115
f 119/126/115 120/128/116 115/121/113
f 115/121/113 120/128/116 116/129/117
f 119/126/115 86/127/86 120/128/116
f 120/128/116 85/130/85 116/129/117
f 85/130/85 120/128/116 86/127/86
s 3
f 95/131/94 121/132/118 122/133/119
f 95/131/94 122/133/119 96/134/95
f 122/133/119 121/132/118 123/135/120
f 121/132/118 124/136/121 123/135/120
f 124/136/121 125/137/122 123/135/120
f 122/133/119 126/138/123 96/134/95
f 122/133/119 123/135/120 126/138/123
f 96/134/95 126/138/123 104/139/101
f 126/138/123 123/135/120 127/140/124
f 126/138/123 127/140/124 104/139/101
f 104/139/101 127/140/124 103/141/125
f 103/141/125 127/140/124 102/142/126
f 127/140/124 123/135/120 128/143/127
f 127/140/124 128/143/127 102/142/126
f 102/142/126 128/143/127 99/144/98
f 128/143/127 123/135/120 129/145/128
f 123/135/120 125/137/122 129/145/128
f 128/143/127 129/145/128 99/144/98
f 99/144/98 129/145/128 100/146/99
f 100/146/99 129/145/128 125/137/122
s 4
f 105/147/102 130/148/129 131/149/130
f 105/147/102 131/149/130 106/150/103
f 131/149/130 130/148/129 132/151/131
f 130/148/129 133/152/132 132/151/131
f 131/149/130 135/153/133 106/150/103
f 131/149/130 132/151/131 135/153/133
f 106/150/103 135/153/133 108/154/105
f 135/153/133 132/151/131 136/155/134
f 135/153/133 136/155/134 108/154/105
f 108/154/105 136/155/134 110/156/135
f 110/156/135 136/155/134 111/157/108
f 136/155/134 132/151/131 137/158/136
f 136/155/134 137/158/136 111/157/108
f 111/157/108 137/158/136 112/159/107
f 137/158/136 132/151/131 138/160/137
f 132/151/131 134/161/138 138/160/137
f 137/158/136 138/160/137 112/159/107
f 112/159/107 138/160/137 113/162/109
f 113/162/109 138/160/137 134/161/138
s 1
g LHand
f 33/163/21 139/164/139 27/165/15
f 33/163/21 47/166/40 139/164/139
f 27/165/15 139/164/139 140/167/140
f 27/165/15 140/167/140 22/168/10
s 0
f 140/167/141 139/164/142 141/169/143
s 1
f 140/167/140 142/170/144 22/168/10
s 0
f 140/167/145 141/169/146 142/170/145
s 1
f 142/170/144 143/171/147 22/168/10
s 0
f 142/170/145 141/169/148 143/171/149
s 1
f 22/168/10 143/171/147 18/172/6
f 18/172/6 143/171/147 15/173/3
s 0
f 143/171/150 141/169/151 144/174/152
s 1
f 143/171/147 144/174/153 15/173/3
f 15/173/3 144/174/153 13/175/1
s 0
f 141/169/154 139/164/154 145/176/154
f 141/169/155 145/176/155 144/174/152
s 1
f 144/174/153 146/177/156 13/175/1
s 0
f 144/174/152 145/176/157 146/177/158
s 1
f 13/175/1 146/177/156 80/178/80
s 0
f 146/177/158 145/176/157 147/179/157
s 1
g LFinger
f 146/177/156 147/179/159 80/178/80
f 80/178/80 147/179/159 81/180/81
g LHand
f 139/164/139 47/166/40 148/181/159
s 0
f 139/164/142 148/181/160 145/176/161
s 1
f 148/181/159 47/166/40 149/182/159
s 0
f 148/181/160 149/182/160 145/176/160
g LFinger
f 145/176/143 150/183/143 147/179/143
f 145/176/143 149/182/143 150/183/143
s 1
f 147/179/159 151/184/159 81/180/81
s 0
f 147/179/159 150/183/159 151/184/159
s 1
f 81/180/81 151/184/159 82/185/82
s 0
f 151/184/159 150/183/159 152/186/159
s 1
f 151/184/159 152/186/159 82/185/82
s 0
f 152/186/159 150/183/159 153/187/159
f 150/183/159 149/182/159 153/187/159
s 1
f 152/186/159 153/187/159 82/185/82
f 82/185/82 153/187/159 83/188/83
f 83/188/83 153/187/159 84/189/84
f 84/189/84 149/182/159 47/166/40
f 149/182/159 84/189/84 153/187/159
