# Blender 4.5.2 LTS
# www.blender.org
mtllib izqDelanEevee.mtl
g izqDelantera_Mesh
v -2.212830 0.979700 0.696755
v -1.678340 0.638740 2.550705
v -0.236350 -0.446290 2.943325
v -2.149710 0.960999 -0.829565
v 1.463430 -1.263510 1.863555
v -1.327860 0.755000 -2.227215
v 2.300930 -1.492920 0.396935
v 0.236350 0.446290 -2.943325
v 2.218480 -1.167480 -1.026405
v 1.463960 -0.405640 -2.390515
v 2.105420 -3.021100 -0.030515
v 2.049550 -3.017530 -1.412315
v 1.976380 -4.073180 -0.310875
v 1.435280 -1.317250 -2.257725
v 1.935910 -4.039670 -1.600415
v 1.833720 -5.567040 -0.727075
v 0.126720 -1.185310 -2.763305
v 1.340880 -3.030130 -2.387635
v 1.783030 -5.526540 -1.958945
v 1.747240 -6.965980 -1.129975
v 1.299390 -4.005380 -2.585365
v 0.056550 -3.034530 -2.916545
v 1.755850 -6.814560 -2.294155
v -1.386280 -1.149920 -2.266045
v 0.042540 -3.936010 -3.041595
v -1.370340 -2.989900 -2.433365
v -1.328580 -3.979570 -2.617445
v 1.174930 -5.503760 -2.949585
v 1.136270 -6.710270 -3.299325
v -2.246950 -1.176980 -1.050455
v -2.064220 -4.002360 -1.640835
v -1.248940 -5.467540 -2.954745
v -1.963920 -5.504840 -2.005195
v -0.013210 -5.478600 -3.416035
v -0.016160 -6.697510 -3.740685
v -2.136580 -2.955010 -1.400685
v -2.271720 -1.197870 0.448815
v -1.890300 -6.814560 -2.294155
v -1.960710 -5.582590 -0.725985
v -1.881700 -6.965980 -1.129975
v -1.168600 -6.710030 -3.303205
v -2.167260 -2.996380 -0.020805
v -2.089780 -4.001220 -0.258355
v -1.605610 -1.314000 1.851855
v -1.104380 -7.077760 -0.195195
v -1.388620 -4.055160 0.914435
v -1.228970 -5.623350 0.355295
v -1.487210 -3.093400 1.242795
v -0.016160 -7.127260 0.054355
v 0.001770 -4.110020 1.301265
v -0.013210 -5.658850 0.695215
v -0.153050 -1.384370 2.498825
v -0.052940 -3.129850 1.717335
v 1.112420 -5.635500 0.367895
v 1.072050 -7.077760 -0.195195
v 1.205260 -4.088940 0.947675
v 1.331890 -3.064480 1.270505
v -0.016160 -8.474822 -0.524285
v 1.208220 -8.378333 -0.845335
v -0.016160 -9.277294 -1.265925
v 1.661400 -9.275472 -1.823305
v 1.944870 -8.138500 -1.640625
v 2.002220 -8.344098 -2.265175
v 1.907040 -7.491930 -3.448245
v 1.016270 -6.979460 -4.020505
v 1.991160 -8.704016 -3.273655
v 1.695090 -7.808400 -4.305885
v 1.885790 -9.279181 -3.278355
v 1.841080 -8.803320 -4.149895
v 0.699700 -7.329060 -4.664454
v 1.424840 -8.016260 -4.784655
v -0.016160 -6.850880 -4.191235
v -1.048600 -6.979460 -4.020505
v 1.488790 -8.830441 -4.767555
v 0.810780 -8.012130 -5.022895
v 0.810780 -8.830441 -5.007285
v 1.733210 -9.276494 -4.111945
v -1.939370 -7.491930 -3.448245
v -0.732030 -7.329060 -4.664454
v -1.727420 -7.808400 -4.305885
v 0.699700 -8.830441 -4.656805
v -0.016160 -7.269060 -4.782055
v 0.614590 -7.984800 -5.164414
v 1.423170 -9.276494 -4.551485
v 0.810780 -9.276494 -4.796535
v -1.457170 -8.016260 -4.784655
v -2.023490 -8.704016 -3.273655
v -1.873410 -8.803320 -4.149895
v -0.016160 -7.984210 -5.255815
v 0.614590 -8.830441 -5.124965
v -0.016160 -8.830441 -5.220415
v 0.697950 -9.276494 -4.724854
v -2.034550 -8.344098 -2.265175
v -1.977200 -8.138500 -1.640625
v -0.843110 -8.012130 -5.022895
v -0.646920 -7.984800 -5.164414
v -0.732030 -8.830441 -4.656805
v -1.918120 -9.279181 -3.278355
v -1.521120 -8.830441 -4.767555
v -1.765540 -9.276494 -4.111945
v -1.455500 -9.276494 -4.551485
v 0.649130 -9.276494 -4.874515
v -0.016160 -9.276494 -4.978615
v -1.240550 -8.378333 -0.845335
v -1.693730 -9.275472 -1.823305
v -0.843110 -8.830441 -5.007285
v -0.646920 -8.830441 -5.124965
v -0.843110 -9.276494 -4.796535
v -0.681460 -9.276494 -4.874515
v -0.730280 -9.276494 -4.724854
v -0.016160 -9.276494 -3.325795
v -0.016160 -9.276494 -4.718494
vn 0.9496 -0.1856 0.2527
vn 0.9562 -0.1796 0.2313
vn 0.9579 -0.0378 -0.2845
vn 0.9457 -0.0414 -0.3224
vn 0.9524 -0.1747 0.2497
vn 0.5553 -0.0201 -0.8314
vn 0.9521 -0.0282 -0.3044
vn 0.9529 -0.1555 0.2603
vn 0.0193 -0.0222 -0.9996
vn 0.3387 -0.1357 -0.9311
vn 0.6271 0.0701 -0.7758
vn 0.9573 0.0097 -0.2890
vn 0.9419 -0.0846 0.3250
vn -0.1048 -0.0644 -0.9924
vn 0.6347 0.1214 -0.7632
vn 0.0288 0.1183 -0.9926
vn 0.9651 0.1933 -0.1767
vn -0.6086 0.0397 -0.7925
vn -0.6723 0.0550 -0.7382
vn 0.0247 0.1787 -0.9836
vn -0.5895 0.0971 -0.8019
vn -0.5789 0.1354 -0.8041
vn 0.6362 0.1670 -0.7532
vn 0.5935 0.5546 -0.5832
vn -0.9559 0.0268 -0.2926
vn -0.9641 0.0641 -0.2577
vn -0.9469 0.0083 -0.3215
vn -0.5939 0.1662 -0.7872
vn -0.9479 0.0159 -0.3182
vn 0.0055 0.2472 -0.9690
vn 0.0006 0.7311 -0.6822
vn -0.9476 0.0008 -0.3194
vn -0.9742 -0.0592 0.2179
vn -0.9883 -0.0282 0.1498
vn -0.9659 0.1482 -0.2124
vn -0.9440 -0.1599 0.2888
vn -0.9302 -0.1233 0.3458
vn -0.5746 0.5438 -0.6116
vn -0.9648 -0.1300 0.2287
vn -0.9545 -0.1517 0.2568
vn -0.7087 -0.2618 0.6552
vn -0.8131 -0.2228 0.5379
vn -0.5135 -0.3290 0.7925
vn -0.5961 -0.3106 0.7405
vn -0.5652 -0.3276 0.7571
vn -0.6308 -0.2961 0.7173
vn -0.2028 -0.3935 0.8967
vn 0.0003 -0.3885 0.9215
vn 0.0081 -0.3676 0.9299
vn 0.0025 -0.3809 0.9246
vn -0.0096 -0.4196 0.9077
vn -0.0014 -0.3800 0.9250
vn 0.5729 -0.3175 0.7557
vn 0.5416 -0.3173 0.7784
vn 0.5493 -0.3203 0.7718
vn 0.5805 -0.3110 0.7525
vn 0.6041 -0.3037 0.7368
vn -0.0000 -0.5460 0.8378
vn 0.5052 -0.4298 0.7484
vn -0.0000 -0.8854 0.4649
vn 0.5544 -0.7606 0.3378
vn 0.9352 -0.0911 0.3423
vn 0.9946 -0.0636 0.0824
vn 0.8933 0.3822 -0.2366
vn 0.4028 0.7914 -0.4599
vn 0.9949 -0.0639 -0.0778
vn 0.8074 0.3699 -0.4597
vn 0.6639 -0.7475 -0.0197
vn 0.9366 -0.0841 -0.3401
vn 0.3156 0.6556 -0.6860
vn 0.5999 0.2765 -0.7507
vn -0.0000 0.8910 -0.4541
vn -0.4027 0.7910 -0.4607
vn 0.6301 -0.1880 -0.7534
vn -0.3771 0.1844 -0.9076
vn -0.4092 -0.1917 -0.8921
vn 0.6142 -0.7448 -0.2609
vn -0.8918 0.3715 -0.2582
vn -0.3156 0.6556 -0.6860
vn -0.8074 0.3699 -0.4597
vn 0.0852 -0.0996 -0.9914
vn -0.0000 0.7017 -0.7125
vn 0.6340 0.2013 -0.7467
vn 0.4176 -0.7876 -0.4530
vn -0.2051 -0.7122 -0.6714
vn -0.5999 0.2765 -0.7507
vn -0.9949 -0.0639 -0.0778
vn -0.9366 -0.0841 -0.3401
vn -0.0000 0.2615 -0.9652
vn 0.6485 -0.1938 -0.7362
vn -0.0000 -0.2620 -0.9651
vn 0.1473 -0.9154 -0.3747
vn -0.9931 -0.0865 0.0793
vn -0.9301 -0.1332 0.3422
vn 0.3771 0.1844 -0.9076
vn -0.6340 0.2013 -0.7467
vn -0.0852 -0.0996 -0.9914
vn -0.6639 -0.7475 -0.0197
vn -0.6301 -0.1880 -0.7534
vn -0.6142 -0.7448 -0.2609
vn -0.4176 -0.7876 -0.4530
vn 0.5657 -0.6908 -0.4503
vn -0.0000 -0.8378 -0.5460
vn -0.4964 -0.4410 0.7478
vn -0.5544 -0.7606 0.3378
vn 0.4092 -0.1917 -0.8921
vn -0.6485 -0.1938 -0.7362
vn 0.2051 -0.7122 -0.6714
vn -0.5657 -0.6908 -0.4503
vn -0.1473 -0.9154 -0.3747
vn -0.0000 -1.0000 0.0002
vn -0.0000 -1.0000 -0.0000
vt 0.702515 0.224967
vt 0.704680 0.207095
vt 0.713764 0.227077
vt 0.716292 0.205197
vt 0.706488 0.191782
vt 0.725122 0.234606
vt 0.717808 0.189741
vt 0.708398 0.167791
vt 0.738719 0.241163
vt 0.725235 0.245996
vt 0.727451 0.206763
vt 0.721056 0.163599
vt 0.709761 0.142574
vt 0.735565 0.266519
vt 0.729091 0.190583
vt 0.741517 0.209381
vt 0.722981 0.142574
vt 0.754380 0.246305
vt 0.751134 0.276633
vt 0.742581 0.193998
vt 0.757059 0.213948
vt 0.757222 0.196125
vt 0.731991 0.164384
vt 0.735066 0.142574
vt 0.768953 0.251517
vt 0.765795 0.287675
vt 0.769478 0.199281
vt 0.757230 0.167399
vt 0.768681 0.169513
vt 0.744796 0.165337
vt 0.745898 0.142574
vt 0.769588 0.218781
vt 0.783438 0.258161
vt 0.780357 0.296351
vt 0.767755 0.142574
vt 0.781538 0.171892
vt 0.779924 0.142574
vt 0.756343 0.142574
vt 0.783264 0.223691
vt 0.783049 0.204280
vt 0.798575 0.262530
vt 0.800291 0.300081
vt 0.793933 0.142574
vt 0.796620 0.207345
vt 0.795199 0.174277
vt 0.797271 0.226953
vt 0.815488 0.276954
vt 0.807537 0.142574
vt 0.811008 0.204949
vt 0.808652 0.173399
vt 0.814381 0.259467
vt 0.812032 0.224474
vt 0.821038 0.170766
vt 0.821586 0.142574
vt 0.829961 0.245125
vt 0.822937 0.199977
vt 0.825426 0.217554
vt 0.833695 0.167791
vt 0.835088 0.142574
vt 0.841654 0.224967
vt 0.837591 0.207095
vt 0.835222 0.191782
vt 0.764280 0.459156
vt 0.764280 0.438822
vt 0.773146 0.462294
vt 0.777133 0.440610
vt 0.764280 0.417969
vt 0.783243 0.464226
vt 0.785829 0.417969
vt 0.787305 0.442673
vt 0.795426 0.467903
vt 0.792787 0.437036
vt 0.805687 0.449105
vt 0.809950 0.472684
vt 0.816320 0.457385
vt 0.801955 0.428333
vt 0.811924 0.439781
vt 0.801630 0.417969
vt 0.827998 0.475022
vt 0.809325 0.425327
vt 0.821231 0.444637
vt 0.814988 0.435072
vt 0.828034 0.461167
vt 0.839765 0.457571
vt 0.845991 0.473029
vt 0.814259 0.424687
vt 0.818359 0.434544
vt 0.818359 0.424600
vt 0.809356 0.417969
vt 0.850589 0.449483
vt 0.834916 0.444711
vt 0.844311 0.439953
vt 0.821231 0.424119
vt 0.828074 0.446300
vt 0.824219 0.434558
vt 0.813982 0.417969
vt 0.818359 0.417969
vt 0.861012 0.467812
vt 0.841250 0.435175
vt 0.854377 0.428442
vt 0.846956 0.425388
vt 0.828115 0.434608
vt 0.824219 0.424397
vt 0.828115 0.424368
vt 0.821231 0.417969
vt 0.863621 0.437220
vt 0.869164 0.442910
vt 0.872958 0.464323
vt 0.837891 0.434609
vt 0.832031 0.434587
vt 0.834916 0.424137
vt 0.854710 0.417969
vt 0.842000 0.424728
vt 0.846931 0.417969
vt 0.842282 0.417969
vt 0.824219 0.417969
vt 0.828098 0.417969
vt 0.879315 0.440529
vt 0.870590 0.417969
vt 0.837891 0.424628
vt 0.832031 0.424408
vt 0.837891 0.417969
vt 0.883314 0.461847
vt 0.892039 0.417969
vt 0.832031 0.417969
vt 0.834916 0.417969
vt 0.892039 0.438822
vt 0.892039 0.459156
vt 0.869039 0.844250
vt 0.866787 0.855505
vt 0.868380 0.842177
vt 0.862748 0.861203
vt 0.855083 0.864007
vt 0.855524 0.829052
vt 0.841708 0.859883
vt 0.868322 0.829052
vt 0.869756 0.841279
vt 0.836592 0.829052
vt 0.870712 0.829052
vt 0.868380 0.815927
vt 0.869756 0.816825
vt 0.841708 0.798222
vt 0.855083 0.794097
vt 0.862748 0.796901
vt 0.866787 0.802599
vt 0.869039 0.813854
s 1
g LArm
g izqDelantera_Material__12.001
usemtl Material__12.001
f 7/1/1 11/2/2 9/3/3
f 11/2/2 12/4/4 9/3/3
g LForeArm
f 11/2/2 13/5/5 12/4/4
g LArm
f 9/3/3 12/4/4 14/6/6
g LForeArm
f 13/5/5 15/7/7 12/4/4
f 13/5/5 16/8/8 15/7/7
g LArm
f 14/6/6 17/9/9 10/10/10
f 14/6/6 12/4/4 18/11/11
f 14/6/6 18/11/11 17/9/9
g LForeArm
f 12/4/4 15/7/7 18/11/11
f 16/8/8 19/12/12 15/7/7
f 16/8/8 20/13/13 19/12/12
g LArm
f 10/10/10 17/9/9 8/14/14
g LForeArm
f 18/11/11 15/7/7 21/15/15
g LArm
f 18/11/11 22/16/16 17/9/9
g LForeArm
f 18/11/11 21/15/15 22/16/16
f 15/7/7 19/12/12 21/15/15
f 20/13/13 23/17/17 19/12/12
g LArm
f 8/14/14 17/9/9 24/18/18
f 8/14/14 24/18/18 6/19/19
g LForeArm
f 22/16/16 21/15/15 25/20/20
g LArm
f 22/16/16 26/21/21 17/9/9
g LForeArm
f 22/16/16 25/20/20 27/22/22
f 22/16/16 27/22/22 26/21/21
g LArm
f 17/9/9 26/21/21 24/18/18
g LForeArm
f 23/17/17 28/23/23 19/12/12
f 23/17/17 29/24/24 28/23/23
f 21/15/15 28/23/23 25/20/20
f 21/15/15 19/12/12 28/23/23
g LArm
f 6/19/19 24/18/18 30/25/25
f 6/19/19 30/25/25 4/26/26
g LForeArm
f 27/22/22 31/27/27 26/21/21
f 27/22/22 25/20/20 32/28/28
f 27/22/22 33/29/29 31/27/27
f 27/22/22 32/28/28 33/29/29
f 29/24/24 34/30/30 28/23/23
f 29/24/24 35/31/31 34/30/30
f 25/20/20 34/30/30 32/28/28
f 25/20/20 28/23/23 34/30/30
g LArm
f 24/18/18 36/32/32 30/25/25
f 24/18/18 26/21/21 36/32/32
g LForeArm
f 26/21/21 31/27/27 36/32/32
g LArm
f 4/26/26 30/25/25 37/33/33
f 4/26/26 37/33/33 1/34/34
g LForeArm
f 33/29/29 32/28/28 38/35/35
f 33/29/29 39/36/36 31/27/27
f 33/29/29 38/35/35 40/37/37
f 33/29/29 40/37/37 39/36/36
f 35/31/31 41/38/38 34/30/30
f 41/38/38 32/28/28 34/30/30
f 41/38/38 38/35/35 32/28/28
g LArm
f 36/32/32 42/39/39 30/25/25
g LForeArm
f 36/32/32 31/27/27 43/40/40
f 36/32/32 43/40/40 42/39/39
f 31/27/27 39/36/36 43/40/40
g LArm
f 30/25/25 42/39/39 37/33/33
f 1/34/34 37/33/33 44/41/41
f 1/34/34 44/41/41 2/42/42
g LForeArm
f 40/37/37 45/43/43 39/36/36
f 43/40/40 46/44/44 42/39/39
f 43/40/40 39/36/36 47/45/45
f 43/40/40 47/45/45 46/44/44
f 39/36/36 45/43/43 47/45/45
g LArm
f 37/33/33 48/46/46 44/41/41
f 37/33/33 42/39/39 48/46/46
g LForeArm
f 42/39/39 46/44/44 48/46/46
g Spine1
f 2/42/42 44/41/41 3/47/47
g LForeArm
f 45/43/43 49/48/48 47/45/45
f 46/44/44 50/49/49 48/46/46
f 46/44/44 47/45/45 51/50/50
f 46/44/44 51/50/50 50/49/49
f 47/45/45 49/48/48 51/50/50
g LArm
f 44/41/41 52/51/51 3/47/47
f 44/41/41 48/46/46 53/52/52
f 44/41/41 53/52/52 52/51/51
g LForeArm
f 48/46/46 50/49/49 53/52/52
f 49/48/48 54/53/53 51/50/50
f 49/48/48 55/54/54 54/53/53
g Spine1
f 3/47/47 52/51/51 5/55/55
g LArm
f 52/51/51 53/52/52 5/55/55
g LForeArm
f 50/49/49 51/50/50 56/56/56
f 50/49/49 57/57/57 53/52/52
f 50/49/49 56/56/56 57/57/57
g LArm
f 53/52/52 57/57/57 5/55/55
g LForeArm
f 51/50/50 54/53/53 56/56/56
f 55/54/54 16/58/8 54/53/53
f 55/54/54 20/59/13 16/58/8
g Spine1
f 57/57/57 7/60/1 5/55/55
g LForeArm
f 57/57/57 56/56/56 11/61/2
g LArm
f 57/57/57 11/61/2 7/60/1
g LForeArm
f 54/53/53 16/58/8 13/62/5
f 54/53/53 13/62/5 56/56/56
f 56/56/56 13/62/5 11/61/2
g LHand
f 49/63/48 58/64/58 55/65/54
f 58/64/58 59/66/59 55/65/54
f 58/64/58 60/67/60 59/66/59
f 55/65/54 59/66/59 20/68/13
f 60/67/60 61/69/61 59/66/59
f 20/68/13 59/66/59 62/70/62
f 20/68/13 62/70/62 23/71/17
f 59/66/59 61/69/61 62/70/62
f 23/71/17 62/70/62 63/72/63
f 23/71/17 63/72/63 64/73/64
f 23/71/17 64/73/64 29/74/24
f 62/70/62 61/69/61 63/72/63
f 64/73/64 65/75/65 29/74/24
f 64/73/64 63/72/63 66/76/66
f 64/73/64 67/77/67 65/75/65
f 64/73/64 66/76/66 67/77/67
f 61/69/61 68/78/68 63/72/63
f 63/72/63 68/78/68 66/76/66
f 29/74/24 65/75/65 35/79/31
f 67/77/67 66/76/66 69/80/69
f 67/77/67 70/81/70 65/75/65
f 67/77/67 69/80/69 71/82/71
f 67/77/67 71/82/71 70/81/70
f 66/76/66 68/78/68 69/80/69
f 35/79/31 65/75/65 72/83/72
f 35/79/31 72/83/72 73/84/73
f 35/79/31 73/84/73 41/85/38
f 65/75/65 70/81/70 72/83/72
f 71/82/71 69/80/69 74/86/74
f 71/82/71 75/87/75 70/81/70
f 71/82/71 74/86/74 76/88/76
f 71/82/71 76/88/76 75/87/75
f 68/78/68 77/89/77 69/80/69
f 73/84/73 78/90/78 41/85/38
f 73/84/73 72/83/72 79/91/79
f 73/84/73 80/92/80 78/90/78
f 73/84/73 79/91/79 80/92/80
f 70/81/70 75/87/75 81/93/81
f 70/81/70 82/94/82 72/83/72
f 70/81/70 81/93/81 83/95/83
f 70/81/70 83/95/83 82/94/82
f 72/83/72 82/94/82 79/91/79
f 75/87/75 76/88/76 81/93/81
f 74/86/74 69/80/69 84/96/84
f 74/86/74 85/97/85 76/88/76
f 74/86/74 84/96/84 85/97/85
f 84/96/84 69/80/69 77/89/77
f 76/88/76 85/97/85 81/93/81
f 41/85/38 78/90/78 38/98/35
f 80/92/80 79/91/79 86/99/86
f 80/92/80 87/100/87 78/90/78
f 80/92/80 86/99/86 88/101/88
f 80/92/80 88/101/88 87/100/87
f 83/95/83 89/102/89 82/94/82
f 83/95/83 81/93/81 90/103/90
f 83/95/83 91/104/91 89/102/89
f 83/95/83 90/103/90 91/104/91
f 85/97/85 92/105/92 81/93/81
f 38/98/35 78/90/78 93/106/93
f 38/98/35 93/106/93 94/107/94
f 38/98/35 94/107/94 40/108/37
f 78/90/78 87/100/87 93/106/93
f 79/91/79 95/109/95 86/99/86
f 79/91/79 82/94/82 96/110/96
f 79/91/79 97/111/97 95/109/95
f 79/91/79 96/110/96 97/111/97
f 89/102/89 91/104/91 96/110/96
f 89/102/89 96/110/96 82/94/82
f 88/101/88 98/112/98 87/100/87
f 88/101/88 86/99/86 99/113/99
f 88/101/88 100/114/100 98/112/98
f 88/101/88 99/113/99 101/115/101
f 88/101/88 101/115/101 100/114/100
f 87/100/87 98/112/98 93/106/93
f 90/103/90 81/93/81 102/116/102
f 90/103/90 103/117/103 91/104/91
f 90/103/90 102/116/102 103/117/103
f 102/116/102 81/93/81 92/105/92
f 94/107/94 104/118/104 40/108/37
f 94/107/94 93/106/93 105/119/105
f 94/107/94 105/119/105 104/118/104
f 93/106/93 98/112/98 105/119/105
f 95/109/95 97/111/97 106/120/106
f 95/109/95 106/120/106 86/99/86
f 86/99/86 106/120/106 99/113/99
f 96/110/96 91/104/91 107/121/107
f 96/110/96 107/121/107 97/111/97
f 91/104/91 103/117/103 107/121/107
f 101/115/101 99/113/99 108/122/108
f 106/120/106 97/111/97 108/122/108
f 106/120/106 108/122/108 99/113/99
f 40/108/37 104/118/104 45/123/43
f 105/119/105 60/124/60 104/118/104
f 103/117/103 109/125/109 107/121/107
f 107/121/107 109/125/109 97/111/97
f 108/122/108 97/111/97 110/126/110
f 110/126/110 97/111/97 109/125/109
f 45/123/43 104/118/104 58/127/58
f 45/123/43 58/127/58 49/128/48
f 58/127/58 104/118/104 60/124/60
f 85/129/85 84/130/84 92/131/92
f 84/130/84 77/132/77 92/131/92
f 77/132/77 68/133/68 92/131/92
f 68/133/68 111/134/111 92/131/92
f 68/133/68 61/135/61 111/134/111
f 92/131/92 111/134/111 112/136/112
f 92/131/92 112/136/112 102/137/102
f 61/135/61 60/138/60 111/134/111
f 112/136/112 103/139/103 102/137/102
f 112/136/112 111/134/111 110/140/110
f 112/136/112 109/141/109 103/139/103
f 112/136/112 110/140/110 109/141/109
f 60/138/60 105/142/105 111/134/111
f 110/140/110 111/134/111 98/143/98
f 110/140/110 98/143/98 100/144/100
f 110/140/110 100/144/100 101/145/101
f 110/140/110 101/145/101 108/146/108
f 98/143/98 111/134/111 105/142/105
