# Blender 4.5.2 LTS
# www.blender.org
mtllib izqTrasBul.mtl
g Bulbasaur.002_Mesh
v 2.379073 -0.833604 1.994932
v 1.444793 0.136544 2.622257
v 0.280745 0.897461 2.416918
v -0.785497 1.374147 1.437690
v 2.642869 -1.499614 0.919592
v 2.575392 -1.914822 -0.265377
v -1.587167 1.363155 0.070800
v 2.050335 -1.962269 -1.536241
v 1.088499 -1.722184 -2.258644
v -0.280745 -0.897461 -2.416918
v -1.200165 -0.020754 -2.014419
v -1.731062 0.796585 -1.274423
v 1.892320 -3.525639 -0.230737
v 1.795950 -3.525639 -0.968782
v 2.012109 -3.357254 -0.221468
v 1.903542 -3.394902 -1.082256
v 1.324373 -3.525639 -1.440789
v 2.117720 -3.146899 -0.236248
v 1.361796 -3.357507 -1.691759
v 0.576715 -3.525639 -1.718162
v 1.969348 -3.204429 -1.157992
v 2.247294 -2.854087 -0.242303
v 0.574189 -3.250524 -1.939515
v -0.227250 -3.210567 -1.727288
v -0.186900 -3.525639 -1.459903
v 2.029644 -2.895714 -1.236426
v 2.382529 -2.516180 -0.238716
v 1.368024 -3.142158 -1.821621
v -0.786014 -3.203605 -1.088455
v -0.611755 -3.525639 -0.967146
v 2.067382 -2.572578 -1.315950
v 2.486624 -2.199805 -0.240581
v 0.550656 -2.946095 -2.086108
v -0.807452 -3.525639 -0.258173
v 1.363748 -2.794020 -1.913600
v 2.080096 -2.256178 -1.395646
v -0.340955 -2.723441 -1.900198
v -0.992042 -3.203559 -0.214351
v -0.626794 -3.525639 0.437569
v 1.310512 -2.407572 -2.026185
v 0.460887 -2.569238 -2.234193
v -1.051305 -2.561044 -1.213180
v -0.741961 -3.204397 0.569526
v -0.128240 -3.525639 0.934716
v 0.316274 -2.043816 -2.350308
v -0.466167 -2.217504 -2.048283
v 1.219164 -2.055617 -2.129299
v -1.272629 -2.459468 -0.144871
v -0.167529 -3.204492 1.157447
v 0.549308 -3.525639 1.114169
v -0.665766 -1.515026 -2.129443
v -1.309679 -1.811380 -1.323067
v -0.990751 -2.419167 0.845034
v 0.633682 -3.229767 1.383191
v 1.213395 -3.525639 0.918674
v 0.167988 -1.549194 -2.415167
v -1.520098 -1.579538 -0.064285
v -1.488730 -0.950795 -1.371396
v -0.210089 -2.546882 1.524532
v 1.364609 -3.281647 1.156242
v 1.852975 -3.340314 0.557989
v 1.689679 -3.525639 0.421986
v -0.885340 -0.838864 -2.109985
v -1.167247 -1.512170 1.072413
v -1.666002 -0.587696 0.004477
v 0.739609 -2.722061 1.647277
v -0.220334 -1.733385 1.839270
v 0.870389 -2.061383 1.970424
v 2.007201 -3.045938 0.654187
v 1.539499 -2.893499 1.360978
v -1.622753 -0.117095 -1.358969
v 1.037099 -1.351234 2.242143
v 1.711576 -2.441417 1.554407
v 1.916743 -1.918205 1.749415
v -1.166587 -0.562183 1.253272
v -0.148759 -0.856574 2.084100
v 2.194747 -2.688808 0.763357
v -1.673952 0.357266 0.053925
v 2.127678 -1.382438 1.870983
v 2.362345 -2.307468 0.872211
v 2.526561 -1.909624 0.945852
v -1.038447 0.387744 1.411918
v 1.233915 -0.620298 2.463467
v 0.029488 0.009323 2.288606
v -0.525487 -3.491061 -1.004913
v -0.486916 -3.494663 -1.656316
v -0.152318 -3.497998 -1.412808
v -0.194161 -3.495741 -1.578514
v -0.264846 -3.490827 -1.871987
v -0.420479 -3.489800 -1.927002
v 0.138658 -3.491740 -1.590883
v -0.327036 -3.489800 -2.126143
v 0.027881 -3.492988 -1.774182
v -0.151802 -3.488838 -1.987729
v 0.104019 -3.494910 -1.439326
v 0.303044 -3.498512 -2.060767
v 0.566182 -3.504102 -1.570938
v 0.567330 -3.499590 -1.912739
v 0.571693 -3.494675 -2.214563
v 0.434570 -3.493648 -2.306485
v 0.830985 -3.496836 -2.047221
v 1.016465 -3.493092 -1.431979
v 0.574505 -3.493648 -2.476209
v 0.709906 -3.492686 -2.298651
v 1.655040 -3.493092 -1.043111
v 1.245796 -3.504102 -1.276776
v 1.607916 -3.496836 -1.683982
v 1.321331 -3.499590 -1.610111
v 0.875927 -3.496110 -1.436628
v 1.391299 -3.494675 -1.903756
v 1.544492 -3.492686 -1.955730
v 1.095616 -3.498512 -1.812122
v 1.450992 -3.493648 -2.158515
v 1.277451 -3.493648 -2.023315
v -0.250669 -3.102899 -1.774698
v -0.386586 -2.887291 -0.840011
v 0.294291 -2.880504 -1.010883
v -0.408712 -3.219938 -1.705334
v -0.071015 -3.224102 -1.783394
v -0.374590 -3.366465 -1.912194
v -0.305253 -3.322191 -2.026817
v -0.188593 -3.368246 -1.954725
v 0.570975 -3.326040 -2.374616
v 0.475380 -3.370313 -2.280771
v 0.666083 -3.372094 -2.275835
v 0.390977 -3.223786 -2.088834
v 0.561304 -3.106747 -2.116816
v 0.737456 -3.227950 -2.080684
v 0.197662 -2.891140 -1.245092
v 0.899661 -2.884352 -1.241678
v 0.568335 -2.638496 -1.254420
v 1.425421 -3.326040 -2.060107
v 1.311688 -3.370313 -1.989336
v 1.496738 -3.372094 -1.942988
v 1.187509 -3.223786 -1.820358
v 1.359845 -3.106747 -1.810629
v 1.523944 -3.227950 -1.736988
v 0.815172 -2.891140 -1.038950
v 1.499607 -2.884352 -0.882800
v -0.264587 -3.525639 0.226519
v 0.085480 -3.525639 0.575581
v -0.391436 -3.525639 -0.262019
v 0.561218 -3.525639 0.701569
v 0.565953 -3.525639 0.220894
v -0.254026 -3.525639 -0.759827
v 0.570631 -3.525639 -0.251831
v 0.091420 -3.525639 -1.123209
v 1.029953 -3.525639 0.564303
v 0.575452 -3.525639 -0.739708
v 1.375256 -3.525639 0.215556
v 1.354306 -3.525639 -0.723092
v 1.499435 -3.525639 -0.242762
v 0.580446 -3.525639 -1.243715
v 1.038563 -3.525639 -1.093133
vn 0.5027 -0.8634 0.0435
vn 0.4053 -0.9015 -0.1517
vn 0.8501 -0.5231 0.0606
vn 0.7333 -0.5906 -0.3368
vn 0.2079 -0.9354 -0.2859
vn 0.9043 -0.4258 0.0285
vn 0.4041 -0.6281 -0.6650
vn -0.0208 -0.8754 -0.4830
vn 0.8343 -0.3628 -0.4152
vn 0.9223 -0.3860 -0.0176
vn -0.0283 -0.5276 -0.8490
vn -0.4637 -0.4987 -0.7323
vn -0.3031 -0.8646 -0.4007
vn 0.8464 -0.2520 -0.4691
vn 0.9391 -0.3368 -0.0688
vn 0.4581 -0.3521 -0.8162
vn -0.7793 -0.4718 -0.4124
vn -0.4650 -0.8516 -0.2422
vn 0.8309 -0.1958 -0.5208
vn 0.9454 -0.3064 -0.1111
vn -0.0091 -0.3851 -0.9228
vn -0.5551 -0.8318 -0.0071
vn 0.4876 -0.2081 -0.8479
vn 0.8138 -0.1740 -0.5545
vn 0.9500 -0.2871 -0.1225
vn -0.5040 -0.3788 -0.7762
vn -0.9040 -0.4260 0.0377
vn -0.4987 -0.8193 0.2827
vn 0.4718 -0.1569 -0.8676
vn -0.0118 -0.2908 -0.9567
vn 0.7267 -0.2160 -0.6521
vn -0.8310 -0.3738 -0.4119
vn -0.7732 -0.4345 0.4619
vn -0.2866 -0.8448 0.4518
vn -0.0299 -0.1783 -0.9835
vn -0.5102 -0.2973 -0.8070
vn 0.4206 -0.1603 -0.8930
vn -0.9433 -0.3252 0.0671
vn -0.4450 -0.5062 0.7388
vn -0.0220 -0.8836 0.4677
vn -0.5318 -0.1882 -0.8257
vn -0.8712 -0.2714 -0.4090
vn 0.2430 -0.2234 -0.9439
vn -0.7994 -0.3422 0.4939
vn -0.0109 -0.5753 0.8179
vn 0.1989 -0.9150 0.3510
vn -0.0516 -0.0702 -0.9962
vn -0.9720 -0.2144 0.0961
vn -0.9031 -0.1720 -0.3935
vn -0.4444 -0.3870 0.8079
vn 0.3851 -0.6513 0.6538
vn 0.6894 -0.6308 0.3562
vn 0.3645 -0.9126 0.1851
vn -0.3832 -0.2166 -0.8979
vn -0.6047 -0.1596 -0.7803
vn -0.8165 -0.2005 0.5414
vn -0.9858 -0.0837 0.1458
vn 0.0095 -0.4501 0.8929
vn -0.4487 -0.2708 0.8517
vn 0.0118 -0.3951 0.9186
vn 0.7751 -0.5192 0.3600
vn 0.4469 -0.5226 0.7261
vn -0.7719 -0.1658 -0.6137
vn -0.9383 -0.1159 -0.3257
vn 0.0267 -0.3186 0.9475
vn 0.4666 -0.4785 0.7438
vn 0.5034 -0.4205 0.7548
vn -0.8074 -0.0544 0.5875
vn -0.4552 -0.1593 0.8760
vn 0.8070 -0.4810 0.3426
vn -0.9912 -0.0495 -0.1226
vn -0.9760 0.0221 0.2168
vn 0.5540 -0.3904 0.7353
vn 0.8361 -0.4346 0.3347
vn 0.8876 -0.3380 0.3128
vn -0.7770 0.0759 0.6249
vn 0.0436 -0.2554 0.9659
vn -0.4432 -0.0635 0.8942
vn -0.9480 0.1080 0.2993
vn 0.9068 -0.2786 0.3164
vn -0.0290 -0.1826 0.9828
vn -0.4582 0.0175 0.8887
vn -0.7493 0.1755 0.6385
vn 0.4795 -0.3836 0.7893
vn -0.9893 -0.1303 -0.0654
vn -0.7982 -0.5871 -0.1348
vn -0.0015 -1.0000 -0.0069
vn 0.0036 -0.9999 -0.0138
vn 0.0004 -0.9999 -0.0134
vn -0.7953 -0.5372 -0.2810
vn 0.7864 -0.3839 -0.4840
vn -0.2108 -0.3662 -0.9064
vn 0.6561 -0.5798 -0.4831
vn 0.5933 -0.5275 -0.6081
vn -0.9106 -0.2869 -0.2975
vn -0.7397 -0.5867 -0.3296
vn 0.0028 -1.0000 -0.0043
vn 0.0035 -0.9999 -0.0142
vn 0.0037 -0.9999 -0.0129
vn -0.7007 -0.5372 -0.4695
vn 0.7554 -0.5784 -0.3079
vn 0.9212 -0.2677 -0.2823
vn 0.0207 -0.3662 -0.9303
vn 0.7256 -0.5275 -0.4419
vn 0.9606 -0.2677 -0.0749
vn 0.0052 -1.0000 -0.0073
vn 0.8043 -0.5785 -0.1361
vn 0.0011 -0.9999 -0.0113
vn -0.3230 -0.9269 -0.1912
vn 0.0064 -0.9999 -0.0117
vn 0.8044 -0.5275 -0.2733
vn -0.6510 -0.5881 -0.4800
vn 0.2227 -0.3662 -0.9035
vn -0.5817 -0.5372 -0.6108
vn -0.9346 0.3393 -0.1065
vn -0.1449 0.7893 -0.5967
vn -0.8331 0.4726 -0.2875
vn 0.7202 0.4401 -0.5363
vn 0.6084 0.4826 -0.6300
vn -0.8524 0.4033 -0.3327
vn -0.1796 0.6393 -0.7477
vn 0.6105 0.4200 -0.6715
vn 0.0116 0.6392 -0.7689
vn -0.7433 0.4034 -0.5337
vn 0.7580 0.4199 -0.4990
vn -0.7357 0.4726 -0.4852
vn 0.0056 0.8043 -0.5942
vn 0.7465 0.4824 -0.4583
vn -0.7109 0.5870 -0.3874
vn 0.7220 0.5817 -0.3746
vn 0.0213 0.8785 -0.4772
vn 0.1787 0.6393 -0.7479
vn -0.6092 0.4034 -0.6827
vn 0.8485 0.4200 -0.3220
vn -0.5652 0.5076 -0.6503
vn 0.1411 0.7893 -0.5976
vn 0.8283 0.4824 -0.2849
vn -0.4581 0.7181 -0.5240
vn 0.9245 0.3621 -0.1193
vn -0.0000 -1.0000 -0.0000
vt 0.828174 0.512187
vt 0.837032 0.531270
vt 0.824032 0.518970
vt 0.833294 0.540152
vt 0.844638 0.545199
vt 0.820075 0.525827
vt 0.842893 0.557783
vt 0.856543 0.563047
vt 0.830350 0.547968
vt 0.815709 0.532457
vt 0.854107 0.573610
vt 0.865124 0.585731
vt 0.868599 0.573995
vt 0.827084 0.556344
vt 0.810744 0.540004
vt 0.840552 0.567390
vt 0.878821 0.589972
vt 0.880010 0.577680
vt 0.823891 0.565409
vt 0.806294 0.547218
vt 0.850651 0.585878
vt 0.893310 0.578763
vt 0.837866 0.577747
vt 0.821117 0.574527
vt 0.800223 0.555728
vt 0.862724 0.602324
vt 0.893924 0.590957
vt 0.906554 0.577481
vt 0.835499 0.590145
vt 0.848953 0.598755
vt 0.815594 0.586837
vt 0.877315 0.613084
vt 0.907997 0.589163
vt 0.919634 0.573703
vt 0.847148 0.616111
vt 0.860520 0.619220
vt 0.833993 0.602126
vt 0.894375 0.617396
vt 0.922110 0.585693
vt 0.932374 0.566878
vt 0.858944 0.642420
vt 0.875597 0.638504
vt 0.831291 0.618417
vt 0.910552 0.617538
vt 0.935896 0.578366
vt 0.944259 0.556141
vt 0.845941 0.632549
vt 0.894805 0.646704
vt 0.874145 0.666215
vt 0.926520 0.609149
vt 0.947469 0.566683
vt 0.956656 0.548680
vt 0.952283 0.536640
vt 0.846246 0.657688
vt 0.858854 0.665270
vt 0.912628 0.647282
vt 0.895348 0.678153
vt 0.940599 0.595449
vt 0.931068 0.635948
vt 0.946438 0.617513
vt 0.960999 0.557900
vt 0.952058 0.579287
vt 0.963489 0.526338
vt 0.958447 0.519534
vt 0.860945 0.693717
vt 0.873747 0.693201
vt 0.952489 0.639190
vt 0.957061 0.593403
vt 0.962989 0.609307
vt 0.915940 0.676483
vt 0.935719 0.662794
vt 0.968711 0.532861
vt 0.965735 0.567951
vt 0.973214 0.538534
vt 0.874863 0.723232
vt 0.896314 0.708023
vt 0.969366 0.623645
vt 0.970468 0.578741
vt 0.975534 0.588900
vt 0.920133 0.705809
vt 0.958845 0.661084
vt 0.941542 0.689230
vt 0.978267 0.545510
vt 0.897604 0.740753
vt 0.982590 0.597581
vt 0.982833 0.551823
vt 0.989541 0.559829
vt 0.965377 0.684195
vt 0.947850 0.717166
vt 0.924131 0.737876
vt 0.976225 0.638338
vt 0.732623 0.627398
vt 0.729897 0.646313
vt 0.726563 0.637028
vt 0.726563 0.642340
vt 0.726562 0.650494
vt 0.728279 0.652870
vt 0.722127 0.639837
vt 0.726563 0.657564
vt 0.723017 0.646085
vt 0.724601 0.652759
vt 0.779603 0.598814
vt 0.776860 0.614004
vt 0.773438 0.601845
vt 0.773438 0.609940
vt 0.773438 0.618108
vt 0.775111 0.620458
vt 0.769841 0.613633
vt 0.767312 0.598721
vt 0.773438 0.625252
vt 0.771450 0.620470
vt 0.743976 0.618549
vt 0.750000 0.621997
vt 0.746425 0.634354
vt 0.750000 0.630713
vt 0.755228 0.623996
vt 0.750000 0.638873
vt 0.748028 0.641243
vt 0.753449 0.634711
vt 0.750000 0.645959
vt 0.751691 0.641206
vt 0.735681 0.895815
vt 0.742264 0.921593
vt 0.739332 0.922677
vt 0.729576 0.911008
vt 0.748364 0.895496
vt 0.745301 0.922586
vt 0.751075 0.921157
vt 0.735527 0.926901
vt 0.740255 0.929989
vt 0.749173 0.926504
vt 0.742264 0.931093
vt 0.744381 0.929970
vt 0.738983 0.933328
vt 0.745687 0.933255
vt 0.742264 0.936738
vt 0.777420 0.984491
vt 0.774154 0.981097
vt 0.777420 0.978869
vt 0.780827 0.981025
vt 0.775420 0.977773
vt 0.770712 0.974703
vt 0.779527 0.977754
vt 0.784299 0.974308
vt 0.774501 0.970496
vt 0.764784 0.958876
vt 0.777420 0.969418
vt 0.780444 0.970406
vt 0.789984 0.958333
vt 0.770863 0.943745
vt 0.783495 0.943427
vt 0.777420 0.940125
vt 0.810623 0.933982
vt 0.807354 0.930588
vt 0.810623 0.928360
vt 0.814034 0.930516
vt 0.808621 0.927260
vt 0.803907 0.924185
vt 0.812733 0.927241
vt 0.817511 0.923789
vt 0.807700 0.919972
vt 0.799949 0.913620
vt 0.810623 0.918892
vt 0.813651 0.919881
vt 0.823204 0.907793
vt 0.804058 0.893186
vt 0.816706 0.892868
vt 0.543333 0.696189
vt 0.538399 0.701915
vt 0.536556 0.682687
vt 0.545753 0.714972
vt 0.533651 0.692460
vt 0.527344 0.677756
vt 0.540080 0.715108
vt 0.543139 0.734197
vt 0.527344 0.689030
vt 0.527344 0.702202
vt 0.538288 0.728661
vt 0.537463 0.747539
vt 0.518228 0.683055
vt 0.527344 0.715198
vt 0.533660 0.738595
vt 0.527344 0.754998
vt 0.520755 0.692765
vt 0.527344 0.728399
vt 0.516021 0.702289
vt 0.516372 0.728038
vt 0.514293 0.714796
vt 0.527344 0.742084
vt 0.516889 0.747848
vt 0.511713 0.696638
vt 0.508935 0.714489
vt 0.510337 0.734899
vt 0.520759 0.738156
s 1
g LFoot
g Bulbasaur.002_Material__10
usemtl Material__10
f 13/1/1 14/2/2 15/3/3
g LToe
f 14/2/2 16/4/4 15/3/3
f 14/2/2 17/5/5 16/4/4
g LFoot
f 15/3/3 16/4/4 18/6/6
g LToe
f 17/5/5 19/7/7 16/4/4
f 17/5/5 20/8/8 19/7/7
f 18/6/6 16/4/4 21/9/9
g LLeg
f 18/6/6 21/9/9 22/10/10
g LToe
f 16/4/4 19/7/7 21/9/9
f 20/8/8 23/11/11 19/7/7
f 20/8/8 24/12/12 23/11/11
f 20/8/8 25/13/13 24/12/12
g LLeg
f 22/10/10 21/9/9 26/14/14
g LThigh
f 22/10/10 26/14/14 27/15/15
g LToe
f 19/7/7 23/11/11 28/16/16
f 19/7/7 28/16/16 21/9/9
f 21/9/9 28/16/16 26/14/14
f 25/13/13 29/17/17 24/12/12
f 25/13/13 30/18/18 29/17/17
g LThigh
f 27/15/15 26/14/14 31/19/19
f 27/15/15 31/19/19 32/20/20
g LToe
f 23/11/11 33/21/21 28/16/16
f 23/11/11 24/12/12 33/21/21
f 30/18/18 34/22/22 29/17/17
g LThigh
f 26/14/14 35/23/23 31/19/19
g LToe
f 26/14/14 28/16/16 35/23/23
f 28/16/16 33/21/21 35/23/23
g LThigh
f 32/20/20 31/19/19 36/24/24
f 32/20/20 36/24/24 6/25/25
g LToe
f 24/12/12 29/17/17 37/26/26
f 24/12/12 37/26/26 33/21/21
g LFoot
f 34/22/22 38/27/27 29/17/17
f 34/22/22 39/28/28 38/27/27
g LThigh
f 35/23/23 40/29/29 31/19/19
g LToe
f 35/23/23 33/21/21 41/30/30
g LThigh
f 35/23/23 41/30/30 40/29/29
g LToe
f 33/21/21 37/26/26 41/30/30
g LThigh
f 31/19/19 40/29/29 36/24/24
g Hips
f 6/25/25 36/24/24 8/31/31
g LFoot
f 29/17/17 38/27/27 42/32/32
g LToe
f 29/17/17 42/32/32 37/26/26
g LFoot
f 39/28/28 43/33/33 38/27/27
f 39/28/28 44/34/34 43/33/33
g LThigh
f 41/30/30 45/35/35 40/29/29
g LLeg
f 41/30/30 37/26/26 46/36/36
g LThigh
f 41/30/30 46/36/36 45/35/35
g LLeg
f 37/26/26 42/32/32 46/36/36
g LThigh
f 36/24/24 47/37/37 8/31/31
f 36/24/24 40/29/29 47/37/37
f 40/29/29 45/35/35 47/37/37
g LFoot
f 38/27/27 43/33/33 48/38/38
f 38/27/27 48/38/38 42/32/32
f 44/34/34 49/39/39 43/33/33
f 44/34/34 50/40/40 49/39/39
g LThigh
f 46/36/36 51/41/41 45/35/35
g LLeg
f 46/36/36 42/32/32 52/42/42
f 46/36/36 52/42/42 51/41/41
g LFoot
f 42/32/32 48/38/38 52/42/42
g Hips
f 8/31/31 47/37/37 9/43/43
g LFoot
f 43/33/33 49/39/39 53/44/44
f 43/33/33 53/44/44 48/38/38
f 50/40/40 54/45/45 49/39/39
f 50/40/40 55/46/46 54/45/45
g LThigh
f 45/35/35 51/41/41 56/47/47
f 45/35/35 56/47/47 47/37/37
f 47/37/37 56/47/47 9/43/43
g LLeg
f 52/42/42 48/38/38 57/48/48
g LThigh
f 52/42/42 58/49/49 51/41/41
g LLeg
f 52/42/42 57/48/48 58/49/49
g LFoot
f 48/38/38 53/44/44 57/48/48
f 49/39/39 54/45/45 59/50/50
f 49/39/39 59/50/50 53/44/44
f 55/46/46 60/51/51 54/45/45
f 55/46/46 61/52/52 60/51/51
f 55/46/46 62/53/53 61/52/52
g Hips
f 56/47/47 10/54/54 9/43/43
g LThigh
f 56/47/47 51/41/41 63/55/55
f 56/47/47 63/55/55 10/54/54
f 51/41/41 58/49/49 63/55/55
g LLeg
f 57/48/48 53/44/44 64/56/56
g LThigh
f 57/48/48 65/57/57 58/49/49
g LLeg
f 57/48/48 64/56/56 65/57/57
g LFoot
f 59/50/50 54/45/45 66/58/58
f 59/50/50 67/59/59 53/44/44
f 59/50/50 66/58/58 68/60/60
g LLeg
f 59/50/50 68/60/60 67/59/59
f 53/44/44 67/59/59 64/56/56
g LFoot
f 60/51/51 61/52/52 69/61/61
f 60/51/51 70/62/62 54/45/45
f 60/51/51 69/61/61 70/62/62
f 54/45/45 70/62/62 66/58/58
f 62/53/53 15/63/3 61/52/52
f 62/53/53 13/64/1 15/63/3
g Hips
f 10/54/54 63/55/55 11/65/63
g LThigh
f 58/49/49 65/57/57 71/66/64
f 58/49/49 71/66/64 63/55/55
f 63/55/55 71/66/64 11/65/63
g LLeg
f 68/60/60 72/67/65 67/59/59
f 68/60/60 66/58/58 73/68/66
g LThigh
f 68/60/60 74/69/67 72/67/65
g LLeg
f 68/60/60 73/68/66 74/69/67
g LFoot
f 66/58/58 70/62/62 73/68/66
g LThigh
f 64/56/56 75/70/68 65/57/57
g LLeg
f 64/56/56 67/59/59 76/71/69
g LThigh
f 64/56/56 76/71/69 75/70/68
f 67/59/59 72/67/65 76/71/69
g LFoot
f 69/61/61 61/52/52 18/72/6
f 69/61/61 77/73/70 70/62/62
f 69/61/61 18/72/6 22/74/10
g LLeg
f 69/61/61 22/74/10 77/73/70
g LFoot
f 18/72/6 61/52/52 15/63/3
g LLeg
f 70/62/62 77/73/70 73/68/66
g Hips
f 71/66/64 12/75/71 11/65/63
g LThigh
f 71/66/64 65/57/57 78/76/72
f 71/66/64 78/76/72 12/75/71
f 65/57/57 75/70/68 78/76/72
f 74/69/67 79/77/73 72/67/65
f 74/69/67 73/68/66 80/78/74
f 74/69/67 81/79/75 79/77/73
f 74/69/67 80/78/74 81/79/75
g LLeg
f 73/68/66 77/73/70 80/78/74
g LThigh
f 76/71/69 82/80/76 75/70/68
f 76/71/69 72/67/65 83/81/77
f 76/71/69 84/82/78 82/80/76
f 76/71/69 83/81/77 84/82/78
f 72/67/65 79/77/73 83/81/77
f 75/70/68 82/80/76 78/76/72
g LLeg
f 22/74/10 27/83/15 77/73/70
g LThigh
f 77/73/70 27/83/15 80/78/74
g Hips
f 12/75/71 78/76/72 7/84/79
g LThigh
f 78/76/72 82/80/76 7/84/79
f 81/79/75 5/85/80 79/77/73
f 81/79/75 80/78/74 32/86/20
g Hips
f 81/79/75 6/87/25 5/85/80
g LThigh
f 81/79/75 32/86/20 6/87/25
f 32/86/20 80/78/74 27/83/15
f 84/82/78 83/81/77 2/88/81
f 84/82/78 3/89/82 82/80/76
g Hips
f 84/82/78 2/88/81 3/89/82
f 7/84/79 82/80/76 4/90/83
f 4/90/83 82/80/76 3/89/82
f 79/77/73 5/85/80 1/91/84
g LThigh
f 79/77/73 1/91/84 83/81/77
g Hips
f 83/81/77 1/91/84 2/88/81
s 2
g LToe
f 85/92/85 86/93/86 87/94/87
f 86/93/86 88/95/88 87/94/87
f 86/93/86 89/96/89 88/95/88
f 86/93/86 90/97/90 89/96/89
f 87/94/87 88/95/88 91/98/91
f 90/97/90 92/99/92 89/96/89
f 88/95/88 93/100/93 91/98/91
f 88/95/88 89/96/89 93/100/93
f 92/99/92 94/101/94 89/96/89
f 89/96/89 94/101/94 93/100/93
s 3
f 95/102/95 96/103/96 97/104/97
f 96/103/96 98/105/98 97/104/97
f 96/103/96 99/106/99 98/105/98
f 96/103/96 100/107/100 99/106/99
f 97/104/97 98/105/98 101/108/101
f 97/104/97 101/108/101 102/109/102
f 98/105/98 99/106/99 101/108/101
f 100/107/100 103/110/103 99/106/99
f 101/108/101 99/106/99 104/111/104
f 104/111/104 99/106/99 103/110/103
s 4
f 105/112/105 106/113/106 107/114/107
f 106/113/106 108/115/108 107/114/107
f 106/113/106 109/116/109 108/115/108
f 107/114/107 108/115/108 110/117/110
f 107/114/107 110/117/110 111/118/111
f 109/116/109 112/119/112 108/115/108
f 108/115/108 112/119/112 110/117/110
f 111/118/111 110/117/110 113/120/113
f 112/119/112 114/121/114 110/117/110
f 110/117/110 114/121/114 113/120/113
s 2
f 116/122/115 115/123/116 118/124/117
f 116/122/115 118/124/117 85/125/85
f 117/126/118 119/127/119 115/123/116
f 117/126/118 91/128/91 119/127/119
f 118/124/117 86/129/86 85/125/85
f 118/124/117 115/123/116 120/130/120
f 118/124/117 120/130/120 86/129/86
f 91/128/91 93/131/93 119/127/119
f 115/123/116 121/132/121 120/130/120
f 115/123/116 119/127/119 122/133/122
f 115/123/116 122/133/122 121/132/121
f 119/127/119 93/131/93 122/133/122
f 86/129/86 120/130/120 90/134/90
f 120/130/120 121/132/121 90/134/90
f 93/131/93 94/135/94 122/133/122
f 122/133/122 94/135/94 121/132/121
f 90/134/90 121/132/121 92/136/92
f 92/136/92 121/132/121 94/135/94
s 3
f 103/137/103 100/138/100 123/139/123
f 103/137/103 123/139/123 104/140/104
f 100/138/100 124/141/124 123/139/123
f 100/138/100 96/142/96 124/141/124
f 104/140/104 123/139/123 125/143/125
f 104/140/104 125/143/125 101/144/101
f 96/142/96 126/145/126 124/141/124
f 96/142/96 95/146/95 126/145/126
f 123/139/123 127/147/127 125/143/125
f 123/139/123 124/141/124 127/147/127
f 124/141/124 126/145/126 127/147/127
f 101/144/101 125/143/125 128/148/128
f 101/144/101 128/148/128 102/149/102
f 125/143/125 127/147/127 128/148/128
f 95/146/95 129/150/129 126/145/126
f 126/145/126 129/150/129 127/147/127
f 102/149/102 128/148/128 130/151/130
f 128/148/128 127/147/127 130/151/130
f 129/150/129 131/152/131 127/147/127
f 127/147/127 131/152/131 130/151/130
s 4
f 113/153/113 114/154/114 132/155/132
f 113/153/113 132/155/132 111/156/111
f 114/154/114 133/157/133 132/155/132
f 114/154/114 112/158/112 133/157/133
f 111/156/111 132/155/132 134/159/134
f 111/156/111 134/159/134 107/160/107
f 112/158/112 135/161/135 133/157/133
f 112/158/112 109/162/109 135/161/135
f 132/155/132 136/163/136 134/159/134
f 132/155/132 133/157/133 136/163/136
f 133/157/133 135/161/135 136/163/136
f 107/160/107 134/159/134 137/164/137
f 107/160/107 137/164/137 105/165/105
f 134/159/134 136/163/136 137/164/137
f 135/161/135 138/166/138 136/163/136
f 105/165/105 137/164/137 139/167/139
f 137/164/137 136/163/136 139/167/139
s 1
g LFoot
f 39/168/28 140/169/140 44/170/34
f 39/168/28 34/171/22 140/169/140
f 44/170/34 140/169/140 141/172/140
f 44/170/34 141/172/140 50/173/40
f 34/171/22 142/174/140 140/169/140
f 34/171/22 30/175/18 142/174/140
f 141/172/140 143/176/140 50/173/40
s 0
f 141/172/140 140/169/140 144/177/140
f 141/172/140 144/177/140 143/176/140
s 1
g LToe
f 30/175/18 145/178/140 142/174/140
f 30/175/18 25/179/13 145/178/140
g LFoot
f 50/173/40 143/176/140 55/180/46
s 0
f 140/169/140 146/181/140 144/177/140
f 140/169/140 142/174/140 146/181/140
f 142/174/140 145/178/140 146/181/140
s 1
g LToe
f 25/179/13 147/182/140 145/178/140
f 25/179/13 20/183/8 147/182/140
g LFoot
f 143/176/140 148/184/140 55/180/46
s 0
f 143/176/140 144/177/140 148/184/140
f 146/181/140 145/178/140 149/185/140
f 146/181/140 150/186/140 144/177/140
f 146/181/140 149/185/140 151/187/140
f 146/181/140 152/188/140 150/186/140
f 146/181/140 151/187/140 152/188/140
f 144/177/140 150/186/140 148/184/140
g LToe
f 145/178/140 147/182/140 149/185/140
s 1
f 20/183/8 153/189/140 147/182/140
f 20/183/8 17/190/5 153/189/140
s 0
f 147/182/140 153/189/140 149/185/140
s 1
g LFoot
f 55/180/46 148/184/140 62/191/53
f 148/184/140 150/186/140 62/191/53
f 151/187/140 13/192/1 152/188/140
g LToe
f 151/187/140 17/190/5 14/193/2
s 0
f 151/187/140 149/185/140 154/194/140
s 1
f 151/187/140 14/193/2 13/192/1
f 151/187/140 154/194/140 17/190/5
f 154/194/140 153/189/140 17/190/5
s 0
f 154/194/140 149/185/140 153/189/140
s 1
g LFoot
f 13/192/1 150/186/140 152/188/140
f 13/192/1 62/191/53 150/186/140
