# Blender 4.5.2 LTS
# www.blender.org
mtllib pDerEntre.mtl
g Entrenador.003_Mesh
v -2.158788 -1.151783 0.060043
v -2.007487 -1.204505 1.108577
v -1.280512 -1.624122 1.693237
v 0.073919 -1.043214 2.738112
v 1.997297 0.282871 1.826064
v 2.021676 0.828834 -0.103852
v 1.272291 1.245231 -1.633105
v -0.073919 1.043214 -2.738112
v -1.916274 -1.011022 0.798590
v -1.916919 -1.472746 -0.568057
v -1.817150 -0.947729 -1.583452
v -1.343917 -0.507481 -2.110307
v -1.465895 -0.889250 -2.187821
v -1.517299 -2.566966 0.772431
v 0.409566 -2.093561 1.997649
v -0.227908 -5.132965 -1.730983
v 2.355096 -6.712998 -0.864556
v 0.640690 -7.359232 -2.989230
v 2.137137 -0.990780 0.836532
v 4.754941 -5.373658 -2.222552
v 4.819807 -5.062053 -4.318532
v 3.065470 -8.177738 -1.973346
v 1.457963 -9.000719 -3.075789
v 4.996239 -7.712894 -2.795746
v 5.370097 -7.533631 -3.710486
v 5.231950 -7.508479 -4.571922
v 3.464529 -6.472207 -6.561970
v 4.119833 -8.463028 -6.359466
v 1.744390 0.689452 -1.963139
v 2.693426 -4.776326 -5.675091
v 0.367994 0.358959 -3.161308
v -1.076677 -1.597905 -2.704350
v 0.934470 -6.165512 -5.301741
v 1.810126 -8.525306 -5.926498
vn -0.3296 -0.7934 0.5118
vn -0.1527 -0.9740 -0.1674
vn -0.2341 -0.9654 -0.1146
vn -0.4685 -0.8822 0.0478
vn -0.1732 -0.9845 -0.0286
vn -0.8791 -0.4619 -0.1176
vn -0.8172 0.4547 -0.3541
vn -0.2480 0.3999 -0.8824
vn -0.7926 0.4239 -0.4384
vn -0.8020 0.1323 -0.5825
vn 0.0661 -0.9212 -0.3834
vn -0.7762 -0.5454 -0.3164
vn -0.1481 0.1426 -0.9786
vn -0.8013 -0.0423 -0.5968
vn -0.8791 -0.4618 -0.1176
vn -0.6009 -0.7989 -0.0270
vn -0.8133 -0.4948 0.3061
vn -0.7966 -0.5343 0.2826
vn -0.4480 -0.6156 0.6483
vn -0.4619 -0.5712 0.6785
vn -0.7966 -0.5344 0.2826
vn -0.0201 -0.5952 0.8033
vn -0.8163 -0.5293 0.2313
vn 0.3272 -0.5462 0.7711
vn 0.1067 -0.4868 0.8670
vn -0.8338 -0.4812 0.2705
vn 0.8432 -0.0607 0.5342
vn 0.8429 -0.2879 0.4546
vn 0.9390 0.3438 0.0020
vn 0.8723 0.0751 0.4831
vn 0.8818 0.4032 -0.2448
vn -0.0926 -0.5622 0.8218
vn -0.7663 -0.4033 0.5001
vn 0.7752 0.0186 0.6315
vn 0.9811 0.1849 0.0574
vn 0.8790 0.1989 -0.4333
vn 0.2152 0.2378 -0.9472
vn 0.3781 0.0569 -0.9240
vn 0.6080 0.6288 -0.4847
vn 0.5993 0.7109 -0.3680
vn 0.0258 0.4661 -0.8843
vn -0.0741 0.4915 -0.8677
vn -0.0376 0.0930 -0.9950
vn -0.8020 0.1322 -0.5826
vn -0.8170 -0.1105 -0.5660
vn -0.7714 -0.0268 -0.6357
vn -0.6615 -0.0780 -0.7459
vn -0.7164 -0.6915 0.0931
vt 0.687535 0.915888
vt 0.683605 0.883905
vt 0.714242 0.883259
vt 0.678920 0.859944
vt 0.717580 0.863229
vt 0.952233 0.892251
vt 0.899035 0.936511
vt 0.923642 0.900112
vt 0.899466 0.876959
vt 0.963756 0.865867
vt 0.899789 0.863336
vt 0.400331 0.964940
vt 0.404369 0.937480
vt 0.416053 0.959879
vt 0.451160 0.953471
vt 0.405769 0.910665
vt 0.452291 0.970163
vt 0.455575 0.876905
vt 0.406631 0.871844
vt 0.493643 0.962033
vt 0.492512 0.990624
vt 0.519757 0.985293
vt 0.498489 0.877659
vt 0.525249 0.871790
vt 0.452506 0.849176
vt 0.405177 0.846968
vt 0.497573 0.840991
vt 0.510011 0.841099
vt 0.522449 0.841153
vt 0.567732 0.854829
vt 0.563748 0.830653
vt 0.545495 0.989278
vt 0.545441 0.993585
vt 0.566332 0.875505
vt 0.564986 0.979801
vt 0.570317 0.984163
vt 0.593631 0.972748
vt 0.593954 0.954871
vt 0.613608 0.965317
vt 0.599500 0.869367
vt 0.600523 0.840560
vt 0.642037 0.937480
vt 0.627015 0.964940
vt 0.636276 0.910665
vt 0.646506 0.871844
vt 0.647368 0.846968
s 1
g off
g Entrenador.003_trainer_body
usemtl trainer_body
f 3/1/1 2/2/2 9/3/3
s 2
f 9/3/4 1/4/5 10/5/6
s 3
f 11/6/7 8/7/8 12/8/9
f 12/8/9 13/9/10 11/6/7
s 4
f 11/6/11 13/9/12 1/10/5
s 3
f 12/8/9 8/7/13 13/9/10
s 5
f 13/9/14 10/11/15 1/10/16
s 6
f 9/12/17 14/13/18 3/14/19
s 5
f 3/14/20 14/13/21 15/15/22
f 14/13/21 16/16/23 15/15/22
f 3/14/20 15/15/22 4/17/24
f 15/15/22 16/16/23 17/18/25
f 16/16/23 18/19/26 17/18/25
f 15/15/22 19/20/27 4/17/24
f 15/15/22 17/18/25 19/20/27
f 4/17/24 19/20/27 5/21/28
f 5/21/28 19/20/27 6/22/29
f 19/20/27 17/18/25 20/23/30
f 19/20/27 21/24/31 6/22/29
f 19/20/27 20/23/30 21/24/31
f 17/18/25 18/19/26 22/25/32
f 18/19/26 23/26/33 22/25/32
f 17/18/25 24/27/34 20/23/30
f 17/18/25 22/25/32 24/27/34
f 20/23/30 25/28/35 21/24/31
f 20/23/30 24/27/34 25/28/35
f 25/28/35 26/29/36 21/24/31
f 26/29/36 27/30/37 21/24/31
f 26/29/36 28/31/38 27/30/37
f 21/24/31 29/32/39 6/22/29
f 6/22/29 29/32/39 7/33/40
f 21/24/31 27/30/37 30/34/41
f 21/24/31 30/34/41 29/32/39
f 29/32/39 31/35/42 7/33/40
f 29/32/39 30/34/41 31/35/42
f 7/33/40 31/35/42 8/36/43
f 8/36/43 31/35/42 13/37/44
f 31/35/42 30/34/41 32/38/45
f 31/35/42 32/38/45 13/37/44
f 13/37/14 32/38/45 10/39/15
f 30/34/41 27/30/37 33/40/46
f 30/34/41 33/40/46 32/38/45
f 27/30/37 28/31/38 34/41/47
f 27/30/37 34/41/47 33/40/46
f 32/38/45 14/42/21 10/39/15
f 10/39/15 14/42/21 9/43/48
f 14/42/21 32/38/45 16/44/23
f 32/38/45 33/40/46 16/44/23
f 16/44/23 33/40/46 18/45/26
f 33/40/46 34/41/47 18/45/26
f 18/45/26 34/41/47 23/46/33
