# Blender 4.5.2 LTS
# www.blender.org
mtllib pDerJames.mtl
g Pierna_Der_Mesh
v -4.399996 -7.331049 9.811399
v -4.399916 -9.829825 8.646222
v -1.269713 0.483881 9.540604
v 2.039364 0.539258 8.924438
v 2.167911 -3.451189 9.862487
v -1.328478 -3.335718 10.108061
v -1.397140 -7.345973 9.968521
v -1.727836 -9.734870 8.613870
v 1.337742 -10.199004 8.684128
v 2.039742 -7.308516 9.845572
v -1.445907 -11.915915 6.933448
v -2.352471 -11.360877 6.881175
v -2.569109 -12.234363 5.456186
v -4.395825 -12.179240 3.001064
v -4.398696 -11.386867 6.721348
v 0.782865 -11.479159 8.153256
v -2.680006 -12.585555 4.899210
v -4.397755 -11.474172 -5.669341
v -4.396663 -11.922207 -1.528174
v -3.373795 -13.227657 -1.212195
v -3.036344 -12.214005 -5.448498
v -3.263271 -10.647302 -7.730863
v -2.663481 -9.522745 -8.942624
v -1.911217 -11.698068 -6.924336
v -2.278718 -10.237332 -8.175102
v -0.263421 -10.000432 -8.650807
v 0.219180 -7.406019 -9.627522
v -4.396663 -11.922207 -1.528174
v -3.373795 -13.227657 -1.212195
v -2.746145 -13.144279 3.535347
v 2.039364 0.539258 8.924438
v 5.106251 0.429952 7.218940
v 5.513827 -3.375430 8.009863
v 2.167911 -3.451189 9.862487
v 7.815479 -6.020724 5.767442
v 7.764338 0.039433 3.785522
v 4.981620 -7.329348 8.728168
v 2.039742 -7.308516 9.845572
v 4.562152 -10.917998 8.107419
v 1.337742 -10.199004 8.684128
v 8.411147 -10.358966 4.966810
v 10.380287 -9.717758 -0.344278
v 9.799941 -5.087780 -0.208453
v 9.358081 -5.228817 -4.375922
v 9.817025 -9.256261 -4.868238
v 7.200764 -5.526704 -7.978517
v 7.016707 -0.012593 -6.958608
v 4.316521 -0.305139 -8.696873
v 3.537755 -6.078596 -9.269408
v 8.653837 0.102405 -3.631547
v 1.269712 -0.483884 -9.540604
v 0.442832 -5.619115 -9.683600
v 7.356061 -10.023381 -7.503874
v 9.032702 0.215900 0.042104
v 0.219180 -7.406019 -9.627522
v 4.055916 -10.110949 -8.852766
v 9.966808 -17.899803 -3.692120
v 7.706572 -18.341219 -6.250773
v 4.524380 -18.587538 -7.316739
v -0.263421 -10.000432 -8.650807
v -0.312774 -19.050659 -5.236847
v -1.911217 -11.698068 -6.924336
v -3.036344 -12.214005 -5.448498
v -2.007643 -21.724602 0.539214
v -3.373795 -13.227657 -1.212195
v 0.290300 -28.584690 -3.127357
v 4.713076 -28.380905 -5.365001
v 0.860063 -36.195457 -1.242429
v -1.183161 -35.826851 2.830993
v -1.486747 -28.992420 1.791533
v 4.749220 -36.469330 -3.681051
v 0.875291 -39.760315 -0.517104
v 4.881180 -40.233955 -3.043875
v 7.815461 -36.329086 -2.970690
v 6.789658 -40.105869 -2.596126
v 7.673087 -28.278370 -4.502065
v 4.961156 -42.271824 -2.552894
v 7.022985 -42.232670 -2.112077
v 4.984982 -44.059078 -2.408339
v 6.834566 -43.849209 -1.801337
v 0.947918 -41.638752 -0.001205
v 9.763103 -28.076496 -2.139852
v 10.506802 -27.800331 1.499831
v 9.997250 -36.003067 -0.495205
v 10.556361 -35.443066 3.081239
v 8.224981 -34.858696 6.524005
v 8.136137 -40.275368 7.437121
v 5.105821 -40.269505 7.963754
v 4.813576 -34.830826 7.627616
v 8.629075 -27.680567 5.876967
v 4.652533 -28.570265 7.669478
v 9.985405 -39.545303 4.091563
v 9.865705 -39.372341 0.737197
v 9.356624 -41.380283 1.460494
v 10.054645 -40.701797 4.317185
v 10.409470 -42.859379 4.540328
v 9.611326 -43.373661 1.816915
v 8.847638 -18.095245 5.308444
v 4.612032 -21.603651 7.608748
v 4.376317 -15.315860 7.679672
v 0.111941 -13.143184 7.255682
v 0.464650 -21.807116 6.818114
v -2.746145 -13.144279 3.535347
v -1.678203 -21.844189 3.876476
v -3.373795 -13.227657 -1.212195
v -2.007643 -21.724602 0.539214
v 0.189197 -28.853260 5.774750
v -1.486747 -28.992420 1.791533
v -1.183161 -35.826851 2.830993
v 1.108815 -35.263721 6.113492
v 1.402683 -40.205025 6.907279
v -0.966036 -39.297169 3.404390
v -0.882679 -41.266216 3.809046
v 1.496293 -41.443150 7.008115
v 5.077057 -40.998806 7.883025
v 1.342395 -42.357708 7.408916
v 5.017410 -41.859432 8.356051
v 4.984630 -42.648617 8.340265
v 8.266864 -41.786694 7.569890
v 8.247084 -42.616322 7.430954
v 1.434622 -42.773518 7.347707
v -1.156946 -43.195187 4.138113
v 8.138250 -41.138226 7.409222
v 8.293120 -43.711903 0.145345
v 7.988582 -43.651684 -0.883364
v -1.156946 -43.195187 4.138113
v 1.089347 -43.741169 0.622478
v 2.815079 -43.922474 -1.083752
v 2.303586 -43.038151 -0.733414
v -0.882679 -41.266216 3.809046
v -0.966036 -39.297169 3.404390
v 0.782865 -11.479159 8.153256
v 0.507237 -12.071445 7.760180
v 4.509958 -11.673850 7.928969
v 0.187259 -12.733348 7.528596
v 4.515239 -12.502830 7.910915
v 10.729372 -17.824696 0.294805
v 8.163010 -39.898056 -2.197525
v 8.159345 -42.118313 -1.512911
v 8.725817 -42.739277 0.697733
v -0.773447 -12.225066 7.138572
v 0.507237 -12.071445 7.760180
v -2.740506 -12.827788 4.417616
v 0.187259 -12.733348 7.528596
v 0.111941 -13.143184 7.255682
v 2.342418 -49.877895 0.590377
v 2.096711 -50.313183 0.331401
v 0.028498 -49.872112 4.491195
v -0.377129 -50.299313 4.482485
vn -0.0272 -0.3084 0.9509
vn 0.0136 -0.6041 0.7968
vn 0.1296 0.1928 0.9726
vn 0.1744 0.2306 0.9573
vn 0.0951 0.0880 0.9916
vn 0.0447 0.0471 0.9979
vn -0.0234 -0.2520 0.9674
vn -0.0693 -0.5707 0.8182
vn -0.1269 -0.4405 0.8887
vn 0.0458 -0.1886 0.9810
vn -0.4143 -0.6271 0.6597
vn -0.2698 -0.7683 0.5805
vn -0.5771 -0.6442 0.5020
vn -0.5280 -0.8282 0.1879
vn -0.0213 -0.9072 0.4202
vn -0.4302 -0.2245 0.8744
vn -0.5377 -0.6968 0.4748
vn -0.4409 -0.8200 -0.3650
vn -0.7774 -0.6254 -0.0675
vn -0.7051 -0.7000 -0.1134
vn -0.3855 -0.8388 -0.3845
vn -0.1612 -0.7414 -0.6514
vn -0.0130 -0.6266 -0.7792
vn -0.2094 -0.7456 -0.6326
vn -0.0566 -0.7052 -0.7067
vn -0.0150 -0.5190 -0.8546
vn 0.0420 -0.3588 -0.9325
vn -0.7825 -0.6216 -0.0351
vn -0.7315 -0.6818 -0.0078
vn -0.5115 -0.8261 0.2363
vn 0.4744 0.2221 0.8518
vn 0.6467 0.2185 0.7307
vn 0.6441 0.1574 0.7486
vn 0.4498 0.1281 0.8839
vn 0.8371 0.0564 0.5442
vn 0.8836 0.1539 0.4422
vn 0.5673 -0.0951 0.8180
vn 0.2904 -0.1601 0.9434
vn 0.3987 -0.2515 0.8819
vn 0.0747 -0.3984 0.9142
vn 0.8111 0.0202 0.5845
vn 0.9907 0.0802 0.1099
vn 0.9855 0.1280 0.1111
vn 0.9384 0.1461 -0.3130
vn 0.9107 0.0342 -0.4117
vn 0.6113 0.0500 -0.7898
vn 0.7362 0.1685 -0.6555
vn 0.3739 0.0999 -0.9221
vn 0.2419 -0.0231 -0.9700
vn 0.9505 0.1633 -0.2644
vn 0.2239 0.0436 -0.9736
vn 0.1297 -0.0203 -0.9914
vn 0.5681 -0.0807 -0.8190
vn 0.9834 0.1366 0.1191
vn 0.0685 -0.1645 -0.9840
vn 0.1935 -0.1390 -0.9712
vn 0.8980 -0.0612 -0.4356
vn 0.5612 -0.1300 -0.8174
vn 0.0032 -0.2225 -0.9749
vn -0.1913 -0.2935 -0.9366
vn -0.6522 -0.2947 -0.6984
vn -0.5966 -0.3005 -0.7442
vn -0.8311 -0.2885 -0.4754
vn -0.9253 -0.1844 -0.3314
vn -0.9758 -0.1819 -0.1213
vn -0.7231 -0.1884 -0.6645
vn -0.0896 -0.2024 -0.9752
vn -0.7303 -0.1671 -0.6624
vn -0.9027 -0.1268 -0.4112
vn -0.9321 -0.1080 -0.3457
vn -0.1695 -0.1875 -0.9675
vn -0.7454 -0.1716 -0.6441
vn -0.1667 -0.2063 -0.9642
vn 0.5158 -0.1410 -0.8450
vn 0.2602 -0.1801 -0.9486
vn 0.5346 -0.1480 -0.8321
vn -0.1776 -0.1520 -0.9723
vn 0.3511 -0.2026 -0.9141
vn -0.1494 -0.1144 -0.9821
vn 0.4392 -0.2573 -0.8608
vn -0.7515 -0.1809 -0.6345
vn 0.8923 -0.0760 -0.4450
vn 0.9940 -0.0073 0.1088
vn 0.9154 -0.1001 -0.3900
vn 0.9786 -0.0091 0.2056
vn 0.6088 0.0860 0.7886
vn 0.5302 0.0650 0.8454
vn -0.0229 -0.0010 0.9997
vn -0.0228 0.0527 0.9983
vn 0.7097 0.0160 0.7043
vn 0.0115 0.0068 0.9999
vn 0.9802 -0.0215 0.1968
vn 0.9458 -0.2141 -0.2442
vn 0.9395 -0.1280 -0.3178
vn 0.9805 0.1311 0.1463
vn 0.9837 0.1314 0.1229
vn 0.8879 0.0314 -0.4590
vn 0.7539 0.0393 0.6559
vn 0.1420 -0.0285 0.9895
vn 0.2153 -0.0238 0.9762
vn -0.4801 -0.2411 0.8434
vn -0.5179 -0.0883 0.8508
vn -0.9246 -0.0952 0.3688
vn -0.9321 -0.1380 0.3350
vn -0.9850 -0.1214 0.1227
vn -0.9797 -0.1460 0.1370
vn -0.7024 -0.0378 0.7108
vn -0.9218 0.0086 0.3876
vn -0.8416 -0.0032 0.5401
vn -0.6260 0.0191 0.7796
vn -0.5718 0.0656 0.8178
vn -0.8200 0.0576 0.5694
vn -0.8195 0.1513 0.5527
vn -0.5446 0.2097 0.8121
vn -0.0475 0.1896 0.9807
vn -0.5673 0.1014 0.8172
vn -0.0332 0.2335 0.9718
vn -0.0142 -0.0370 0.9992
vn 0.5729 0.0984 0.8137
vn 0.5730 -0.1486 0.8060
vn -0.5141 -0.2354 0.8248
vn -0.8061 0.1682 0.5674
vn 0.5331 0.1345 0.8353
vn 0.9030 -0.1844 -0.3881
vn 0.8187 -0.2972 -0.4913
vn -0.8869 -0.0272 -0.4612
vn -0.7646 -0.2140 -0.6079
vn -0.6000 -0.0526 -0.7983
vn -0.6178 -0.1161 -0.7777
vn -0.9021 -0.0301 -0.4305
vn -0.9018 -0.1273 -0.4130
vn 0.0882 -0.5247 0.8467
vn 0.0221 -0.3988 0.9168
vn 0.3076 -0.1347 0.9419
vn -0.1708 -0.3330 0.9274
vn 0.2940 -0.0608 0.9539
vn 0.9961 0.0128 0.0872
vn 0.6366 -0.1941 -0.7463
vn 0.7608 -0.2347 -0.6051
vn 0.5017 0.2420 -0.8305
vn -0.4862 -0.4886 0.7245
vn -0.3843 -0.3120 0.8689
vn -0.4770 -0.7965 0.3716
vn -0.5718 -0.2971 0.7647
vn -0.7675 -0.2516 0.5897
vn -0.6747 0.6195 -0.4012
vn -0.6736 0.6210 -0.4008
vn -0.6625 0.6353 -0.3968
vn -0.6617 0.6364 -0.3965
vt 0.626321 0.042657
vt 0.643278 0.043440
vt 0.625339 0.065600
vt 0.643188 0.065244
vt 0.659031 0.082718
vt 0.644208 0.080868
vt 0.647176 0.093475
vt 0.660431 0.096054
vt 0.631255 0.094730
vt 0.626699 0.080650
vt 0.646796 0.104690
vt 0.651723 0.103999
vt 0.649681 0.110955
vt 0.653033 0.124113
vt 0.661660 0.107433
vt 0.634021 0.099288
vt 0.649519 0.112615
vt 0.851612 0.130870
vt 0.844356 0.132744
vt 0.835185 0.116916
vt 0.842616 0.115795
vt 0.839787 0.105430
vt 0.847239 0.109859
vt 0.844646 0.102114
vt 0.843021 0.097505
vt 0.854582 0.099755
vt 0.858211 0.087331
vt 0.636027 0.134186
vt 0.634024 0.127794
vt 0.648634 0.117177
vt 0.705163 0.071900
vt 0.706906 0.046342
vt 0.690325 0.045408
vt 0.688243 0.071049
vt 0.718998 0.082787
vt 0.727086 0.048419
vt 0.700958 0.088582
vt 0.687590 0.086859
vt 0.700352 0.108955
vt 0.685905 0.103931
vt 0.721766 0.107057
vt 0.745520 0.104492
vt 0.745871 0.078257
vt 0.763766 0.078311
vt 0.764502 0.100715
vt 0.781934 0.078643
vt 0.779728 0.047557
vt 0.795084 0.048196
vt 0.798958 0.080654
vt 0.762443 0.047492
vt 0.810188 0.048617
vt 0.813202 0.078008
vt 0.779437 0.103541
vt 0.745409 0.047295
vt 0.813552 0.087836
vt 0.794271 0.102327
vt 0.758355 0.167438
vt 0.772550 0.167815
vt 0.786389 0.169003
vt 0.814053 0.103250
vt 0.808844 0.174790
vt 0.821937 0.115722
vt 0.828625 0.122070
vt 0.830186 0.183137
vt 0.840399 0.139107
vt 0.806478 0.234159
vt 0.784778 0.232852
vt 0.812443 0.264376
vt 0.833660 0.262563
vt 0.828558 0.235027
vt 0.789087 0.266938
vt 0.817399 0.287668
vt 0.791280 0.291615
vt 0.773446 0.267765
vt 0.781202 0.291890
vt 0.771493 0.233865
vt 0.792509 0.305044
vt 0.780742 0.305531
vt 0.793461 0.316202
vt 0.782410 0.316218
vt 0.820164 0.299901
vt 0.758161 0.235160
vt 0.742222 0.235777
vt 0.757177 0.268664
vt 0.739462 0.268560
vt 0.718252 0.265114
vt 0.715617 0.301300
vt 0.697721 0.298548
vt 0.699306 0.263255
vt 0.720499 0.235197
vt 0.700016 0.235355
vt 0.737070 0.296069
vt 0.754868 0.292061
vt 0.754564 0.305616
vt 0.737057 0.303637
vt 0.737831 0.317551
vt 0.754982 0.318328
vt 0.721597 0.170538
vt 0.699986 0.177823
vt 0.699359 0.137146
vt 0.680793 0.123409
vt 0.682379 0.178385
vt 0.660286 0.129781
vt 0.667052 0.178826
vt 0.640703 0.138926
vt 0.652643 0.178596
vt 0.677796 0.234424
vt 0.657364 0.233138
vt 0.654996 0.261003
vt 0.677018 0.262216
vt 0.675972 0.293108
vt 0.653452 0.280902
vt 0.652430 0.291955
vt 0.674793 0.300390
vt 0.697032 0.302913
vt 0.673840 0.306278
vt 0.696105 0.308797
vt 0.695264 0.313763
vt 0.715398 0.311024
vt 0.715639 0.316187
vt 0.673454 0.308657
vt 0.649242 0.302082
vt 0.715495 0.306715
vt 0.811959 0.309181
vt 0.808834 0.314892
vt 0.823314 0.313657
vt 0.850390 0.308430
vt 0.846240 0.296224
vt 0.840206 0.285163
vt 0.683796 0.112324
vt 0.682869 0.116455
vt 0.700294 0.113856
vt 0.681940 0.120596
vt 0.700235 0.118983
vt 0.742837 0.168153
vt 0.773145 0.291435
vt 0.773313 0.305697
vt 0.762439 0.313014
vt 0.768054 0.318289
vt 0.773557 0.316406
vt 0.643075 0.104527
vt 0.635779 0.101782
vt 0.649386 0.113968
vt 0.637542 0.104282
vt 0.637632 0.105976
vt 0.281954 0.559850
vt 0.287277 0.559729
vt 0.281954 0.543107
vt 0.287277 0.543107
s 1
g Center
g Pierna_Der_James_Mat
usemtl James_Mat
f 4/1/4 3/2/3 5/3/5
f 3/2/3 6/4/6 5/3/5
g Hips
f 1/5/1 7/6/7 6/4/6
f 8/7/8 7/6/7 1/5/1
f 2/8/2 8/7/8 1/5/1
f 7/6/7 8/7/8 9/9/9
f 10/10/10 7/6/7 9/9/9
g Center
f 10/10/10 5/3/5 6/4/6
g Hips
f 7/6/7 10/10/10 6/4/6
f 11/11/11 9/9/9 8/7/8
f 8/7/8 12/12/12 11/11/11
f 12/12/12 8/7/8 2/8/2
f 13/13/13 11/11/11 12/12/12
f 14/14/14 13/13/13 12/12/12
f 15/15/15 14/14/14 12/12/12
f 15/15/15 12/12/12 2/8/2
f 11/11/11 16/16/16 9/9/9
f 14/14/14 17/17/17 13/13/13
s 2
f 20/18/20 19/19/19 18/20/18
f 21/21/21 20/18/20 18/20/18
f 21/21/21 18/20/18 22/22/22
g R_Hip
f 24/23/24 21/21/21 22/22/22
f 25/24/25 24/23/24 22/22/22
f 25/24/25 22/22/22 23/25/23
f 25/24/25 26/26/26 24/23/24
f 26/26/26 25/24/25 23/25/23
f 26/26/26 23/25/23 27/27/27
s 1
g Hips
f 14/14/14 28/28/28 29/29/29
f 30/30/30 14/14/14 29/29/29
s 3
g Center
f 33/31/33 32/32/32 31/33/31
f 34/34/34 33/31/33 31/33/31
g R_Hip
f 32/32/32 33/31/33 35/35/35
f 36/36/36 32/32/32 35/35/35
g Center
f 33/31/33 34/34/34 37/37/37
g R_Hip
f 33/31/33 37/37/37 35/35/35
g Hips
f 34/34/34 38/38/38 37/37/37
f 37/37/37 38/38/38 39/39/39
g R_Hip
f 35/35/35 37/37/37 39/39/39
g Hips
f 38/38/38 40/40/40 39/39/39
g R_Hip
f 41/41/41 35/35/35 39/39/39
f 41/41/41 42/42/42 35/35/35
f 42/42/42 43/43/43 35/35/35
f 35/35/35 43/43/43 36/36/36
f 44/44/44 43/43/43 42/42/42
f 45/45/45 44/44/44 42/42/42
f 44/44/44 45/45/45 46/46/46
f 44/44/44 46/46/46 47/47/47
f 47/47/47 46/46/46 48/48/48
f 46/46/46 49/49/49 48/48/48
f 50/50/50 44/44/44 47/47/47
f 43/43/43 44/44/44 50/50/50
f 48/48/48 49/49/49 51/51/51
f 49/49/49 52/52/52 51/51/51
f 45/45/45 53/53/53 46/46/46
f 46/46/46 53/53/53 49/49/49
f 54/54/54 43/43/43 50/50/50
f 43/43/43 54/54/54 36/36/36
f 52/52/52 49/49/49 55/55/55
f 53/53/53 56/56/56 49/49/49
f 55/55/55 49/49/49 56/56/56
f 53/53/53 45/45/45 57/57/57
f 58/58/58 53/53/53 57/57/57
f 56/56/56 53/53/53 58/58/58
f 59/59/59 56/56/56 58/58/58
f 60/60/60 56/56/56 59/59/59
f 61/61/61 60/60/60 59/59/59
f 62/62/62 60/60/60 61/61/61
f 63/63/63 62/62/62 61/61/61
f 61/61/61 64/64/64 63/63/63
f 64/64/64 65/65/65 63/63/63
f 66/66/66 61/61/61 59/59/59
f 61/61/61 66/66/66 64/64/64
f 67/67/67 66/66/66 59/59/59
f 68/68/68 66/66/66 67/67/67
f 68/68/68 69/69/69 66/66/66
f 69/69/69 70/70/70 66/66/66
f 66/66/66 70/70/70 64/64/64
f 71/71/71 68/68/68 67/67/67
f 68/68/68 71/71/71 72/72/72
f 69/69/69 68/68/68 72/72/72
f 71/71/71 73/73/73 72/72/72
f 73/73/73 71/71/71 74/74/74
f 71/71/71 67/67/67 74/74/74
f 75/75/75 73/73/73 74/74/74
f 67/67/67 76/76/76 74/74/74
g R_Knee
f 77/77/77 73/73/73 75/75/75
f 78/78/78 77/77/77 75/75/75
f 77/77/77 78/78/78 79/79/79
f 78/78/78 80/80/80 79/79/79
f 81/81/81 72/72/72 73/73/73
f 77/77/77 81/81/81 73/73/73
g R_Hip
f 58/58/58 76/76/76 67/67/67
f 59/59/59 58/58/58 67/67/67
f 76/76/76 58/58/58 57/57/57
f 82/82/82 76/76/76 57/57/57
f 76/76/76 82/82/82 74/74/74
f 83/83/83 82/82/82 57/57/57
f 84/84/84 82/82/82 83/83/83
f 82/82/82 84/84/84 74/74/74
f 85/85/85 84/84/84 83/83/83
f 85/85/85 83/83/83 86/86/86
f 85/85/85 86/86/86 87/87/87
g R_Knee
f 87/87/87 86/86/86 88/88/88
g R_Hip
f 86/86/86 89/89/89 88/88/88
f 89/89/89 86/86/86 90/90/90
f 83/83/83 90/90/90 86/86/86
f 91/91/91 89/89/89 90/90/90
f 92/92/92 85/85/85 87/87/87
f 85/85/85 92/92/92 84/84/84
f 92/92/92 93/93/93 84/84/84
g R_Knee
f 94/94/94 93/93/93 92/92/92
f 95/95/95 94/94/94 92/92/92
f 95/95/95 92/92/92 87/87/87
f 95/95/95 96/96/96 94/94/94
f 95/95/95 87/87/87 96/96/96
f 96/96/96 97/97/97 94/94/94
g R_Hip
f 91/91/91 90/90/90 98/98/98
f 98/98/98 90/90/90 83/83/83
f 99/99/99 91/91/91 98/98/98
f 99/99/99 98/98/98 100/100/100
f 99/99/99 100/100/100 101/101/101
f 102/102/102 99/99/99 101/101/101
f 102/102/102 101/101/101 103/103/103
f 104/104/104 102/102/102 103/103/103
f 103/103/103 105/105/105 104/104/104
f 105/105/105 106/106/106 104/104/104
f 104/104/104 106/106/106 107/107/107
f 104/104/104 107/107/107 102/102/102
f 102/102/102 107/107/107 99/99/99
f 106/106/106 108/108/108 107/107/107
f 107/107/107 108/108/108 109/109/109
f 110/110/110 107/107/107 109/109/109
f 111/111/111 110/110/110 109/109/109
f 112/112/112 111/111/111 109/109/109
g R_Knee
f 111/111/111 112/112/112 113/113/113
g R_Hip
f 107/107/107 91/91/91 99/99/99
f 89/89/89 91/91/91 107/107/107
f 110/110/110 89/89/89 107/107/107
f 89/89/89 110/110/110 111/111/111
g R_Knee
f 88/88/88 89/89/89 111/111/111
f 88/88/88 111/111/111 114/114/114
f 115/115/115 88/88/88 114/114/114
f 115/115/115 114/114/114 116/116/116
f 117/117/117 115/115/115 116/116/116
f 117/117/117 116/116/116 118/118/118
f 117/117/117 118/118/118 119/119/119
f 118/118/118 120/120/120 119/119/119
f 119/119/119 120/120/120 96/96/96
f 116/116/116 121/121/121 118/118/118
f 116/116/116 122/122/122 121/121/121
f 116/116/116 114/114/114 122/122/122
f 123/123/123 119/119/119 96/96/96
f 117/117/117 119/119/119 123/123/123
f 115/115/115 117/117/117 123/123/123
f 129/124/129 128/125/128 127/126/127
f 81/81/81 129/124/129 127/126/127
f 81/81/81 127/126/127 126/127/126
f 130/128/130 81/81/81 126/127/126
f 131/129/131 81/81/81 130/128/130
f 131/129/131 72/72/72 81/81/81
g R_Hip
f 131/129/131 69/69/69 72/72/72
g R_Knee
f 77/77/77 79/79/79 128/125/128
f 129/124/129 77/77/77 128/125/128
f 129/124/129 81/81/81 77/77/77
g R_Hip
f 39/39/39 40/40/40 132/130/132
f 39/39/39 132/130/132 133/131/133
f 134/132/134 39/39/39 133/131/133
f 39/39/39 134/132/134 41/41/41
f 134/132/134 133/131/133 135/133/135
f 136/134/136 134/132/134 135/133/135
f 134/132/134 136/134/136 41/41/41
f 136/134/136 135/133/135 100/100/100
f 136/134/136 100/100/100 41/41/41
f 135/133/135 101/101/101 100/100/100
f 100/100/100 98/98/98 41/41/41
f 42/42/42 41/41/41 98/98/98
f 137/135/137 42/42/42 98/98/98
f 45/45/45 42/42/42 137/135/137
f 57/57/57 45/45/45 137/135/137
f 137/135/137 98/98/98 83/83/83
f 137/135/137 83/83/83 57/57/57
f 60/60/60 55/55/55 56/56/56
f 84/84/84 93/93/93 138/136/138
f 74/74/74 84/84/84 138/136/138
g R_Knee
f 138/136/138 93/93/93 94/94/94
f 139/137/139 138/136/138 94/94/94
f 139/137/139 94/94/94 140/138/140
f 140/138/140 94/94/94 124/139/124
f 94/94/94 97/97/97 124/139/124
f 140/138/140 124/139/124 125/140/125
f 139/137/139 140/138/140 125/140/125
g R_Hip
f 138/136/138 75/75/75 74/74/74
g R_Knee
f 78/78/78 75/75/75 138/136/138
f 139/137/139 78/78/78 138/136/138
f 139/137/139 125/140/125 80/80/80
f 78/78/78 139/137/139 80/80/80
f 87/87/87 123/123/123 96/96/96
f 115/115/115 123/123/123 87/87/87
f 88/88/88 115/115/115 87/87/87
f 111/111/111 113/113/113 122/122/122
f 114/114/114 111/111/111 122/122/122
s 1
g Hips
f 17/17/17 141/141/141 11/11/11
f 13/13/13 17/17/17 11/11/11
g R_Hip
f 11/11/11 141/141/141 16/16/16
f 141/141/141 142/142/142 16/16/16
f 17/17/17 143/143/143 141/141/141
g Hips
f 14/14/14 143/143/143 17/17/17
f 14/14/14 30/30/30 143/143/143
g R_Hip
f 143/143/143 30/30/30 144/144/144
f 143/143/143 144/144/144 141/141/141
f 141/141/141 144/144/144 142/142/142
f 30/30/30 145/145/145 144/144/144
s 4
g R_Knee
f 146/146/146 147/147/147 148/148/148
f 147/147/147 149/149/149 148/148/148
