# Blender 4.5.2 LTS
# www.blender.org
mtllib pIzqEntre.mtl
g Entrenador.004_Mesh
v 1.976199 -1.338672 0.790984
v 1.563419 -2.506100 1.348929
v 1.973858 -1.534088 -0.317770
v 1.166827 -1.714101 -2.350836
v -0.209156 -5.544512 0.265715
v 1.361174 -1.255183 -2.196025
v -0.852028 -0.641454 -3.132629
v -0.382009 0.426839 -3.005559
v -2.050245 -7.635607 -2.320169
v -1.340573 -7.901960 0.193313
v -3.826373 -6.325459 -2.893581
v -1.984388 0.072669 -1.809881
v -1.511902 0.931976 -1.761994
v -2.003398 0.817652 0.030275
v -5.654427 -5.929666 -1.145494
v -4.712672 -8.391159 -2.827700
v -2.919493 -10.141891 -1.362316
v -2.154195 -8.995625 1.170442
v -6.142222 -8.284985 -0.427243
v -5.269468 -10.168399 -1.447229
v -6.157315 -7.842634 0.315800
v -3.607399 -7.558116 1.841208
v -5.636457 -7.540389 1.149302
v -2.594683 -6.461429 2.160704
v -5.212584 -5.468522 0.743592
v -1.971207 -0.601233 1.548836
v -1.642189 0.786791 2.015624
v 0.382008 -0.426834 3.005559
v -0.075362 -1.410162 2.734791
v 1.522558 -1.284907 1.994021
v 2.108706 -1.296299 -0.349070
v 1.544678 -1.031903 -2.005202
v 0.815002 -0.600799 -2.371224
vn 0.9279 -0.3522 0.1224
vn 0.8176 -0.4835 0.3128
vn 0.8732 -0.4618 -0.1556
vn 0.7026 -0.3363 -0.6272
vn 0.8269 -0.4930 0.2705
vn 0.7267 -0.0738 -0.6829
vn -0.0433 0.1292 -0.9907
vn -0.1909 0.0091 -0.9816
vn 0.6284 -0.3718 -0.6833
vn 0.8500 -0.4203 0.3176
vn -0.2293 0.0820 -0.9699
vn -0.7230 0.3991 -0.5639
vn -0.7700 0.3905 -0.5046
vn -0.9138 0.3996 0.0723
vn -0.9070 0.3482 -0.2370
vn -0.3759 -0.2119 -0.9021
vn 0.4755 -0.5325 -0.7002
vn 0.8843 -0.1229 0.4504
vn -0.9145 0.0294 -0.4036
vn -0.4762 -0.4308 -0.7666
vn -0.9610 0.2749 0.0293
vn 0.4247 -0.2631 0.8662
vn 0.4216 0.0359 0.9061
vn 0.0211 -0.1365 0.9904
vn 0.2276 0.3792 0.8969
vn -0.7828 0.3082 0.5406
vn -0.7679 0.3452 0.5397
vn -0.7335 0.1968 0.6505
vn -0.8101 -0.1022 0.5772
vn -0.1872 -0.2182 0.9578
vn 0.1608 -0.3077 0.9378
vn 0.4974 -0.4409 0.7471
vn 0.8108 -0.5813 -0.0689
vn -0.1092 0.0117 -0.9939
vn 0.5570 0.1837 -0.8099
vn 0.7267 -0.0737 -0.6830
vn 0.2502 -0.6863 -0.6829
vn 0.3591 -0.4212 -0.8328
vt 0.627015 0.964940
vt 0.642037 0.937480
vt 0.613608 0.965317
vt 0.593954 0.954871
vt 0.636276 0.910665
vt 0.593631 0.972748
vt 0.564986 0.979801
vt 0.570317 0.984163
vt 0.599500 0.869367
vt 0.646506 0.871844
vt 0.566332 0.875505
vt 0.545495 0.989278
vt 0.545441 0.993585
vt 0.519757 0.985293
vt 0.525249 0.871790
vt 0.567732 0.854829
vt 0.600523 0.840560
vt 0.647368 0.846968
vt 0.522449 0.841153
vt 0.563748 0.830653
vt 0.510011 0.841099
vt 0.405177 0.846968
vt 0.406631 0.871844
vt 0.452506 0.849176
vt 0.455575 0.876905
vt 0.497573 0.840991
vt 0.498489 0.877659
vt 0.493643 0.962033
vt 0.492512 0.990624
vt 0.452291 0.970163
vt 0.451160 0.953471
vt 0.416053 0.959879
vt 0.405769 0.910665
vt 0.404369 0.937480
vt 0.400331 0.964940
vt 0.717580 0.863229
vt 0.678920 0.859944
vt 0.714242 0.883259
vt 0.899035 0.936511
vt 0.923642 0.900112
vt 0.899466 0.876959
vt 0.952233 0.892251
vt 0.963756 0.865867
vt 0.899789 0.863336
s 1
g off
g Entrenador.004_trainer_body
usemtl trainer_body
f 1/1/1 2/2/2 3/3/3
f 3/3/3 2/2/2 4/4/4
f 2/2/2 5/5/5 4/4/4
f 3/3/3 4/4/4 6/6/6
f 6/6/6 4/4/4 7/7/7
f 6/6/6 7/7/7 8/8/8
f 4/4/4 5/5/5 9/9/9
f 5/5/5 10/10/10 9/9/9
f 4/4/4 11/11/11 7/7/7
f 4/4/4 9/9/9 11/11/11
f 7/7/7 12/12/12 8/8/8
f 7/7/7 11/11/11 12/12/12
f 8/8/8 12/12/12 13/13/13
f 13/13/13 12/12/12 14/14/14
f 12/12/12 11/11/11 15/15/15
f 12/12/12 15/15/15 14/14/14
f 11/11/11 9/9/9 16/16/16
f 11/11/11 16/16/16 15/15/15
f 9/9/9 10/10/10 17/17/17
f 9/9/9 17/17/17 16/16/16
f 10/10/10 18/18/18 17/17/17
f 16/16/16 19/19/19 15/15/15
f 16/16/16 17/17/17 20/20/20
f 16/16/16 20/20/20 19/19/19
f 19/19/19 21/21/21 15/15/15
f 18/22/18 10/23/10 22/24/22
f 22/24/23 10/23/10 24/25/24
f 22/24/25 24/25/24 23/26/26
f 23/26/26 25/27/27 21/21/21
f 23/26/26 24/25/24 25/27/27
f 21/21/21 25/27/27 15/15/15
f 25/27/27 24/25/24 26/28/28
f 25/27/27 26/28/28 15/15/15
f 15/15/15 26/28/28 14/14/14
f 14/14/14 26/28/28 27/29/29
f 27/29/29 26/28/28 28/30/30
f 26/28/28 24/25/24 29/31/31
f 26/28/28 29/31/31 28/30/30
f 28/30/30 29/31/31 30/32/32
f 24/25/24 10/23/10 5/33/5
f 24/25/24 5/33/5 29/31/31
f 29/31/31 2/34/2 30/32/32
f 29/31/31 5/33/5 2/34/2
f 2/34/2 1/35/1 30/32/32
f 3/36/3 31/37/33 1/38/1
s 2
f 8/39/34 33/40/35 6/41/36
s 1
f 32/42/37 31/43/33 6/41/6
s 2
f 32/42/38 6/41/36 33/40/35
s 1
f 6/41/6 31/43/33 3/44/3
