# Blender 4.5.2 LTS
# www.blender.org
mtllib pIzqOak.mtl
g PiernaIzq_Mesh
v -13.220989 61.536297 -7.344943
v -15.557440 61.743969 -3.950730
v -13.273319 63.036667 -7.567087
v -15.788010 63.540100 -4.112321
v -8.671827 61.195004 -10.023142
v -8.708950 62.805588 -10.378252
v -16.516830 61.806107 -0.233620
v -15.603230 61.848408 3.275849
v -16.671909 63.857628 -0.261518
v -15.655809 63.973969 3.473580
v -9.076608 63.427818 9.005934
v -12.740470 63.856487 6.602799
v -9.032521 61.475338 8.632883
v -12.872001 61.814747 6.412059
v -3.920115 60.609020 -9.223146
v -4.610316 63.115437 9.943521
v -4.291932 61.286358 8.781178
v -1.047960 61.616669 8.459505
v -0.362704 59.745239 0.060844
v -0.808392 60.200569 6.208742
v -1.222443 59.301029 -3.974336
v -2.476587 59.515850 -7.412553
v -0.362704 59.745239 0.060844
v -15.642389 58.516869 3.449399
v -16.440439 58.527050 -0.118838
v -12.942520 58.509090 -7.206466
v -15.518590 58.524330 -3.806413
v -8.829880 58.503738 8.668177
v -12.809259 58.501480 6.608957
v -8.485579 58.530037 -9.717308
v -3.675451 58.563370 -8.192648
v -3.797627 58.546577 8.349619
v -0.822288 58.553520 6.287486
v -0.246210 58.536377 0.123042
v -1.388703 58.584209 -4.496008
v -12.730659 52.941040 -6.804564
v -8.390015 52.920380 -8.767904
v -3.936120 52.940468 -7.679801
v -1.451732 52.988789 -4.287765
v -0.434749 53.133949 0.243314
v -1.606683 53.277267 5.383356
v -8.851242 53.335457 8.293386
v -3.914227 53.315220 7.952166
v -13.003500 53.273598 6.425108
v -16.041359 53.122040 -0.010774
v -15.268749 53.206898 3.487769
v -15.057349 53.031849 -3.489907
v -0.246210 58.536377 0.123042
v -0.434749 53.133949 0.243314
v -8.357965 44.834179 -7.730734
v -12.567389 44.950359 -5.782142
v -4.119704 44.908169 -6.533664
v -1.916628 45.105789 -3.348475
v -2.418859 45.745659 4.430722
v -1.127529 45.437069 0.820288
v -8.910213 45.992317 7.734495
v -3.987840 45.913559 7.174753
v -12.867769 45.853951 6.031014
v -15.494420 45.398090 0.577736
v -14.745370 45.636547 3.701060
v -14.698480 45.159058 -2.765137
v -1.127529 45.437069 0.820288
v -11.652889 35.818890 -5.020319
v -8.360908 33.682930 -5.619947
v -11.260650 33.897770 -4.142817
v -13.462110 36.234840 -2.292653
v -13.162359 34.237160 -1.949016
v -15.083679 39.790680 0.637287
v -14.662519 35.052467 1.175249
v -13.731159 40.249939 5.104494
v -13.550340 35.763218 5.583437
v -9.049513 40.847988 7.462267
v -8.987741 36.265079 8.285551
v -3.383002 40.407909 5.905874
v -1.700916 39.806290 0.863499
v -3.483172 35.818020 6.319337
v -1.700916 39.806290 0.863499
v -1.868415 35.084869 1.219492
v -3.340101 36.130249 -2.980678
v -3.502869 34.183529 -2.689243
v -5.273040 33.800987 -4.806769
v -4.979014 35.698460 -5.748524
v -2.791168 39.574749 -2.873936
v -4.740154 39.402119 -5.873693
v -8.448874 39.242859 -6.852392
v -12.274620 39.448017 -5.046390
v -14.086240 39.664810 -2.351412
v -8.381429 35.536118 -6.792357
v -1.868415 35.084869 1.219492
vn -0.6794 -0.1096 -0.7255
vn -0.9060 -0.0900 -0.4136
vn -0.6813 -0.1411 -0.7183
vn -0.9053 -0.1410 -0.4007
vn -0.1831 -0.1922 -0.9641
vn -0.2614 -0.2136 -0.9413
vn -0.9985 -0.0535 0.0071
vn -0.8891 -0.0223 0.4572
vn -0.9971 -0.0713 0.0265
vn -0.8729 -0.0566 0.4845
vn -0.3945 -0.1810 0.9009
vn -0.6279 -0.0499 0.7767
vn -0.3220 -0.1076 0.9406
vn -0.6361 -0.0028 0.7716
vn 0.2520 -0.3877 -0.8867
vn -0.0106 -0.4832 0.8754
vn 0.1547 -0.3816 0.9113
vn 0.1402 -0.7674 0.6256
vn 0.9930 0.0990 0.0647
vn 0.7827 -0.1872 0.5935
vn 0.9631 -0.0148 -0.2686
vn 0.7346 -0.4268 -0.5275
vn 0.9728 0.0826 -0.2164
vn -0.8931 -0.0070 0.4499
vn -0.9989 -0.0468 -0.0091
vn -0.6444 -0.0974 -0.7584
vn -0.9046 -0.0678 -0.4209
vn -0.2134 -0.0518 0.9756
vn -0.6078 0.0012 0.7941
vn -0.0983 -0.1388 -0.9854
vn 0.5560 -0.2525 -0.7919
vn 0.3509 -0.0744 0.9335
vn 0.8636 -0.0684 0.4994
vn 0.9935 -0.0054 0.1133
vn 0.9289 -0.0503 -0.3670
vn -0.6304 -0.0986 -0.7700
vn -0.0933 -0.1279 -0.9874
vn 0.5588 -0.1022 -0.8230
vn 0.9075 -0.0640 -0.4150
vn 0.9680 -0.0689 0.2412
vn 0.8937 -0.1411 0.4259
vn -0.1816 -0.0649 0.9812
vn 0.4146 -0.1094 0.9034
vn -0.6130 -0.0397 0.7890
vn -0.9972 -0.0695 -0.0285
vn -0.9034 -0.0556 0.4251
vn -0.9007 -0.0873 -0.4256
vn 0.9741 0.0180 -0.2253
vn 0.9754 -0.0639 -0.2108
vn -0.0799 -0.1435 -0.9864
vn -0.6428 -0.1236 -0.7560
vn 0.5862 -0.1504 -0.7961
vn 0.9147 -0.1307 -0.3824
vn 0.9130 -0.0891 0.3982
vn 0.9368 -0.0759 0.3415
vn -0.1502 -0.0642 0.9866
vn 0.5296 -0.1130 0.8407
vn -0.5984 -0.0386 0.8003
vn -0.9973 -0.0734 0.0094
vn -0.8994 -0.0453 0.4348
vn -0.9060 -0.1001 -0.4113
vn 0.9789 -0.1012 -0.1773
vn -0.6511 -0.2744 -0.7077
vn -0.1036 -0.5159 -0.8504
vn -0.6284 -0.3946 -0.6703
vn -0.8665 -0.1922 -0.4606
vn -0.8310 -0.2131 -0.5138
vn -0.9946 -0.1006 -0.0265
vn -0.9906 -0.1109 -0.0797
vn -0.7768 -0.0119 0.6297
vn -0.7984 0.0195 0.6018
vn -0.1200 0.0300 0.9923
vn -0.0944 0.1351 0.9863
vn 0.7149 -0.0309 0.6985
vn 0.9465 -0.0426 0.3200
vn 0.7263 0.0414 0.6862
vn 0.9552 -0.1201 -0.2704
vn 0.9347 -0.0776 -0.3468
vn 0.8871 -0.1379 -0.4406
vn 0.8537 -0.1462 -0.4998
vn 0.5717 -0.3946 -0.7193
vn 0.5940 -0.2551 -0.7629
vn 0.9026 -0.1519 -0.4029
vn 0.5963 -0.1182 -0.7940
vn -0.0954 -0.0863 -0.9917
vn -0.6686 -0.1244 -0.7332
vn -0.8913 -0.1478 -0.4286
vn -0.0898 -0.2901 -0.9528
vn 0.9528 -0.0109 0.3033
vt 0.000000 0.000000
s 1
g LThigh
g PiernaIzq_body.001
usemtl body.001
f 1/1/1 2/1/2 3/1/3
f 3/1/3 2/1/2 4/1/4
f 5/1/5 3/1/3 6/1/6
f 7/1/7 8/1/8 9/1/9
f 9/1/9 8/1/8 10/1/10
g Hips
f 11/1/11 12/1/12 13/1/13
g LThigh
f 13/1/13 12/1/12 14/1/14
g Hips
f 17/1/17 16/1/16 13/1/13
f 13/1/13 16/1/16 11/1/11
f 18/1/18 16/1/16 17/1/17
f 17/1/17 20/1/20 18/1/18
g LThigh
f 24/1/24 8/1/8 25/1/25
f 25/1/25 8/1/8 7/1/7
f 26/1/26 27/1/27 1/1/1
f 1/1/1 27/1/27 2/1/2
f 28/1/28 13/1/13 29/1/29
f 29/1/29 13/1/13 14/1/14
f 5/1/5 30/1/30 1/1/1
f 15/1/15 31/1/31 5/1/5
f 22/1/22 31/1/31 15/1/15
f 32/1/32 17/1/17 28/1/28
f 28/1/28 17/1/17 13/1/13
f 33/1/33 34/1/34 20/1/20
g Hips
f 20/1/20 34/1/34 19/1/19
f 21/1/21 35/1/35 22/1/22
g LThigh
f 22/1/22 35/1/35 31/1/31
f 36/1/36 26/1/26 37/1/37
f 37/1/37 26/1/26 30/1/30
f 38/1/38 37/1/37 31/1/31
f 31/1/31 37/1/37 30/1/30
f 31/1/31 35/1/35 38/1/38
f 38/1/38 35/1/35 39/1/39
f 40/1/40 34/1/34 41/1/41
f 41/1/41 34/1/34 33/1/33
f 42/1/42 43/1/43 28/1/28
f 28/1/28 43/1/43 32/1/32
f 44/1/44 42/1/42 29/1/29
f 29/1/29 42/1/42 28/1/28
f 25/1/25 45/1/45 24/1/24
f 24/1/24 45/1/45 46/1/46
f 27/1/27 47/1/47 25/1/25
f 25/1/25 47/1/47 45/1/45
f 17/1/17 32/1/32 20/1/20
f 20/1/20 32/1/32 33/1/33
f 41/1/41 33/1/33 43/1/43
f 43/1/43 33/1/33 32/1/32
f 35/1/35 21/1/21 48/1/48
g Hips
f 48/1/48 21/1/21 23/1/23
g LThigh
f 35/1/35 48/1/48 39/1/39
f 39/1/39 48/1/48 49/1/49
f 5/1/5 31/1/31 30/1/30
f 1/1/1 30/1/30 26/1/26
f 1/1/1 3/1/3 5/1/5
f 29/1/29 14/1/14 24/1/24
f 24/1/24 14/1/14 8/1/8
f 8/1/8 14/1/14 10/1/10
f 10/1/10 14/1/14 12/1/12
f 29/1/29 24/1/24 44/1/44
f 44/1/44 24/1/24 46/1/46
f 2/1/2 27/1/27 7/1/7
f 7/1/7 27/1/27 25/1/25
f 2/1/2 7/1/7 4/1/4
f 4/1/4 7/1/7 9/1/9
f 47/1/47 27/1/27 36/1/36
f 36/1/36 27/1/27 26/1/26
f 37/1/37 50/1/50 36/1/36
f 36/1/36 50/1/50 51/1/51
f 37/1/37 38/1/38 50/1/50
f 50/1/50 38/1/38 52/1/52
f 38/1/38 39/1/39 52/1/52
f 52/1/52 39/1/39 53/1/53
f 41/1/41 54/1/54 40/1/40
f 40/1/40 54/1/54 55/1/55
f 42/1/42 56/1/56 43/1/43
f 43/1/43 56/1/56 57/1/57
f 42/1/42 44/1/44 56/1/56
f 56/1/56 44/1/44 58/1/58
f 45/1/45 59/1/59 46/1/46
f 46/1/46 59/1/59 60/1/60
f 47/1/47 61/1/61 45/1/45
f 45/1/45 61/1/61 59/1/59
f 43/1/43 57/1/57 41/1/41
f 41/1/41 57/1/57 54/1/54
f 39/1/39 49/1/49 53/1/53
f 53/1/53 49/1/49 62/1/62
f 44/1/44 46/1/46 58/1/58
f 58/1/58 46/1/46 60/1/60
f 36/1/36 51/1/51 47/1/47
f 47/1/47 51/1/51 61/1/61
g LLeg
f 63/1/63 64/1/64 65/1/65
f 66/1/66 65/1/65 67/1/67
f 68/1/68 66/1/66 69/1/69
f 69/1/69 66/1/66 67/1/67
g LThigh
f 70/1/70 68/1/68 71/1/71
f 72/1/72 70/1/70 73/1/73
f 74/1/74 72/1/72 73/1/73
f 75/1/75 74/1/74 76/1/76
f 77/1/77 78/1/78 79/1/79
g LLeg
f 79/1/79 78/1/78 80/1/80
f 81/1/81 79/1/79 80/1/80
f 64/1/64 82/1/82 81/1/81
g LThigh
f 56/1/56 72/1/72 57/1/57
f 57/1/57 72/1/72 74/1/74
f 54/1/54 57/1/57 74/1/74
f 55/1/55 54/1/54 75/1/75
f 75/1/75 54/1/54 74/1/74
f 62/1/62 77/1/77 53/1/53
f 53/1/53 77/1/77 83/1/83
f 53/1/53 83/1/83 52/1/52
f 52/1/52 83/1/83 84/1/84
f 52/1/52 84/1/84 50/1/50
f 50/1/50 84/1/84 85/1/85
f 50/1/50 85/1/85 51/1/51
f 51/1/51 85/1/85 86/1/86
f 61/1/61 51/1/51 87/1/87
f 87/1/87 51/1/51 86/1/86
f 59/1/59 61/1/61 68/1/68
f 68/1/68 61/1/61 87/1/87
f 59/1/59 68/1/68 60/1/60
f 60/1/60 68/1/68 70/1/70
f 58/1/58 60/1/60 70/1/70
f 56/1/56 58/1/58 72/1/72
f 72/1/72 58/1/58 70/1/70
f 83/1/83 77/1/77 79/1/79
f 83/1/83 79/1/79 84/1/84
f 84/1/84 79/1/79 82/1/82
f 88/1/88 84/1/84 82/1/82
f 86/1/86 88/1/88 63/1/63
f 87/1/87 86/1/86 66/1/66
f 66/1/66 86/1/86 63/1/63
f 68/1/68 87/1/87 66/1/66
f 66/1/66 63/1/63 65/1/65
f 82/1/82 79/1/79 81/1/81
f 5/1/5 6/1/6 15/1/15
f 86/1/86 85/1/85 88/1/88
f 85/1/85 84/1/84 88/1/88
f 63/1/63 88/1/88 64/1/64
f 88/1/88 82/1/82 64/1/64
g LLeg
f 73/1/73 70/1/70 71/1/71
f 74/1/74 73/1/73 76/1/76
f 71/1/71 68/1/68 69/1/69
f 75/1/75 76/1/76 89/1/89
