# Blender 4.5.2 LTS
# www.blender.org
mtllib rejaDer.mtl
g rejaDer_Mesh
v 2.648730 0.090507 -0.200000
v 2.648730 12.789991 -0.200000
v 2.648730 0.090507 0.200000
v 2.648730 12.789991 0.200000
v 2.528730 0.090507 -0.200000
v 2.528730 12.789991 -0.200000
v 2.528730 0.090507 0.200000
v 2.528730 12.789991 0.200000
v 2.166330 0.090507 -0.200000
v 2.166330 12.789991 -0.200000
v 2.166330 0.090507 0.200000
v 2.166330 12.789991 0.200000
v 2.046329 0.090507 -0.200000
v 2.046329 0.090507 0.200000
v 1.683930 0.090507 -0.200000
v 1.683930 0.090507 0.200000
v 1.563930 0.090507 -0.200000
v 1.563930 0.090507 0.200000
v 1.201531 0.090507 -0.200000
v 1.201531 0.090507 0.200000
v 1.081531 0.090507 -0.200000
v 1.081531 0.090507 0.200000
v 0.719131 0.090507 -0.200000
v 0.719131 0.090507 0.200000
v 0.599131 0.090507 -0.200000
v 0.599131 0.090507 0.200000
v 0.236732 0.090507 -0.200000
v 0.236732 0.090507 0.200000
v 0.116732 0.090507 -0.200000
v 0.116732 0.090507 0.200000
v 0.622937 12.113354 -0.090089
v 0.622937 12.113354 0.090089
v 2.166330 12.789991 -0.188021
v 2.166330 12.752201 0.090089
v 2.166330 12.789991 0.188021
v 2.166330 12.752201 -0.090089
v 2.141899 12.789991 0.200000
v 2.046329 12.771908 0.200000
v 2.046329 12.729494 -0.090089
v 2.046329 12.729494 0.090089
v 2.046329 12.771908 -0.200000
v 2.141897 12.789991 -0.200000
v 1.683930 12.637108 -0.090089
v 1.683930 12.681038 -0.200000
v 1.683930 12.637108 0.090089
v 1.683930 12.681038 0.200000
v 1.563930 12.642290 0.200000
v 1.563930 12.598360 -0.090089
v 1.563930 12.598360 0.090089
v 1.563930 12.642290 -0.200000
v 1.201531 12.448893 -0.090089
v 1.201531 12.495275 -0.200000
v 1.201531 12.448893 0.090089
v 1.201531 12.495275 0.200000
v 1.081531 12.438984 0.200000
v 1.081531 12.392601 -0.090089
v 1.081531 12.392601 0.090089
v 1.081531 12.438984 -0.200000
v 0.719131 12.224525 -0.200000
v 0.719131 12.174494 -0.090089
v 0.719131 12.174494 0.090089
v 0.719131 12.224525 0.200000
v 0.599131 12.148254 0.200000
v 0.599131 12.093494 -0.090089
v 0.599131 12.142866 0.188163
v 0.599131 12.093494 0.090089
v 0.599131 12.142866 -0.188163
v 0.599131 12.148254 -0.200000
v 0.236732 11.844759 -0.200000
v 0.236732 11.781668 0.090089
v 0.236732 11.781668 -0.090089
v 0.236732 11.844759 0.200000
v 0.116732 11.714600 0.200000
v 0.116732 11.651508 -0.090089
v 0.116732 11.651508 0.090089
v 0.116732 11.714600 -0.200000
v -0.131418 -0.235311 -0.350000
v -0.131418 0.164690 -0.350000
v -0.131418 -0.235311 0.350000
v -0.131418 0.164690 0.350000
v 2.813482 0.164690 0.350000
v 2.813482 -0.235311 0.350000
v 2.813482 -0.035032 0.350000
v 2.815618 -0.235311 -0.000740
v 2.817744 -0.235311 -0.350000
v 2.817744 0.164690 -0.350000
v 2.817744 -0.035877 -0.350000
v 2.815609 0.164690 0.000739
v 0.116732 0.090507 -0.200000
v 0.116732 11.714600 0.200000
v 0.116732 11.651508 -0.090089
v 0.116732 11.651508 0.090089
v 0.116732 11.714600 -0.200000
v 2.166330 12.789991 -0.200000
v 2.166330 12.789991 0.200000
v 2.166330 12.789991 -0.188021
v 2.166330 12.752201 0.090089
v 2.166330 12.789991 0.188021
v 2.166330 12.752201 -0.090089
v 2.141899 12.789991 0.200000
v 0.599131 12.148254 0.200000
v 0.599131 12.142866 0.188163
v 0.599131 12.093494 0.090089
v 0.236732 11.844759 -0.200000
v 0.236732 11.781668 -0.090089
v 0.116732 11.651508 -0.090089
v 0.116732 11.714600 -0.200000
v 2.166330 12.789991 -0.200000
v 2.166330 12.789991 -0.188021
v 2.046329 12.771908 -0.200000
v 2.141897 12.789991 -0.200000
v 0.236732 11.781668 0.090089
v 0.116732 11.714600 0.200000
v 0.116732 11.651508 0.090089
v -0.131418 -0.235311 -0.350000
v -0.131418 0.164690 -0.350000
v -0.131418 -0.235311 0.350000
v -0.131418 0.164690 0.350000
vn 1.0000 -0.0000 -0.0000
vn -0.0000 -0.0000 1.0000
vn -1.0000 -0.0000 -0.0000
vn -0.0000 -0.0000 -1.0000
vn -0.0000 -1.0000 -0.0000
vn -0.0000 1.0000 -0.0000
vn -0.7352 0.6778 -0.0000
vn -0.5975 0.7162 0.3606
vn -0.6406 0.7679 -0.0000
vn -0.5975 0.7162 -0.3606
vn -0.5007 0.7878 0.3586
vn -0.5364 0.8440 -0.0000
vn -0.5007 0.7878 -0.3586
vn -0.3967 0.8457 0.3569
vn -0.4247 0.9053 -0.0000
vn -0.3967 0.8457 -0.3569
vn -0.2872 0.8895 0.3555
vn -0.3073 0.9516 -0.0000
vn -0.2872 0.8895 -0.3555
vn -0.1738 0.9187 0.3545
vn -0.1859 0.9826 -0.0000
vn -0.1738 0.9187 -0.3545
vn -0.6852 0.6317 -0.3626
vn -0.1739 0.9188 0.3544
vn -1.0000 -0.0001 -0.0000
vn -0.6852 0.6317 0.3626
vt 0.625000 0.000000
vt 0.375000 0.250000
vt 0.375000 0.000000
vt 0.625000 0.250000
vt 0.375000 0.500000
vt 0.625000 0.500000
vt 0.375000 0.750000
vt 0.625000 0.750000
vt 0.375000 1.000000
vt 0.125000 0.750000
vt 0.125000 0.500000
vt 0.875000 0.500000
vt 0.624256 0.068695
vt 0.624256 0.181305
vt 0.625000 0.300899
vt 0.624644 0.500000
vt 0.623809 0.568695
vt 0.625000 1.000000
vt 0.624644 0.750000
vt 0.621990 0.068695
vt 0.621990 0.181305
vt 0.622092 0.500000
vt 0.621228 0.568695
vt 0.622092 0.750000
vt 0.622855 1.000000
vt 0.618285 0.068695
vt 0.618285 0.181305
vt 0.618090 0.500000
vt 0.617177 0.568695
vt 0.618090 0.750000
vt 0.619198 1.000000
vt 0.612883 0.068695
vt 0.612883 0.181305
vt 0.612367 0.500000
vt 0.611289 0.568694
vt 0.611289 0.681306
vt 0.612367 0.750000
vt 0.613868 1.000000
vt 0.605150 0.068695
vt 0.605150 0.181305
vt 0.603830 0.500000
vt 0.603830 0.750000
vt 0.606392 1.000000
vt 0.622410 0.000000
vt 0.614224 0.058824
vt 0.622410 0.058824
vt 0.645833 1.000000
vt 0.645833 0.965662
vt 0.644409 1.000000
vt 0.645833 0.000000
vt 0.644409 0.058824
vt 0.645833 0.058824
vt 0.645833 0.093161
vt 0.651037 1.000000
vt 0.645986 0.961518
vt 0.651037 0.058824
vt 0.651037 0.000000
vt 0.645987 0.097306
vt 0.671381 0.961518
vt 0.676369 1.000000
vt 0.677325 0.961518
vt 0.676369 0.000000
vt 0.670351 0.058824
vt 0.676369 0.058824
vt 0.671389 0.097305
vt 0.677334 0.097305
vt 0.694869 0.961518
vt 0.699871 1.000000
vt 0.700500 0.961518
vt 0.699871 0.000000
vt 0.694171 0.058824
vt 0.699871 0.058824
vt 0.694875 0.097305
vt 0.700506 0.097306
vt 0.717189 0.961518
vt 0.722286 1.000000
vt 0.722588 0.965712
vt 0.722286 0.000000
vt 0.716783 0.058824
vt 0.722286 0.058824
vt 0.721522 0.097305
vt 0.499645 0.875355
vt 0.249736 0.625264
vt 0.249827 0.500000
vt 0.875000 0.750000
vt 0.623809 0.681305
vt 0.622855 0.250000
vt 0.622855 0.000000
vt 0.621228 0.681305
vt 0.619198 0.250000
vt 0.619198 0.000000
vt 0.617177 0.681305
vt 0.613868 0.250000
vt 0.613868 0.000000
vt 0.612261 0.742602
vt 0.606392 0.250000
vt 0.606392 0.000000
vt 0.614224 0.000000
vt 0.616442 0.097306
vt 0.624528 0.097305
vt 0.644409 0.000000
vt 0.652384 0.961518
vt 0.652397 0.097306
vt 0.670351 1.000000
vt 0.670351 0.000000
vt 0.694171 1.000000
vt 0.694171 0.000000
vt 0.721519 0.961518
vt 0.716783 1.000000
vt 0.716783 0.000000
vt 0.717192 0.097305
vt 0.722592 0.093111
vt 0.625000 0.875355
vt 0.500173 0.374827
vt 0.375000 0.374827
vt 0.750264 0.624736
vt 0.750355 0.750000
vt 0.750173 0.500000
vt 0.602588 0.568695
vt 0.602588 0.681306
vt 0.824101 0.500000
vt 0.875000 0.507487
vt 0.625000 0.007487
vt 0.625000 0.242513
vt 0.612261 0.507398
vt 0.616418 0.961518
vt 0.622410 1.000000
vt 0.624524 0.961518
vt 0.614224 1.000000
vt 0.875000 0.742513
vt 0.824100 0.750000
vt 0.625000 0.949100
vt 0.375000 0.875355
vt 0.249645 0.750000
vt 0.625000 0.374827
s 1
g off
g rejaDer_Material.001
usemtl Material.001
f 2/1/1 3/2/1 1/3/1
s 2
f 4/4/2 7/5/2 3/2/2
s 3
f 8/6/3 5/7/3 7/5/3
s 4
f 6/8/4 1/9/4 5/7/4
s 5
f 7/5/5 1/10/5 3/11/5
s 6
f 4/12/6 6/8/6 8/6/6
s 7
f 36/13/1 34/14/1 11/2/1
s 8
f 11/2/2 37/15/2 38/16/2
s 9
f 13/7/3 38/16/3 40/17/3
s 10
f 10/18/4 13/7/4 41/19/4
s 11
f 14/5/5 9/10/5 11/11/5
s 12
f 15/3/1 43/20/1 45/21/1
s 13
f 16/2/2 47/22/2 18/5/2
s 14
f 17/7/3 47/22/3 49/23/3
s 15
f 15/9/4 50/24/4 44/25/4
s 16
f 18/5/5 15/10/5 16/11/5
s 17
f 19/3/1 51/26/1 53/27/1
s 18
f 20/2/2 55/28/2 22/5/2
s 19
f 21/7/3 55/28/3 57/29/3
s 20
f 19/9/4 58/30/4 52/31/4
s 21
f 22/5/5 19/10/5 20/11/5
s 22
f 23/3/1 60/32/1 61/33/1
s 23
f 24/2/2 63/34/2 26/5/2
s 24
f 25/7/3 66/35/3 64/36/3
s 25
f 23/9/4 68/37/4 59/38/4
s 26
f 26/5/5 23/10/5 24/11/5
s 27
f 27/3/1 71/39/1 70/40/1
s 28
f 28/2/2 73/41/2 30/5/2
s 29
f 27/9/4 76/42/4 69/43/4
s 30
f 30/5/5 27/10/5 28/11/5
s 31
f 71/44/7 75/45/7 70/46/7
s 32
f 31/47/8 67/48/8 64/49/8
s 33
f 31/50/9 66/51/9 32/52/9
s 34
f 32/52/10 66/51/10 65/53/10
s 35
f 60/54/11 68/55/11 67/48/11
s 36
f 31/50/12 61/56/12 60/57/12
s 37
f 63/58/13 61/56/13 32/52/13
s 38
f 58/59/14 51/60/14 52/61/14
s 39
f 51/62/15 57/63/15 53/64/15
s 40
f 53/64/16 55/65/16 54/66/16
s 41
f 50/67/17 43/68/17 44/69/17
s 42
f 43/70/18 49/71/18 45/72/18
s 43
f 45/72/19 47/73/19 46/74/19
s 44
f 41/75/20 36/76/20 33/77/20
s 45
f 36/78/21 40/79/21 34/80/21
s 46
f 37/81/22 34/80/22 40/79/22
s 47
f 87/82/4 77/7/4 78/8/4
s 48
f 79/5/5 84/83/5 82/84/5
s 1
f 2/1/1 4/4/1 3/2/1
s 2
f 4/4/2 8/6/2 7/5/2
s 3
f 8/6/3 6/8/3 5/7/3
s 4
f 6/8/4 2/18/4 1/9/4
s 5
f 7/5/5 5/7/5 1/10/5
s 6
f 4/12/6 2/85/6 6/8/6
s 49
f 11/2/1 9/3/1 10/1/1
f 11/2/1 10/1/1 36/13/1
s 7
f 34/14/1 12/4/1 11/2/1
s 8
f 38/16/2 14/5/2 11/2/2
s 50
f 11/2/2 12/4/2 37/15/2
s 9
f 39/86/3 41/19/3 13/7/3
f 13/7/3 14/5/3 38/16/3
f 40/17/3 39/86/3 13/7/3
s 51
f 10/18/4 9/9/4 13/7/4
s 11
f 14/5/5 13/7/5 9/10/5
s 12
f 46/87/1 16/2/1 15/3/1
f 15/3/1 44/88/1 43/20/1
f 45/21/1 46/87/1 15/3/1
s 13
f 16/2/2 46/87/2 47/22/2
s 14
f 48/89/3 50/24/3 17/7/3
f 17/7/3 18/5/3 47/22/3
f 49/23/3 48/89/3 17/7/3
s 15
f 15/9/4 17/7/4 50/24/4
s 16
f 18/5/5 17/7/5 15/10/5
s 17
f 54/90/1 20/2/1 19/3/1
f 19/3/1 52/91/1 51/26/1
f 53/27/1 54/90/1 19/3/1
s 18
f 20/2/2 54/90/2 55/28/2
s 19
f 56/92/3 58/30/3 21/7/3
f 21/7/3 22/5/3 55/28/3
f 57/29/3 56/92/3 21/7/3
s 20
f 19/9/4 21/7/4 58/30/4
s 21
f 22/5/5 21/7/5 19/10/5
s 22
f 62/93/1 24/2/1 23/3/1
f 23/3/1 59/94/1 60/32/1
f 61/33/1 62/93/1 23/3/1
s 23
f 24/2/2 62/93/2 63/34/2
s 24
f 67/95/3 68/37/3 25/7/3
s 52
f 25/7/3 26/5/3 63/34/3
s 24
f 64/36/3 67/95/3 25/7/3
s 52
f 25/7/3 63/34/3 66/35/3
s 25
f 23/9/4 25/7/4 68/37/4
s 26
f 26/5/5 25/7/5 23/10/5
s 27
f 72/96/1 28/2/1 27/3/1
s 53
f 27/3/1 69/97/1 71/39/1
s 27
f 70/40/1 72/96/1 27/3/1
s 28
f 28/2/2 72/96/2 73/41/2
s 54
f 29/7/3 30/5/3 73/41/3
s 29
f 27/9/4 29/7/4 76/42/4
s 30
f 30/5/5 29/7/5 27/10/5
s 31
f 71/44/7 74/98/7 75/45/7
s 55
f 73/99/23 72/100/23 70/46/23
s 33
f 31/50/9 64/101/9 66/51/9
s 35
f 67/48/11 31/47/11 60/54/11
f 60/54/11 59/102/11 68/55/11
s 36
f 31/50/12 32/52/12 61/56/12
s 56
f 32/52/13 65/53/13 63/58/13
s 37
f 63/58/13 62/103/13 61/56/13
s 38
f 58/59/14 56/104/14 51/60/14
s 39
f 51/62/15 56/105/15 57/63/15
s 40
f 53/64/16 57/63/16 55/65/16
s 41
f 50/67/17 48/106/17 43/68/17
s 42
f 43/70/18 48/107/18 49/71/18
s 43
f 45/72/19 49/71/19 47/73/19
s 57
f 33/77/24 42/108/24 41/75/24
s 44
f 41/75/20 39/109/20 36/76/20
s 45
f 36/78/21 39/110/21 40/79/21
s 46
f 40/79/22 38/111/22 37/81/22
s 58
f 37/81/22 35/112/22 34/80/22
s 59
f 78/8/4 86/113/4 87/82/4
s 48
f 77/7/5 84/83/5 79/5/5
s 60
f 83/114/2 80/6/2 79/5/2
s 61
f 82/115/2 83/114/2 79/5/2
s 62
f 88/116/6 86/117/6 78/8/6
s 63
f 88/116/6 80/6/6 81/118/6
s 64
f 89/7/3 90/41/3 92/119/3
f 91/120/3 93/42/3 89/7/3
f 92/119/3 91/120/3 89/7/3
s 65
f 100/121/6 95/12/6 98/122/6
s 66
f 94/1/1 96/123/1 99/13/1
s 67
f 97/14/1 98/124/1 95/4/1
s 68
f 101/34/25 102/125/25 103/35/25
s 69
f 107/126/26 105/127/26 104/128/26
f 107/126/26 106/129/26 105/127/26
s 70
f 109/130/6 108/85/6 111/131/6
s 71
f 113/99/23 112/46/23 114/45/23
s 72
f 118/6/3 115/7/3 117/5/3
s 73
f 110/19/4 111/132/4 108/18/4
s 72
f 118/6/3 116/8/3 115/7/3
s 47
f 87/82/4 85/133/4 77/7/4
s 74
f 77/7/5 85/134/5 84/83/5
s 60
f 83/114/2 81/135/2 80/6/2
s 62
f 88/116/6 78/8/6 80/6/6
