# Blender 4.5.2 LTS
# www.blender.org
mtllib zDerEntre.mtl
g Entrenador.005_Mesh
v 1.709607 -12.650098 3.391915
v 0.571708 -12.671908 1.583780
v 3.970555 -12.593296 3.160175
v 1.942440 -12.622321 -2.860215
v 6.669259 -12.497067 -0.834930
v 2.034852 -12.618575 -3.274584
v 6.957911 -12.488071 -1.360357
v 5.891675 -12.512590 -6.251807
v 6.862356 -12.491053 -5.542062
v 7.637111 -12.476174 -4.319200
v 4.750945 -12.540414 -6.371815
v 3.414243 -12.574898 -5.978682
v -0.527181 0.142645 2.193060
v -2.134688 -0.680336 1.090617
v 1.403589 0.607489 1.370659
v 1.777447 0.786752 0.455919
v 2.464191 -0.827987 1.603323
v 1.639300 0.811904 -0.405517
v 0.696020 -3.723004 3.279621
v -1.451861 -5.293048 0.951236
v 3.663497 -3.346196 -0.456233
v 3.705652 -2.786618 1.814292
v 1.785113 -7.321188 3.788353
v -0.334640 -7.401700 1.096421
v 0.527182 -0.142645 -2.193060
v 4.008430 -5.890597 2.093657
v 4.275098 -6.008961 -0.565722
v 5.560819 -8.493189 2.163505
v 2.655861 -6.649341 -2.087757
v 6.008103 -8.402058 -1.382390
v -1.782524 -0.204922 -1.760093
v -0.139126 -4.696660 -1.699315
v 5.404145 -9.675975 -0.933025
v 4.276573 -9.352834 -2.738103
v 0.839416 -7.181614 -1.423166
v 0.234660 -9.152773 -0.449220
v 1.814306 -8.398502 -2.534559
v 2.084456 -9.889591 -2.101180
v 1.050167 -10.101481 -0.168017
v 0.775615 -10.844842 -0.183786
v 2.442013 -10.228254 -1.472940
v 1.436118 -10.740604 -0.069800
v 4.224164 -9.712060 -2.438349
v 5.038873 -9.669881 -0.677942
v 4.769979 -10.508802 0.930581
v 5.562172 -10.168657 1.327633
v 3.770517 -9.958401 2.583412
v 3.574326 -9.767712 3.190971
v 2.074153 -10.254333 2.640973
v 1.917916 -10.064481 3.379511
v 0.003036 -10.018054 1.487595
v 0.997685 -10.091768 1.605910
v 5.677488 -10.958767 -5.738206
v 3.595197 -11.102295 -5.590312
v 2.380945 -11.041798 -3.608536
v 4.806548 -10.414931 -3.489326
v 1.402621 -11.629300 -0.934791
v 0.481593 -11.763534 1.794605
v 1.615114 -11.682007 3.505371
v 4.004294 -11.576481 3.176205
v 5.088647 -11.444453 1.305866
v 6.483128 -10.904514 -1.526656
v 7.140101 -10.996905 -4.249643
vn -0.5164 -0.4938 0.6996
vn -0.3252 -0.9207 0.2157
vn 0.2835 -0.7560 0.5899
vn 0.0271 -0.9996 -0.0037
vn 0.0279 -0.9996 -0.0033
vn 0.0263 -0.9996 -0.0025
vn 0.0238 -0.9997 -0.0006
vn 0.0249 -0.9997 -0.0013
vn 0.0205 -0.9998 0.0002
vn 0.0188 -0.9998 0.0003
vn 0.0248 -0.9997 -0.0035
vn 0.5426 0.3687 0.7547
vn -0.0649 0.2479 0.9666
vn 0.7343 0.4866 0.4734
vn 0.9287 0.3650 0.0662
vn 0.8657 0.3721 -0.3347
vn -0.9505 -0.0779 0.3007
vn -0.1916 0.1384 0.9717
vn -0.9446 -0.3164 0.0870
vn 0.8384 0.3409 -0.4252
vn 0.8111 0.3051 0.4990
vn -0.1386 -0.0003 0.9903
vn -0.9774 -0.2066 0.0457
vn 0.2809 0.0999 -0.9545
vn 0.8047 0.2934 0.5161
vn 0.8855 0.4008 -0.2351
vn 0.8761 0.1253 0.4655
vn 0.1725 0.2433 -0.9545
vn 0.8615 0.1699 -0.4785
vn -0.4951 -0.2280 -0.8384
vn -0.6774 -0.2712 -0.6838
vn 0.7343 -0.6376 -0.2329
vn 0.2491 -0.3793 -0.8911
vn 0.6123 -0.7313 -0.3004
vn -0.7305 -0.1128 -0.6735
vn -0.8237 -0.3174 -0.4699
vn -0.4640 -0.0077 -0.8858
vn -0.4757 -0.5514 -0.6854
vn -0.8436 -0.2020 -0.4975
vn -0.6759 -0.2733 -0.6844
vn -0.8246 0.3145 -0.4702
vn -0.3318 -0.6763 -0.6577
vn -0.0037 -0.8626 -0.5060
vn 0.0796 -0.9938 -0.0772
vn 0.0487 -0.9775 0.2053
vn -0.3299 -0.5765 -0.7475
vn 0.2492 -0.3793 -0.8911
vn -0.0322 -0.6365 -0.7706
vn 0.4293 -0.5922 -0.6819
vn 0.1734 -0.8486 -0.4998
vn 0.4794 -0.8170 -0.3204
vn -0.1835 -0.9533 -0.2400
vn 0.3434 -0.8525 -0.3942
vn 0.1191 -0.9865 -0.1122
vn 0.8258 -0.4967 -0.2672
vn 0.5929 -0.7500 0.2932
vn 0.6123 -0.7314 -0.3003
vn 0.5929 -0.7500 0.2931
vn 0.4564 -0.8882 0.0532
vn 0.4093 -0.5977 0.6893
vn 0.3250 -0.6326 0.7029
vn 0.1591 -0.9184 0.3623
vn 0.4188 -0.7746 0.4739
vn 0.0232 -0.9815 0.1900
vn -0.1860 -0.6955 0.6940
vn -0.5643 -0.7786 0.2745
vn -0.6788 -0.7108 0.1844
vn -0.7520 -0.6200 0.2238
vn -0.7649 -0.6324 0.1222
vn -0.6787 -0.7108 0.1845
vn -0.9841 -0.1668 0.0613
vn -0.4457 -0.8298 0.3358
vn -0.4796 -0.8566 0.1904
vn -0.0881 -0.9883 0.1245
vn 0.0232 -0.9815 0.1899
vn -0.0881 -0.9883 0.1246
vn 0.3321 0.3370 -0.8810
vn -0.0944 0.3437 -0.9343
vn 0.2511 0.6602 -0.7078
vn -0.3569 0.6685 -0.6525
vn -0.7087 0.2182 -0.6709
vn -0.9327 0.1338 -0.3349
vn -0.7951 0.4905 -0.3567
vn -0.9548 0.1091 -0.2764
vn 0.0600 0.9559 -0.2875
vn -0.9182 0.2447 -0.3115
vn -0.9975 -0.0630 -0.0334
vn -0.6286 0.6511 -0.4253
vn -0.6555 0.4646 -0.5953
vn -0.1273 0.4127 -0.9019
vn -0.6556 0.4646 -0.5953
vn -0.8765 0.3330 -0.3476
vn -0.9880 0.0942 0.1228
vn -0.8519 0.4204 0.3124
vn -0.7766 -0.6294 -0.0285
vn -0.5164 -0.4937 0.6997
vn -0.3130 0.2485 0.9167
vn -0.3073 0.5632 0.7670
vn 0.3425 0.4409 0.8296
vn 0.3835 0.0963 0.9185
vn 0.6187 0.2326 0.7504
vn 0.3850 -0.1983 0.9014
vn 0.6188 0.2326 0.7503
vn 0.8930 -0.1702 0.4166
vn 0.4229 -0.6445 0.6370
vn 0.8239 0.3015 0.4800
vn 0.8199 0.3870 0.4219
vn 0.5363 -0.0173 0.8438
vn 0.8344 0.2343 0.4989
vn 0.7082 0.7013 0.0815
vn 0.7946 0.5533 0.2501
vn 0.3777 0.4690 -0.7984
vn 0.6687 0.6997 -0.2515
vn 0.8896 0.3026 0.3421
vn 0.9472 0.3193 -0.0305
vn 0.6782 0.3535 -0.6443
vt 0.982170 0.530580
vt 0.951856 0.499243
vt 0.955679 0.570855
vt 0.856337 0.487182
vt 0.857037 0.587008
vt 0.847560 0.485189
vt 0.845137 0.592070
vt 0.756348 0.536880
vt 0.763510 0.564394
vt 0.782409 0.586416
vt 0.764425 0.509688
vt 0.783701 0.495581
vt 0.497573 0.840991
vt 0.452506 0.849176
vt 0.496066 0.823276
vt 0.510011 0.841099
vt 0.522449 0.841153
vt 0.405177 0.846968
vt 0.444699 0.782786
vt 0.396293 0.769001
vt 0.526703 0.773740
vt 0.493266 0.781655
vt 0.440876 0.726465
vt 0.387678 0.734649
vt 0.563748 0.830653
vt 0.493697 0.737018
vt 0.527403 0.734164
vt 0.494935 0.710635
vt 0.566548 0.732603
vt 0.529018 0.712896
vt 0.596485 0.771640
vt 0.600523 0.840560
vt 0.530634 0.691628
vt 0.566332 0.700781
vt 0.647368 0.846968
vt 0.653129 0.769001
vt 0.605854 0.732872
vt 0.653668 0.734649
vt 0.631161 0.712465
vt 0.608600 0.714619
vt 0.611292 0.696366
vt 0.633691 0.701804
vt 0.636276 0.691143
vt 0.602354 0.675367
vt 0.642199 0.674451
vt 0.568002 0.684305
vt 0.539410 0.675098
vt 0.499081 0.667990
vt 0.496227 0.684251
vt 0.464675 0.678651
vt 0.472482 0.700297
vt 0.435760 0.681936
vt 0.435653 0.698250
vt 0.398877 0.692220
vt 0.385793 0.712896
vt 0.384824 0.702020
vt 0.383909 0.691143
vt 0.384824 0.672459
vt 0.402431 0.677305
vt 0.654906 0.608761
vt 0.676121 0.608492
vt 0.662606 0.652698
vt 0.703904 0.651460
vt 0.697335 0.608277
vt 0.804216 0.609408
vt 0.788762 0.649414
vt 0.807177 0.609623
vt 0.757102 0.707512
vt 0.666536 0.708211
vt 0.862798 0.643760
vt 0.940549 0.608062
vt 0.846268 0.702558
vt 0.802385 0.721780
vt 0.890851 0.700727
vt 0.946256 0.641660
vt 0.933711 0.709073
vt 0.988578 0.607362
vt 0.993478 0.644514
vt 0.970702 0.699920
vt 0.927303 0.710258
vt 0.933657 0.642522
vt 0.878951 0.688397
vt 0.933657 0.608062
vt 0.989762 0.607362
vt 0.875936 0.646291
vt 0.806746 0.609569
vt 0.851060 0.702827
vt 0.792801 0.650168
vt 0.757533 0.707512
vt 0.705950 0.651460
vt 0.790701 0.609677
vt 0.700189 0.608277
vt 0.677521 0.608600
vt 0.654852 0.608977
s 1
g off
g Entrenador.005_trainer_body
usemtl trainer_body
f 1/1/1 2/2/2 3/3/3
f 2/2/2 4/4/4 3/3/3
f 3/3/3 4/4/4 5/5/5
f 4/4/4 6/6/6 5/5/5
f 5/5/5 6/6/6 7/7/7
f 7/7/7 6/6/6 8/8/8
f 8/8/8 9/9/9 7/7/7
f 7/7/7 9/9/9 10/10/10
f 8/8/8 6/6/6 11/11/11
f 11/11/11 6/6/6 12/12/11
s 2
f 15/13/12 13/14/13 17/15/14
f 15/13/12 17/15/14 16/16/15
f 16/16/15 17/15/14 18/17/16
f 13/14/13 14/18/17 19/19/18
f 13/14/13 19/19/18 17/15/14
f 14/18/17 20/20/19 19/19/18
f 17/15/14 21/21/20 18/17/16
f 17/15/14 19/19/18 22/22/21
f 17/15/14 22/22/21 21/21/20
f 19/19/18 20/20/19 23/23/22
f 19/19/18 23/23/22 22/22/21
f 20/20/19 24/24/23 23/23/22
f 18/17/16 21/21/20 25/25/24
f 22/22/21 23/23/22 26/26/25
f 22/22/21 27/27/26 21/21/20
f 22/22/21 26/26/25 27/27/26
f 26/26/25 23/23/22 28/28/27
f 26/26/25 28/28/27 27/27/26
f 21/21/20 29/29/28 25/25/24
f 21/21/20 27/27/26 29/29/28
f 27/27/26 28/28/27 30/30/29
f 27/27/26 30/30/29 29/29/28
f 25/25/24 29/29/28 32/31/30
f 25/25/24 32/31/30 31/32/31
f 30/30/29 28/28/27 33/33/32
f 30/30/29 34/34/33 29/29/28
f 30/30/29 33/33/34 34/34/33
f 14/35/17 31/32/31 20/36/19
f 31/32/31 32/31/30 20/36/19
f 32/31/30 29/29/28 35/37/35
f 32/31/30 35/37/35 20/36/19
f 20/36/19 35/37/35 24/38/23
f 24/38/23 35/37/35 36/39/36
f 35/37/35 29/29/28 37/40/37
f 29/29/28 34/34/33 37/40/37
f 35/37/35 37/40/37 36/39/36
f 37/40/37 34/34/33 38/41/38
f 37/40/37 38/41/38 36/39/36
f 36/39/36 38/41/38 39/42/39
s 3
f 39/42/39 38/41/40 40/43/41
s 4
f 38/41/42 34/34/33 41/44/43
f 38/41/42 41/44/43 40/43/44
f 40/43/44 41/44/43 42/45/45
s 5
f 41/44/46 34/34/47 43/46/48
s 2
f 34/34/33 33/33/34 43/46/49
s 6
f 43/46/50 33/33/51 44/47/52
s 7
f 44/47/52 33/33/53 45/48/54
s 2
f 33/33/55 28/28/27 46/49/56
s 8
f 33/33/57 46/49/58 45/48/59
f 45/48/59 46/49/58 47/50/60
s 2
f 46/49/56 28/28/27 48/51/61
f 46/49/56 48/51/61 47/50/62
f 47/50/63 48/51/61 49/52/64
f 28/28/27 23/23/22 48/51/61
f 48/51/61 50/53/65 49/52/64
f 48/51/61 23/23/22 50/53/65
f 50/53/65 51/54/66 49/52/64
f 50/53/65 23/23/22 51/54/67
f 23/23/22 24/24/23 51/54/68
f 24/24/23 36/55/36 51/54/69
f 36/55/36 39/56/39 51/54/70
s 3
f 39/56/39 40/57/41 51/54/71
s 4
f 40/57/44 42/58/45 51/54/72
s 9
f 51/54/73 52/59/74 49/52/75
s 10
f 52/59/76 51/54/66 42/58/45
s 11
f 8/60/77 11/61/78 53/62/79
f 11/61/78 54/63/80 53/62/79
f 11/61/78 12/64/81 54/63/80
f 12/64/81 6/65/82 55/66/83
f 12/64/81 55/66/83 54/63/80
f 6/65/82 4/67/84 55/66/83
f 55/66/83 56/68/85 54/63/80
f 54/63/80 56/68/85 53/69/79
f 55/66/83 4/67/84 57/70/86
f 4/67/84 2/71/87 57/70/86
f 55/66/83 41/72/88 56/68/85
f 55/66/83 57/70/86 41/72/88
s 12
f 41/72/89 43/73/90 56/68/85
s 11
f 41/72/91 57/70/86 42/74/92
f 57/70/86 2/71/87 58/75/93
f 57/70/86 58/75/93 42/74/92
f 42/74/92 58/75/93 52/76/94
f 2/71/95 1/77/96 58/75/93
f 58/75/93 59/78/97 52/76/94
f 58/75/93 1/77/96 59/78/97
f 52/76/94 59/78/97 49/79/98
f 49/79/98 59/78/97 47/80/99
f 47/80/100 59/78/97 60/81/101
s 13
f 47/80/102 60/81/103 45/82/104
s 11
f 60/81/101 59/78/97 3/83/105
f 59/78/97 1/84/96 3/83/105
f 60/81/101 61/85/106 45/82/107
f 60/81/101 3/83/105 61/85/106
f 3/83/108 5/86/109 61/85/106
f 45/82/107 61/85/106 44/87/110
f 61/85/106 5/86/109 62/88/111
f 61/85/106 62/88/111 44/87/110
f 44/87/110 56/89/85 43/73/112
f 44/87/110 62/88/111 56/89/85
f 56/89/85 63/90/113 53/69/79
f 56/89/85 62/88/111 63/90/113
f 5/86/109 7/91/114 62/88/111
f 62/88/111 10/92/115 63/90/113
f 62/88/111 7/91/114 10/92/115
f 10/92/115 9/93/116 63/90/113
f 63/90/113 9/93/116 53/62/79
f 53/62/79 9/93/116 8/94/77
